%
M48
M72
T01C0.0320
T02C0.0354
T03C0.0400
T04C0.0430
T05C0.0750
%
T01
X13680Y9680
X14680Y9680
T02
X15180Y11680
X16430Y11180
X16430Y13180
X16430Y17180
X16430Y19180
X16430Y23180
X11180Y11680
X7180Y11680
X3180Y11680
X1930Y13180
X1930Y17180
X1930Y19180
X1930Y23180
X1930Y25180
X1930Y29180
X16430Y7180
T03
X2180Y2180
X2180Y3180
X2180Y4180
X2180Y5180
X2180Y6180
X2180Y7180
X3180Y7680
X4180Y7680
X5180Y7680
X6180Y7680
X6618Y6555
X7180Y7680
X7618Y6555
X8180Y7680
X7900Y9040
X7900Y10820
X9180Y7680
X10180Y7680
X10743Y6555
X11180Y7680
X11743Y6555
X12180Y7680
X13180Y7680
X14180Y7680
X16430Y5180
X16430Y4180
X16430Y3180
X16430Y2180
X14180Y1680
X13180Y1680
X12180Y1680
X11180Y1680
X10180Y1680
X9180Y1680
X8180Y1680
X7180Y1680
X6180Y1680
X5180Y1680
X4180Y1680
X3180Y1680
X2930Y9680
X3930Y9680
X4930Y9680
X4180Y15680
X10460Y10820
X10460Y9040
X14180Y33180
T04
X16430Y33180
X1930Y33180
T05
X6580Y13430
X11680Y13430
M30
