G75*
%MOIN*%
%OFA0B0*%
%FSLAX25Y25*%
%IPPOS*%
%LPD*%
%AMOC8*
5,1,8,0,0,1.08239X$1,22.5*
%
%ADD10C,0.07400*%
%ADD11C,0.11250*%
%ADD12C,0.07000*%
%ADD13C,0.01000*%
D10*
X0021800Y0021800D03*
X0021800Y0031800D03*
X0021800Y0041800D03*
X0021800Y0051800D03*
X0021800Y0061800D03*
X0021800Y0071800D03*
X0031800Y0076800D03*
X0041800Y0076800D03*
X0051800Y0076800D03*
X0061800Y0076800D03*
X0066175Y0065550D03*
X0071800Y0076800D03*
X0076175Y0065550D03*
X0081800Y0076800D03*
X0079000Y0090400D03*
X0079000Y0108200D03*
X0071800Y0116800D03*
X0091800Y0076800D03*
X0101800Y0076800D03*
X0107425Y0065550D03*
X0111800Y0076800D03*
X0117425Y0065550D03*
X0121800Y0076800D03*
X0131800Y0076800D03*
X0141800Y0076800D03*
X0136800Y0096800D03*
X0146800Y0096800D03*
X0151800Y0116800D03*
X0164300Y0111800D03*
X0164300Y0131800D03*
X0164300Y0171800D03*
X0164300Y0191800D03*
X0164300Y0231800D03*
X0111800Y0116800D03*
X0104600Y0108200D03*
X0104600Y0090400D03*
X0101800Y0016800D03*
X0091800Y0016800D03*
X0081800Y0016800D03*
X0071800Y0016800D03*
X0061800Y0016800D03*
X0051800Y0016800D03*
X0041800Y0016800D03*
X0031800Y0016800D03*
X0029300Y0096800D03*
X0039300Y0096800D03*
X0049300Y0096800D03*
X0031800Y0116800D03*
X0019300Y0131800D03*
X0019300Y0171800D03*
X0019300Y0191800D03*
X0019300Y0231800D03*
X0019300Y0251800D03*
X0019300Y0291800D03*
X0111800Y0016800D03*
X0121800Y0016800D03*
X0131800Y0016800D03*
X0141800Y0016800D03*
X0164300Y0021800D03*
X0164300Y0031800D03*
X0164300Y0041800D03*
X0164300Y0051800D03*
X0164300Y0071800D03*
D11*
X0116800Y0134300D03*
X0065800Y0134300D03*
D12*
X0041800Y0156800D03*
X0019300Y0331800D03*
X0141800Y0331800D03*
X0164300Y0331800D03*
D13*
X0014300Y0126800D02*
X0014300Y0014300D01*
X0019300Y0009300D01*
X0074300Y0009300D01*
X0081800Y0016800D01*
X0071800Y0016800D02*
X0066800Y0011800D01*
X0021800Y0011800D01*
X0016800Y0016800D01*
X0016800Y0111800D01*
X0041800Y0136800D01*
X0041800Y0156800D01*
X0031800Y0116800D02*
X0039300Y0109300D01*
X0039300Y0096800D01*
X0039300Y0084300D01*
X0031800Y0076800D01*
X0049300Y0096800D02*
X0049300Y0104300D01*
X0079300Y0134300D01*
X0116800Y0134300D01*
X0124300Y0136800D02*
X0089300Y0171800D01*
X0019300Y0171800D01*
X0011800Y0179300D01*
X0011800Y0224300D01*
X0011800Y0284300D01*
X0019300Y0291800D01*
X0019300Y0331800D01*
X0019300Y0251800D02*
X0129300Y0141800D01*
X0129300Y0084300D01*
X0121800Y0076800D01*
X0111800Y0076800D02*
X0126800Y0091800D01*
X0126800Y0139300D01*
X0074300Y0191800D01*
X0019300Y0191800D01*
X0011800Y0224300D02*
X0019300Y0231800D01*
X0019300Y0131800D02*
X0014300Y0126800D01*
X0061800Y0076800D02*
X0066800Y0071800D01*
X0164300Y0071800D01*
X0164300Y0051800D01*
X0169300Y0046800D02*
X0164300Y0041800D01*
X0169300Y0046800D02*
X0169300Y0106800D01*
X0164300Y0111800D01*
X0164300Y0131800D02*
X0156800Y0131800D01*
X0146800Y0121800D01*
X0146800Y0096800D01*
X0141800Y0091800D02*
X0136800Y0096800D01*
X0141800Y0091800D02*
X0141800Y0076800D01*
X0124300Y0099300D02*
X0101800Y0076800D01*
X0091800Y0077600D02*
X0104600Y0090400D01*
X0091800Y0077600D02*
X0091800Y0076800D01*
X0081800Y0076800D02*
X0071800Y0086800D01*
X0071800Y0116800D01*
X0111800Y0116800D01*
X0124300Y0099300D02*
X0124300Y0136800D01*
X0171800Y0184300D02*
X0164300Y0191800D01*
X0171800Y0184300D02*
X0171800Y0016800D01*
X0166800Y0011800D01*
X0096800Y0011800D01*
X0091800Y0016800D01*
X0164300Y0231800D02*
X0141800Y0254300D01*
X0141800Y0331800D01*
M02*
