G75*
%MOIN*%
%OFA0B0*%
%FSLAX25Y25*%
%IPPOS*%
%LPD*%
%AMOC8*
5,1,8,0,0,1.08239X$1,22.5*
%
%ADD10C,0.07400*%
%ADD11C,0.11250*%
%ADD12C,0.07000*%
%ADD13C,0.01600*%
D10*
X0021800Y0021800D03*
X0021800Y0031800D03*
X0021800Y0041800D03*
X0021800Y0051800D03*
X0021800Y0061800D03*
X0021800Y0071800D03*
X0031800Y0076800D03*
X0041800Y0076800D03*
X0051800Y0076800D03*
X0061800Y0076800D03*
X0066175Y0065550D03*
X0071800Y0076800D03*
X0076175Y0065550D03*
X0081800Y0076800D03*
X0079000Y0090400D03*
X0079000Y0108200D03*
X0071800Y0116800D03*
X0091800Y0076800D03*
X0101800Y0076800D03*
X0107425Y0065550D03*
X0111800Y0076800D03*
X0117425Y0065550D03*
X0121800Y0076800D03*
X0131800Y0076800D03*
X0141800Y0076800D03*
X0136800Y0096800D03*
X0146800Y0096800D03*
X0151800Y0116800D03*
X0164300Y0111800D03*
X0164300Y0131800D03*
X0164300Y0171800D03*
X0164300Y0191800D03*
X0164300Y0231800D03*
X0111800Y0116800D03*
X0104600Y0108200D03*
X0104600Y0090400D03*
X0101800Y0016800D03*
X0091800Y0016800D03*
X0081800Y0016800D03*
X0071800Y0016800D03*
X0061800Y0016800D03*
X0051800Y0016800D03*
X0041800Y0016800D03*
X0031800Y0016800D03*
X0029300Y0096800D03*
X0039300Y0096800D03*
X0049300Y0096800D03*
X0031800Y0116800D03*
X0019300Y0131800D03*
X0019300Y0171800D03*
X0019300Y0191800D03*
X0019300Y0231800D03*
X0019300Y0251800D03*
X0019300Y0291800D03*
X0111800Y0016800D03*
X0121800Y0016800D03*
X0131800Y0016800D03*
X0141800Y0016800D03*
X0164300Y0021800D03*
X0164300Y0031800D03*
X0164300Y0041800D03*
X0164300Y0051800D03*
X0164300Y0071800D03*
D11*
X0116800Y0134300D03*
X0065800Y0134300D03*
D12*
X0041800Y0156800D03*
X0019300Y0331800D03*
X0141800Y0331800D03*
X0164300Y0331800D03*
D13*
X0009152Y0011273D02*
X0009555Y0010300D01*
X0010300Y0009555D01*
X0011273Y0009152D01*
X0011800Y0009100D01*
X0171800Y0009100D01*
X0172327Y0009152D01*
X0173300Y0009555D01*
X0174045Y0010300D01*
X0174448Y0011273D01*
X0174500Y0011800D01*
X0174500Y0344500D01*
X0156800Y0344500D01*
X0156800Y0141800D01*
X0026800Y0141800D01*
X0026800Y0344500D01*
X0009100Y0344500D01*
X0009100Y0011800D01*
X0009152Y0011273D01*
X0009120Y0011596D02*
X0060019Y0011596D01*
X0059689Y0011703D02*
X0060512Y0011435D01*
X0061367Y0011300D01*
X0061600Y0011300D01*
X0061600Y0016600D01*
X0062000Y0016600D01*
X0062000Y0011300D01*
X0062233Y0011300D01*
X0063088Y0011435D01*
X0063911Y0011703D01*
X0064683Y0012096D01*
X0065383Y0012605D01*
X0065995Y0013217D01*
X0066504Y0013917D01*
X0066897Y0014689D01*
X0067010Y0015037D01*
X0067476Y0013911D01*
X0068911Y0012476D01*
X0070786Y0011700D01*
X0072814Y0011700D01*
X0074689Y0012476D01*
X0076124Y0013911D01*
X0076800Y0015544D01*
X0077476Y0013911D01*
X0078911Y0012476D01*
X0080786Y0011700D01*
X0082814Y0011700D01*
X0084689Y0012476D01*
X0086124Y0013911D01*
X0086800Y0015544D01*
X0087476Y0013911D01*
X0088911Y0012476D01*
X0090786Y0011700D01*
X0092814Y0011700D01*
X0094689Y0012476D01*
X0096124Y0013911D01*
X0096800Y0015544D01*
X0097476Y0013911D01*
X0098911Y0012476D01*
X0100786Y0011700D01*
X0102814Y0011700D01*
X0104689Y0012476D01*
X0106124Y0013911D01*
X0106800Y0015544D01*
X0107476Y0013911D01*
X0108911Y0012476D01*
X0110786Y0011700D01*
X0112814Y0011700D01*
X0114689Y0012476D01*
X0116124Y0013911D01*
X0116800Y0015544D01*
X0117476Y0013911D01*
X0118911Y0012476D01*
X0120786Y0011700D01*
X0122814Y0011700D01*
X0124689Y0012476D01*
X0126124Y0013911D01*
X0126800Y0015544D01*
X0127476Y0013911D01*
X0128911Y0012476D01*
X0130786Y0011700D01*
X0132814Y0011700D01*
X0134689Y0012476D01*
X0136124Y0013911D01*
X0136800Y0015544D01*
X0137476Y0013911D01*
X0138911Y0012476D01*
X0140786Y0011700D01*
X0142814Y0011700D01*
X0144689Y0012476D01*
X0146124Y0013911D01*
X0146900Y0015786D01*
X0146900Y0017814D01*
X0146124Y0019689D01*
X0144689Y0021124D01*
X0142814Y0021900D01*
X0140786Y0021900D01*
X0138911Y0021124D01*
X0137476Y0019689D01*
X0136800Y0018056D01*
X0136124Y0019689D01*
X0134689Y0021124D01*
X0132814Y0021900D01*
X0130786Y0021900D01*
X0128911Y0021124D01*
X0127476Y0019689D01*
X0126800Y0018056D01*
X0126124Y0019689D01*
X0124689Y0021124D01*
X0122814Y0021900D01*
X0120786Y0021900D01*
X0118911Y0021124D01*
X0117476Y0019689D01*
X0116800Y0018056D01*
X0116124Y0019689D01*
X0114689Y0021124D01*
X0112814Y0021900D01*
X0110786Y0021900D01*
X0108911Y0021124D01*
X0107476Y0019689D01*
X0106800Y0018056D01*
X0106124Y0019689D01*
X0104689Y0021124D01*
X0102814Y0021900D01*
X0100786Y0021900D01*
X0098911Y0021124D01*
X0097476Y0019689D01*
X0096800Y0018056D01*
X0096124Y0019689D01*
X0094689Y0021124D01*
X0092814Y0021900D01*
X0090786Y0021900D01*
X0088911Y0021124D01*
X0087476Y0019689D01*
X0086800Y0018056D01*
X0086124Y0019689D01*
X0084689Y0021124D01*
X0082814Y0021900D01*
X0080786Y0021900D01*
X0078911Y0021124D01*
X0077476Y0019689D01*
X0076800Y0018056D01*
X0076124Y0019689D01*
X0074689Y0021124D01*
X0072814Y0021900D01*
X0070786Y0021900D01*
X0068911Y0021124D01*
X0067476Y0019689D01*
X0067010Y0018563D01*
X0066897Y0018911D01*
X0066504Y0019683D01*
X0065995Y0020383D01*
X0065383Y0020995D01*
X0064683Y0021504D01*
X0063911Y0021897D01*
X0063088Y0022165D01*
X0062233Y0022300D01*
X0062000Y0022300D01*
X0062000Y0017000D01*
X0061600Y0017000D01*
X0061600Y0022300D01*
X0061367Y0022300D01*
X0060512Y0022165D01*
X0059689Y0021897D01*
X0058917Y0021504D01*
X0058217Y0020995D01*
X0057605Y0020383D01*
X0057096Y0019683D01*
X0056703Y0018911D01*
X0056590Y0018563D01*
X0056124Y0019689D01*
X0054689Y0021124D01*
X0052814Y0021900D01*
X0050786Y0021900D01*
X0048911Y0021124D01*
X0047476Y0019689D01*
X0046800Y0018056D01*
X0046124Y0019689D01*
X0044689Y0021124D01*
X0042814Y0021900D01*
X0040786Y0021900D01*
X0038911Y0021124D01*
X0037476Y0019689D01*
X0036800Y0018056D01*
X0036124Y0019689D01*
X0034689Y0021124D01*
X0032814Y0021900D01*
X0030786Y0021900D01*
X0028911Y0021124D01*
X0027476Y0019689D01*
X0026700Y0017814D01*
X0026700Y0015786D01*
X0027476Y0013911D01*
X0028911Y0012476D01*
X0030786Y0011700D01*
X0032814Y0011700D01*
X0034689Y0012476D01*
X0036124Y0013911D01*
X0036800Y0015544D01*
X0037476Y0013911D01*
X0038911Y0012476D01*
X0040786Y0011700D01*
X0042814Y0011700D01*
X0044689Y0012476D01*
X0046124Y0013911D01*
X0046800Y0015544D01*
X0047476Y0013911D01*
X0048911Y0012476D01*
X0050786Y0011700D01*
X0052814Y0011700D01*
X0054689Y0012476D01*
X0056124Y0013911D01*
X0056590Y0015037D01*
X0056703Y0014689D01*
X0057096Y0013917D01*
X0057605Y0013217D01*
X0058217Y0012605D01*
X0058917Y0012096D01*
X0059689Y0011703D01*
X0061600Y0011596D02*
X0062000Y0011596D01*
X0063581Y0011596D02*
X0174480Y0011596D01*
X0174500Y0013194D02*
X0145407Y0013194D01*
X0146489Y0014793D02*
X0174500Y0014793D01*
X0174500Y0016391D02*
X0165308Y0016391D01*
X0165588Y0016435D02*
X0166411Y0016703D01*
X0167183Y0017096D01*
X0167883Y0017605D01*
X0168495Y0018217D01*
X0169004Y0018917D01*
X0169397Y0019689D01*
X0169665Y0020512D01*
X0169800Y0021367D01*
X0169800Y0021600D01*
X0164500Y0021600D01*
X0164500Y0022000D01*
X0169800Y0022000D01*
X0169800Y0022233D01*
X0169665Y0023088D01*
X0169397Y0023911D01*
X0169004Y0024683D01*
X0168495Y0025383D01*
X0167883Y0025995D01*
X0167183Y0026504D01*
X0166411Y0026897D01*
X0166063Y0027010D01*
X0167189Y0027476D01*
X0168624Y0028911D01*
X0169400Y0030786D01*
X0169400Y0032814D01*
X0168624Y0034689D01*
X0167189Y0036124D01*
X0165556Y0036800D01*
X0167189Y0037476D01*
X0168624Y0038911D01*
X0169400Y0040786D01*
X0169400Y0042814D01*
X0168624Y0044689D01*
X0167189Y0046124D01*
X0165556Y0046800D01*
X0167189Y0047476D01*
X0168624Y0048911D01*
X0169400Y0050786D01*
X0169400Y0052814D01*
X0168624Y0054689D01*
X0167189Y0056124D01*
X0165314Y0056900D01*
X0163286Y0056900D01*
X0161411Y0056124D01*
X0159976Y0054689D01*
X0159200Y0052814D01*
X0159200Y0050786D01*
X0159976Y0048911D01*
X0161411Y0047476D01*
X0163044Y0046800D01*
X0161411Y0046124D01*
X0159976Y0044689D01*
X0159200Y0042814D01*
X0159200Y0040786D01*
X0159976Y0038911D01*
X0161411Y0037476D01*
X0163044Y0036800D01*
X0161411Y0036124D01*
X0159976Y0034689D01*
X0159200Y0032814D01*
X0159200Y0030786D01*
X0159976Y0028911D01*
X0161411Y0027476D01*
X0162537Y0027010D01*
X0162189Y0026897D01*
X0161417Y0026504D01*
X0160717Y0025995D01*
X0160105Y0025383D01*
X0159596Y0024683D01*
X0159203Y0023911D01*
X0158935Y0023088D01*
X0158800Y0022233D01*
X0158800Y0022000D01*
X0164100Y0022000D01*
X0164100Y0021600D01*
X0158800Y0021600D01*
X0158800Y0021367D01*
X0158935Y0020512D01*
X0159203Y0019689D01*
X0159596Y0018917D01*
X0160105Y0018217D01*
X0160717Y0017605D01*
X0161417Y0017096D01*
X0162189Y0016703D01*
X0163012Y0016435D01*
X0163867Y0016300D01*
X0164100Y0016300D01*
X0164100Y0021600D01*
X0164500Y0021600D01*
X0164500Y0016300D01*
X0164733Y0016300D01*
X0165588Y0016435D01*
X0164500Y0016391D02*
X0164100Y0016391D01*
X0163292Y0016391D02*
X0146900Y0016391D01*
X0146827Y0017990D02*
X0160332Y0017990D01*
X0159254Y0019588D02*
X0146165Y0019588D01*
X0144537Y0021187D02*
X0158829Y0021187D01*
X0158887Y0022785D02*
X0026900Y0022785D01*
X0026900Y0022814D02*
X0026124Y0024689D01*
X0024689Y0026124D01*
X0023056Y0026800D01*
X0024689Y0027476D01*
X0026124Y0028911D01*
X0026900Y0030786D01*
X0026900Y0032814D01*
X0026124Y0034689D01*
X0024689Y0036124D01*
X0023056Y0036800D01*
X0024689Y0037476D01*
X0026124Y0038911D01*
X0026900Y0040786D01*
X0026900Y0042814D01*
X0026124Y0044689D01*
X0024689Y0046124D01*
X0023056Y0046800D01*
X0024689Y0047476D01*
X0026124Y0048911D01*
X0026900Y0050786D01*
X0026900Y0052814D01*
X0026124Y0054689D01*
X0024689Y0056124D01*
X0023056Y0056800D01*
X0024689Y0057476D01*
X0026124Y0058911D01*
X0026900Y0060786D01*
X0026900Y0062814D01*
X0026124Y0064689D01*
X0024689Y0066124D01*
X0023056Y0066800D01*
X0024689Y0067476D01*
X0026124Y0068911D01*
X0026900Y0070786D01*
X0026900Y0072814D01*
X0026124Y0074689D01*
X0024689Y0076124D01*
X0022814Y0076900D01*
X0020786Y0076900D01*
X0018911Y0076124D01*
X0017476Y0074689D01*
X0016700Y0072814D01*
X0016700Y0070786D01*
X0017476Y0068911D01*
X0018911Y0067476D01*
X0020544Y0066800D01*
X0018911Y0066124D01*
X0017476Y0064689D01*
X0016700Y0062814D01*
X0016700Y0060786D01*
X0017476Y0058911D01*
X0018911Y0057476D01*
X0020544Y0056800D01*
X0018911Y0056124D01*
X0017476Y0054689D01*
X0016700Y0052814D01*
X0016700Y0050786D01*
X0017476Y0048911D01*
X0018911Y0047476D01*
X0020544Y0046800D01*
X0018911Y0046124D01*
X0017476Y0044689D01*
X0016700Y0042814D01*
X0016700Y0040786D01*
X0017476Y0038911D01*
X0018911Y0037476D01*
X0020544Y0036800D01*
X0018911Y0036124D01*
X0017476Y0034689D01*
X0016700Y0032814D01*
X0016700Y0030786D01*
X0017476Y0028911D01*
X0018911Y0027476D01*
X0020544Y0026800D01*
X0018911Y0026124D01*
X0017476Y0024689D01*
X0016700Y0022814D01*
X0016700Y0020786D01*
X0017476Y0018911D01*
X0018911Y0017476D01*
X0020786Y0016700D01*
X0022814Y0016700D01*
X0024689Y0017476D01*
X0026124Y0018911D01*
X0026900Y0020786D01*
X0026900Y0022814D01*
X0026900Y0021187D02*
X0029063Y0021187D01*
X0027435Y0019588D02*
X0026404Y0019588D01*
X0026773Y0017990D02*
X0025202Y0017990D01*
X0026700Y0016391D02*
X0009100Y0016391D01*
X0009100Y0014793D02*
X0027111Y0014793D01*
X0028193Y0013194D02*
X0009100Y0013194D01*
X0009858Y0009997D02*
X0173742Y0009997D01*
X0174500Y0017990D02*
X0168268Y0017990D01*
X0169346Y0019588D02*
X0174500Y0019588D01*
X0174500Y0021187D02*
X0169771Y0021187D01*
X0169713Y0022785D02*
X0174500Y0022785D01*
X0174500Y0024384D02*
X0169156Y0024384D01*
X0167896Y0025982D02*
X0174500Y0025982D01*
X0174500Y0027581D02*
X0167293Y0027581D01*
X0168735Y0029179D02*
X0174500Y0029179D01*
X0174500Y0030778D02*
X0169397Y0030778D01*
X0169400Y0032376D02*
X0174500Y0032376D01*
X0174500Y0033975D02*
X0168919Y0033975D01*
X0167739Y0035573D02*
X0174500Y0035573D01*
X0174500Y0037172D02*
X0166453Y0037172D01*
X0168483Y0038770D02*
X0174500Y0038770D01*
X0174500Y0040369D02*
X0169227Y0040369D01*
X0169400Y0041967D02*
X0174500Y0041967D01*
X0174500Y0043566D02*
X0169089Y0043566D01*
X0168148Y0045164D02*
X0174500Y0045164D01*
X0174500Y0046763D02*
X0165646Y0046763D01*
X0168074Y0048361D02*
X0174500Y0048361D01*
X0174500Y0049960D02*
X0169058Y0049960D01*
X0169400Y0051558D02*
X0174500Y0051558D01*
X0174500Y0053157D02*
X0169258Y0053157D01*
X0168557Y0054755D02*
X0174500Y0054755D01*
X0174500Y0056354D02*
X0166633Y0056354D01*
X0161967Y0056354D02*
X0024133Y0056354D01*
X0025165Y0057952D02*
X0174500Y0057952D01*
X0174500Y0059551D02*
X0026389Y0059551D01*
X0026900Y0061149D02*
X0063472Y0061149D01*
X0063286Y0061226D02*
X0065161Y0060450D01*
X0067189Y0060450D01*
X0069064Y0061226D01*
X0070499Y0062661D01*
X0071175Y0064294D01*
X0071851Y0062661D01*
X0073286Y0061226D01*
X0075161Y0060450D01*
X0077189Y0060450D01*
X0079064Y0061226D01*
X0080499Y0062661D01*
X0081275Y0064536D01*
X0081275Y0066564D01*
X0080499Y0068439D01*
X0079064Y0069874D01*
X0077189Y0070650D01*
X0075161Y0070650D01*
X0073286Y0069874D01*
X0071851Y0068439D01*
X0071175Y0066806D01*
X0070499Y0068439D01*
X0069064Y0069874D01*
X0067189Y0070650D01*
X0065161Y0070650D01*
X0063286Y0069874D01*
X0061851Y0068439D01*
X0061075Y0066564D01*
X0061075Y0064536D01*
X0061851Y0062661D01*
X0063286Y0061226D01*
X0061815Y0062748D02*
X0026900Y0062748D01*
X0026265Y0064346D02*
X0061153Y0064346D01*
X0061075Y0065945D02*
X0024868Y0065945D01*
X0024756Y0067543D02*
X0061481Y0067543D01*
X0062554Y0069142D02*
X0026219Y0069142D01*
X0026881Y0070740D02*
X0159219Y0070740D01*
X0159200Y0070786D02*
X0159976Y0068911D01*
X0161411Y0067476D01*
X0163286Y0066700D01*
X0165314Y0066700D01*
X0167189Y0067476D01*
X0168624Y0068911D01*
X0169400Y0070786D01*
X0169400Y0072814D01*
X0168624Y0074689D01*
X0167189Y0076124D01*
X0165314Y0076900D01*
X0163286Y0076900D01*
X0161411Y0076124D01*
X0159976Y0074689D01*
X0159200Y0072814D01*
X0159200Y0070786D01*
X0159200Y0072339D02*
X0144357Y0072339D01*
X0144689Y0072476D02*
X0146124Y0073911D01*
X0146900Y0075786D01*
X0146900Y0077814D01*
X0146124Y0079689D01*
X0144689Y0081124D01*
X0142814Y0081900D01*
X0140786Y0081900D01*
X0138911Y0081124D01*
X0137476Y0079689D01*
X0136800Y0078056D01*
X0136124Y0079689D01*
X0134689Y0081124D01*
X0132814Y0081900D01*
X0130786Y0081900D01*
X0128911Y0081124D01*
X0127476Y0079689D01*
X0126800Y0078056D01*
X0126124Y0079689D01*
X0124689Y0081124D01*
X0122814Y0081900D01*
X0120786Y0081900D01*
X0118911Y0081124D01*
X0117476Y0079689D01*
X0116800Y0078056D01*
X0116124Y0079689D01*
X0114689Y0081124D01*
X0112814Y0081900D01*
X0110786Y0081900D01*
X0108911Y0081124D01*
X0107476Y0079689D01*
X0106800Y0078056D01*
X0106124Y0079689D01*
X0104689Y0081124D01*
X0102814Y0081900D01*
X0100786Y0081900D01*
X0098911Y0081124D01*
X0097476Y0079689D01*
X0096800Y0078056D01*
X0096124Y0079689D01*
X0094689Y0081124D01*
X0092814Y0081900D01*
X0090786Y0081900D01*
X0088911Y0081124D01*
X0087476Y0079689D01*
X0086800Y0078056D01*
X0086124Y0079689D01*
X0084689Y0081124D01*
X0082814Y0081900D01*
X0080786Y0081900D01*
X0078911Y0081124D01*
X0077476Y0079689D01*
X0076800Y0078056D01*
X0076124Y0079689D01*
X0074689Y0081124D01*
X0072814Y0081900D01*
X0070786Y0081900D01*
X0068911Y0081124D01*
X0067476Y0079689D01*
X0066800Y0078056D01*
X0066124Y0079689D01*
X0064689Y0081124D01*
X0062814Y0081900D01*
X0060786Y0081900D01*
X0058911Y0081124D01*
X0057476Y0079689D01*
X0056800Y0078056D01*
X0056124Y0079689D01*
X0054689Y0081124D01*
X0052814Y0081900D01*
X0050786Y0081900D01*
X0048911Y0081124D01*
X0047476Y0079689D01*
X0047010Y0078563D01*
X0046897Y0078911D01*
X0046504Y0079683D01*
X0045995Y0080383D01*
X0045383Y0080995D01*
X0044683Y0081504D01*
X0043911Y0081897D01*
X0043088Y0082165D01*
X0042233Y0082300D01*
X0042000Y0082300D01*
X0042000Y0077000D01*
X0041600Y0077000D01*
X0041600Y0082300D01*
X0041367Y0082300D01*
X0040512Y0082165D01*
X0039689Y0081897D01*
X0038917Y0081504D01*
X0038217Y0080995D01*
X0037605Y0080383D01*
X0037096Y0079683D01*
X0036703Y0078911D01*
X0036590Y0078563D01*
X0036124Y0079689D01*
X0034689Y0081124D01*
X0032814Y0081900D01*
X0030786Y0081900D01*
X0028911Y0081124D01*
X0027476Y0079689D01*
X0026700Y0077814D01*
X0026700Y0075786D01*
X0027476Y0073911D01*
X0028911Y0072476D01*
X0030786Y0071700D01*
X0032814Y0071700D01*
X0034689Y0072476D01*
X0036124Y0073911D01*
X0036590Y0075037D01*
X0036703Y0074689D01*
X0037096Y0073917D01*
X0037605Y0073217D01*
X0038217Y0072605D01*
X0038917Y0072096D01*
X0039689Y0071703D01*
X0040512Y0071435D01*
X0041367Y0071300D01*
X0041600Y0071300D01*
X0041600Y0076600D01*
X0042000Y0076600D01*
X0042000Y0071300D01*
X0042233Y0071300D01*
X0043088Y0071435D01*
X0043911Y0071703D01*
X0044683Y0072096D01*
X0045383Y0072605D01*
X0045995Y0073217D01*
X0046504Y0073917D01*
X0046897Y0074689D01*
X0047010Y0075037D01*
X0047476Y0073911D01*
X0048911Y0072476D01*
X0050786Y0071700D01*
X0052814Y0071700D01*
X0054689Y0072476D01*
X0056124Y0073911D01*
X0056800Y0075544D01*
X0057476Y0073911D01*
X0058911Y0072476D01*
X0060786Y0071700D01*
X0062814Y0071700D01*
X0064689Y0072476D01*
X0066124Y0073911D01*
X0066800Y0075544D01*
X0067476Y0073911D01*
X0068911Y0072476D01*
X0070786Y0071700D01*
X0072814Y0071700D01*
X0074689Y0072476D01*
X0076124Y0073911D01*
X0076800Y0075544D01*
X0077476Y0073911D01*
X0078911Y0072476D01*
X0080786Y0071700D01*
X0082814Y0071700D01*
X0084689Y0072476D01*
X0086124Y0073911D01*
X0086800Y0075544D01*
X0087476Y0073911D01*
X0088911Y0072476D01*
X0090786Y0071700D01*
X0092814Y0071700D01*
X0094689Y0072476D01*
X0096124Y0073911D01*
X0096800Y0075544D01*
X0097476Y0073911D01*
X0098911Y0072476D01*
X0100786Y0071700D01*
X0102814Y0071700D01*
X0104689Y0072476D01*
X0106124Y0073911D01*
X0106800Y0075544D01*
X0107476Y0073911D01*
X0108911Y0072476D01*
X0110786Y0071700D01*
X0112814Y0071700D01*
X0114689Y0072476D01*
X0116124Y0073911D01*
X0116800Y0075544D01*
X0117476Y0073911D01*
X0118911Y0072476D01*
X0120786Y0071700D01*
X0122814Y0071700D01*
X0124689Y0072476D01*
X0126124Y0073911D01*
X0126800Y0075544D01*
X0127476Y0073911D01*
X0128911Y0072476D01*
X0130786Y0071700D01*
X0132814Y0071700D01*
X0134689Y0072476D01*
X0136124Y0073911D01*
X0136800Y0075544D01*
X0137476Y0073911D01*
X0138911Y0072476D01*
X0140786Y0071700D01*
X0142814Y0071700D01*
X0144689Y0072476D01*
X0146134Y0073937D02*
X0159665Y0073937D01*
X0160823Y0075536D02*
X0146797Y0075536D01*
X0146900Y0077134D02*
X0174500Y0077134D01*
X0174500Y0075536D02*
X0167776Y0075536D01*
X0168935Y0073937D02*
X0174500Y0073937D01*
X0174500Y0072339D02*
X0169400Y0072339D01*
X0169381Y0070740D02*
X0174500Y0070740D01*
X0174500Y0069142D02*
X0168719Y0069142D01*
X0167256Y0067543D02*
X0174500Y0067543D01*
X0174500Y0065945D02*
X0122525Y0065945D01*
X0122525Y0066564D02*
X0121749Y0068439D01*
X0120314Y0069874D01*
X0118439Y0070650D01*
X0116411Y0070650D01*
X0114536Y0069874D01*
X0113101Y0068439D01*
X0112425Y0066806D01*
X0111749Y0068439D01*
X0110314Y0069874D01*
X0108439Y0070650D01*
X0106411Y0070650D01*
X0104536Y0069874D01*
X0103101Y0068439D01*
X0102325Y0066564D01*
X0102325Y0064536D01*
X0103101Y0062661D01*
X0104536Y0061226D01*
X0106411Y0060450D01*
X0108439Y0060450D01*
X0110314Y0061226D01*
X0111749Y0062661D01*
X0112425Y0064294D01*
X0113101Y0062661D01*
X0114536Y0061226D01*
X0116411Y0060450D01*
X0118439Y0060450D01*
X0120314Y0061226D01*
X0121749Y0062661D01*
X0122525Y0064536D01*
X0122525Y0066564D01*
X0122119Y0067543D02*
X0161344Y0067543D01*
X0159881Y0069142D02*
X0121046Y0069142D01*
X0119243Y0072339D02*
X0114357Y0072339D01*
X0116134Y0073937D02*
X0117465Y0073937D01*
X0116803Y0075536D02*
X0116797Y0075536D01*
X0116520Y0078733D02*
X0117080Y0078733D01*
X0118119Y0080332D02*
X0115481Y0080332D01*
X0108924Y0087511D02*
X0109700Y0089386D01*
X0109700Y0091414D01*
X0108924Y0093289D01*
X0107489Y0094724D01*
X0105614Y0095500D01*
X0103586Y0095500D01*
X0101711Y0094724D01*
X0100276Y0093289D01*
X0099500Y0091414D01*
X0099500Y0089386D01*
X0100276Y0087511D01*
X0101711Y0086076D01*
X0103586Y0085300D01*
X0105614Y0085300D01*
X0107489Y0086076D01*
X0108924Y0087511D01*
X0109260Y0088324D02*
X0174500Y0088324D01*
X0174500Y0086726D02*
X0108138Y0086726D01*
X0109700Y0089923D02*
X0174500Y0089923D01*
X0174500Y0091521D02*
X0109656Y0091521D01*
X0108994Y0093120D02*
X0133268Y0093120D01*
X0133911Y0092476D02*
X0135786Y0091700D01*
X0137814Y0091700D01*
X0139689Y0092476D01*
X0141124Y0093911D01*
X0141800Y0095544D01*
X0142476Y0093911D01*
X0143911Y0092476D01*
X0145786Y0091700D01*
X0147814Y0091700D01*
X0149689Y0092476D01*
X0151124Y0093911D01*
X0151900Y0095786D01*
X0151900Y0097814D01*
X0151124Y0099689D01*
X0149689Y0101124D01*
X0147814Y0101900D01*
X0145786Y0101900D01*
X0143911Y0101124D01*
X0142476Y0099689D01*
X0141800Y0098056D01*
X0141124Y0099689D01*
X0139689Y0101124D01*
X0137814Y0101900D01*
X0135786Y0101900D01*
X0133911Y0101124D01*
X0132476Y0099689D01*
X0131700Y0097814D01*
X0131700Y0095786D01*
X0132476Y0093911D01*
X0133911Y0092476D01*
X0132142Y0094718D02*
X0107494Y0094718D01*
X0101706Y0094718D02*
X0081894Y0094718D01*
X0081889Y0094724D02*
X0080014Y0095500D01*
X0077986Y0095500D01*
X0076111Y0094724D01*
X0074676Y0093289D01*
X0073900Y0091414D01*
X0073900Y0089386D01*
X0074676Y0087511D01*
X0076111Y0086076D01*
X0077986Y0085300D01*
X0080014Y0085300D01*
X0081889Y0086076D01*
X0083324Y0087511D01*
X0084100Y0089386D01*
X0084100Y0091414D01*
X0083324Y0093289D01*
X0081889Y0094724D01*
X0083394Y0093120D02*
X0100206Y0093120D01*
X0099544Y0091521D02*
X0084056Y0091521D01*
X0084100Y0089923D02*
X0099500Y0089923D01*
X0099940Y0088324D02*
X0083660Y0088324D01*
X0082538Y0086726D02*
X0101062Y0086726D01*
X0098119Y0080332D02*
X0095481Y0080332D01*
X0096520Y0078733D02*
X0097080Y0078733D01*
X0096803Y0075536D02*
X0096797Y0075536D01*
X0096134Y0073937D02*
X0097465Y0073937D01*
X0099243Y0072339D02*
X0094357Y0072339D01*
X0089243Y0072339D02*
X0084357Y0072339D01*
X0086134Y0073937D02*
X0087465Y0073937D01*
X0086803Y0075536D02*
X0086797Y0075536D01*
X0086520Y0078733D02*
X0087080Y0078733D01*
X0088119Y0080332D02*
X0085481Y0080332D01*
X0079243Y0072339D02*
X0074357Y0072339D01*
X0076134Y0073937D02*
X0077465Y0073937D01*
X0076803Y0075536D02*
X0076797Y0075536D01*
X0076520Y0078733D02*
X0077080Y0078733D01*
X0078119Y0080332D02*
X0075481Y0080332D01*
X0075462Y0086726D02*
X0009100Y0086726D01*
X0009100Y0088324D02*
X0074340Y0088324D01*
X0073900Y0089923D02*
X0009100Y0089923D01*
X0009100Y0091521D02*
X0027748Y0091521D01*
X0028012Y0091435D02*
X0028867Y0091300D01*
X0029100Y0091300D01*
X0029100Y0096600D01*
X0023800Y0096600D01*
X0023800Y0096367D01*
X0023935Y0095512D01*
X0024203Y0094689D01*
X0024596Y0093917D01*
X0025105Y0093217D01*
X0025717Y0092605D01*
X0026417Y0092096D01*
X0027189Y0091703D01*
X0028012Y0091435D01*
X0029100Y0091521D02*
X0029500Y0091521D01*
X0029500Y0091300D02*
X0029733Y0091300D01*
X0030588Y0091435D01*
X0031411Y0091703D01*
X0032183Y0092096D01*
X0032883Y0092605D01*
X0033495Y0093217D01*
X0034004Y0093917D01*
X0034397Y0094689D01*
X0034510Y0095037D01*
X0034976Y0093911D01*
X0036411Y0092476D01*
X0038286Y0091700D01*
X0040314Y0091700D01*
X0042189Y0092476D01*
X0043624Y0093911D01*
X0044300Y0095544D01*
X0044976Y0093911D01*
X0046411Y0092476D01*
X0048286Y0091700D01*
X0050314Y0091700D01*
X0052189Y0092476D01*
X0053624Y0093911D01*
X0054400Y0095786D01*
X0054400Y0097814D01*
X0053624Y0099689D01*
X0052189Y0101124D01*
X0050314Y0101900D01*
X0048286Y0101900D01*
X0046411Y0101124D01*
X0044976Y0099689D01*
X0044300Y0098056D01*
X0043624Y0099689D01*
X0042189Y0101124D01*
X0040314Y0101900D01*
X0038286Y0101900D01*
X0036411Y0101124D01*
X0034976Y0099689D01*
X0034510Y0098563D01*
X0034397Y0098911D01*
X0034004Y0099683D01*
X0033495Y0100383D01*
X0032883Y0100995D01*
X0032183Y0101504D01*
X0031411Y0101897D01*
X0030588Y0102165D01*
X0029733Y0102300D01*
X0029500Y0102300D01*
X0029500Y0097000D01*
X0029100Y0097000D01*
X0029100Y0102300D01*
X0028867Y0102300D01*
X0028012Y0102165D01*
X0027189Y0101897D01*
X0026417Y0101504D01*
X0025717Y0100995D01*
X0025105Y0100383D01*
X0024596Y0099683D01*
X0024203Y0098911D01*
X0023935Y0098088D01*
X0023800Y0097233D01*
X0023800Y0097000D01*
X0029100Y0097000D01*
X0029100Y0096600D01*
X0029500Y0096600D01*
X0029500Y0091300D01*
X0030852Y0091521D02*
X0073944Y0091521D01*
X0074606Y0093120D02*
X0052832Y0093120D01*
X0053958Y0094718D02*
X0076106Y0094718D01*
X0077986Y0103100D02*
X0076111Y0103876D01*
X0074676Y0105311D01*
X0073900Y0107186D01*
X0073900Y0109214D01*
X0074676Y0111089D01*
X0076111Y0112524D01*
X0077986Y0113300D01*
X0080014Y0113300D01*
X0081889Y0112524D01*
X0083324Y0111089D01*
X0084100Y0109214D01*
X0084100Y0107186D01*
X0083324Y0105311D01*
X0081889Y0103876D01*
X0080014Y0103100D01*
X0077986Y0103100D01*
X0075678Y0104309D02*
X0009100Y0104309D01*
X0009100Y0102711D02*
X0104100Y0102711D01*
X0104167Y0102700D02*
X0104400Y0102700D01*
X0104400Y0108000D01*
X0104800Y0108000D01*
X0104800Y0108400D01*
X0110100Y0108400D01*
X0110100Y0108633D01*
X0109965Y0109488D01*
X0109697Y0110311D01*
X0109304Y0111083D01*
X0108795Y0111783D01*
X0108183Y0112395D01*
X0107483Y0112904D01*
X0106711Y0113297D01*
X0105888Y0113565D01*
X0105033Y0113700D01*
X0104800Y0113700D01*
X0104800Y0108400D01*
X0104400Y0108400D01*
X0104400Y0113700D01*
X0104167Y0113700D01*
X0103312Y0113565D01*
X0102489Y0113297D01*
X0101717Y0112904D01*
X0101017Y0112395D01*
X0100405Y0111783D01*
X0099896Y0111083D01*
X0099503Y0110311D01*
X0099235Y0109488D01*
X0099100Y0108633D01*
X0099100Y0108400D01*
X0104400Y0108400D01*
X0104400Y0108000D01*
X0099100Y0108000D01*
X0099100Y0107767D01*
X0099235Y0106912D01*
X0099503Y0106089D01*
X0099896Y0105317D01*
X0100405Y0104617D01*
X0101017Y0104005D01*
X0101717Y0103496D01*
X0102489Y0103103D01*
X0103312Y0102835D01*
X0104167Y0102700D01*
X0104400Y0102711D02*
X0104800Y0102711D01*
X0104800Y0102700D02*
X0105033Y0102700D01*
X0105888Y0102835D01*
X0106711Y0103103D01*
X0107483Y0103496D01*
X0108183Y0104005D01*
X0108795Y0104617D01*
X0109304Y0105317D01*
X0109697Y0106089D01*
X0109965Y0106912D01*
X0110100Y0107767D01*
X0110100Y0108000D01*
X0104800Y0108000D01*
X0104800Y0102700D01*
X0105100Y0102711D02*
X0174500Y0102711D01*
X0174500Y0104309D02*
X0108487Y0104309D01*
X0109605Y0105908D02*
X0174500Y0105908D01*
X0174500Y0107506D02*
X0167219Y0107506D01*
X0167189Y0107476D02*
X0168624Y0108911D01*
X0169400Y0110786D01*
X0169400Y0112814D01*
X0168624Y0114689D01*
X0167189Y0116124D01*
X0165314Y0116900D01*
X0163286Y0116900D01*
X0161411Y0116124D01*
X0159976Y0114689D01*
X0159200Y0112814D01*
X0159200Y0110786D01*
X0159976Y0108911D01*
X0161411Y0107476D01*
X0163286Y0106700D01*
X0165314Y0106700D01*
X0167189Y0107476D01*
X0168704Y0109105D02*
X0174500Y0109105D01*
X0174500Y0110703D02*
X0169366Y0110703D01*
X0169400Y0112302D02*
X0174500Y0112302D01*
X0174500Y0113900D02*
X0168950Y0113900D01*
X0167814Y0115499D02*
X0174500Y0115499D01*
X0174500Y0117097D02*
X0157300Y0117097D01*
X0157300Y0117233D02*
X0157165Y0118088D01*
X0156897Y0118911D01*
X0156504Y0119683D01*
X0155995Y0120383D01*
X0155383Y0120995D01*
X0154683Y0121504D01*
X0153911Y0121897D01*
X0153088Y0122165D01*
X0152233Y0122300D01*
X0151886Y0122300D01*
X0151886Y0116886D01*
X0157300Y0116886D01*
X0157300Y0117233D01*
X0157300Y0116714D02*
X0151886Y0116714D01*
X0151886Y0116886D01*
X0151714Y0116886D01*
X0151714Y0122300D01*
X0151367Y0122300D01*
X0150512Y0122165D01*
X0149689Y0121897D01*
X0148917Y0121504D01*
X0148217Y0120995D01*
X0147605Y0120383D01*
X0147096Y0119683D01*
X0146703Y0118911D01*
X0146435Y0118088D01*
X0146300Y0117233D01*
X0146300Y0116886D01*
X0151714Y0116886D01*
X0151714Y0116714D01*
X0151886Y0116714D01*
X0151886Y0111300D01*
X0152233Y0111300D01*
X0153088Y0111435D01*
X0153911Y0111703D01*
X0154683Y0112096D01*
X0155383Y0112605D01*
X0155995Y0113217D01*
X0156504Y0113917D01*
X0156897Y0114689D01*
X0157165Y0115512D01*
X0157300Y0116367D01*
X0157300Y0116714D01*
X0157160Y0115499D02*
X0160786Y0115499D01*
X0159650Y0113900D02*
X0156492Y0113900D01*
X0154966Y0112302D02*
X0159200Y0112302D01*
X0159234Y0110703D02*
X0109497Y0110703D01*
X0109333Y0112302D02*
X0108276Y0112302D01*
X0108911Y0112476D02*
X0107476Y0113911D01*
X0106700Y0115786D01*
X0106700Y0117814D01*
X0107476Y0119689D01*
X0108911Y0121124D01*
X0110786Y0121900D01*
X0112814Y0121900D01*
X0114689Y0121124D01*
X0116124Y0119689D01*
X0116900Y0117814D01*
X0116900Y0115786D01*
X0116124Y0113911D01*
X0114689Y0112476D01*
X0112814Y0111700D01*
X0110786Y0111700D01*
X0108911Y0112476D01*
X0107487Y0113900D02*
X0076113Y0113900D01*
X0076124Y0113911D02*
X0076900Y0115786D01*
X0076900Y0117814D01*
X0076124Y0119689D01*
X0074689Y0121124D01*
X0072814Y0121900D01*
X0070786Y0121900D01*
X0068911Y0121124D01*
X0067476Y0119689D01*
X0066700Y0117814D01*
X0066700Y0115786D01*
X0067476Y0113911D01*
X0068911Y0112476D01*
X0070786Y0111700D01*
X0072814Y0111700D01*
X0074689Y0112476D01*
X0076124Y0113911D01*
X0075889Y0112302D02*
X0074267Y0112302D01*
X0074517Y0110703D02*
X0009100Y0110703D01*
X0009100Y0109105D02*
X0073900Y0109105D01*
X0073900Y0107506D02*
X0009100Y0107506D01*
X0009100Y0105908D02*
X0074429Y0105908D01*
X0069333Y0112302D02*
X0034267Y0112302D01*
X0034689Y0112476D02*
X0036124Y0113911D01*
X0036900Y0115786D01*
X0036900Y0117814D01*
X0036124Y0119689D01*
X0034689Y0121124D01*
X0032814Y0121900D01*
X0030786Y0121900D01*
X0028911Y0121124D01*
X0027476Y0119689D01*
X0026700Y0117814D01*
X0026700Y0115786D01*
X0027476Y0113911D01*
X0028911Y0112476D01*
X0030786Y0111700D01*
X0032814Y0111700D01*
X0034689Y0112476D01*
X0036113Y0113900D02*
X0067487Y0113900D01*
X0066819Y0115499D02*
X0036781Y0115499D01*
X0036900Y0117097D02*
X0066700Y0117097D01*
X0067065Y0118696D02*
X0036535Y0118696D01*
X0035518Y0120294D02*
X0068082Y0120294D01*
X0070768Y0121893D02*
X0032832Y0121893D01*
X0030768Y0121893D02*
X0009100Y0121893D01*
X0009100Y0123491D02*
X0174500Y0123491D01*
X0174500Y0121893D02*
X0153920Y0121893D01*
X0151886Y0121893D02*
X0151714Y0121893D01*
X0151714Y0120294D02*
X0151886Y0120294D01*
X0151886Y0118696D02*
X0151714Y0118696D01*
X0151714Y0117097D02*
X0151886Y0117097D01*
X0151714Y0116714D02*
X0146300Y0116714D01*
X0146300Y0116367D01*
X0146435Y0115512D01*
X0146703Y0114689D01*
X0147096Y0113917D01*
X0147605Y0113217D01*
X0148217Y0112605D01*
X0148917Y0112096D01*
X0149689Y0111703D01*
X0150512Y0111435D01*
X0151367Y0111300D01*
X0151714Y0111300D01*
X0151714Y0116714D01*
X0151714Y0115499D02*
X0151886Y0115499D01*
X0151886Y0113900D02*
X0151714Y0113900D01*
X0151714Y0112302D02*
X0151886Y0112302D01*
X0148634Y0112302D02*
X0114267Y0112302D01*
X0116113Y0113900D02*
X0147108Y0113900D01*
X0146440Y0115499D02*
X0116781Y0115499D01*
X0116900Y0117097D02*
X0146300Y0117097D01*
X0146633Y0118696D02*
X0116535Y0118696D01*
X0115518Y0120294D02*
X0147540Y0120294D01*
X0149680Y0121893D02*
X0112832Y0121893D01*
X0110768Y0121893D02*
X0072832Y0121893D01*
X0075518Y0120294D02*
X0108082Y0120294D01*
X0107065Y0118696D02*
X0076535Y0118696D01*
X0076900Y0117097D02*
X0106700Y0117097D01*
X0106819Y0115499D02*
X0076781Y0115499D01*
X0082111Y0112302D02*
X0100924Y0112302D01*
X0099703Y0110703D02*
X0083483Y0110703D01*
X0084100Y0109105D02*
X0099175Y0109105D01*
X0099141Y0107506D02*
X0084100Y0107506D01*
X0083571Y0105908D02*
X0099595Y0105908D01*
X0100713Y0104309D02*
X0082322Y0104309D01*
X0069091Y0127626D02*
X0069934Y0128113D01*
X0070706Y0128706D01*
X0071394Y0129394D01*
X0071987Y0130166D01*
X0072474Y0131009D01*
X0072846Y0131908D01*
X0073098Y0132848D01*
X0073184Y0133500D01*
X0066600Y0133500D01*
X0066600Y0135100D01*
X0065000Y0135100D01*
X0065000Y0141684D01*
X0064348Y0141598D01*
X0063408Y0141346D01*
X0062509Y0140974D01*
X0061666Y0140487D01*
X0060894Y0139894D01*
X0060206Y0139206D01*
X0059613Y0138434D01*
X0059126Y0137591D01*
X0058754Y0136692D01*
X0058502Y0135752D01*
X0058416Y0135100D01*
X0065000Y0135100D01*
X0065000Y0133500D01*
X0058416Y0133500D01*
X0058502Y0132848D01*
X0058754Y0131908D01*
X0059126Y0131009D01*
X0059613Y0130166D01*
X0060206Y0129394D01*
X0060894Y0128706D01*
X0061666Y0128113D01*
X0062509Y0127626D01*
X0063408Y0127254D01*
X0064348Y0127002D01*
X0065000Y0126916D01*
X0065000Y0133500D01*
X0066600Y0133500D01*
X0066600Y0126916D01*
X0067252Y0127002D01*
X0068192Y0127254D01*
X0069091Y0127626D01*
X0070160Y0128287D02*
X0112960Y0128287D01*
X0112821Y0128344D02*
X0115403Y0127275D01*
X0118197Y0127275D01*
X0120779Y0128344D01*
X0122755Y0130321D01*
X0123825Y0132903D01*
X0123825Y0135697D01*
X0122755Y0138279D01*
X0120779Y0140255D01*
X0118197Y0141325D01*
X0115403Y0141325D01*
X0112821Y0140255D01*
X0110844Y0138279D01*
X0109775Y0135697D01*
X0109775Y0132903D01*
X0110844Y0130321D01*
X0112821Y0128344D01*
X0111280Y0129885D02*
X0071772Y0129885D01*
X0072670Y0131484D02*
X0110363Y0131484D01*
X0109775Y0133082D02*
X0073129Y0133082D01*
X0073184Y0135100D02*
X0073098Y0135752D01*
X0072846Y0136692D01*
X0072474Y0137591D01*
X0071987Y0138434D01*
X0071394Y0139206D01*
X0070706Y0139894D01*
X0069934Y0140487D01*
X0069091Y0140974D01*
X0068192Y0141346D01*
X0067252Y0141598D01*
X0066600Y0141684D01*
X0066600Y0135100D01*
X0073184Y0135100D01*
X0072957Y0136279D02*
X0110016Y0136279D01*
X0109775Y0134681D02*
X0066600Y0134681D01*
X0066600Y0136279D02*
X0065000Y0136279D01*
X0065000Y0134681D02*
X0023627Y0134681D01*
X0023624Y0134689D02*
X0022189Y0136124D01*
X0020314Y0136900D01*
X0018286Y0136900D01*
X0016411Y0136124D01*
X0014976Y0134689D01*
X0014200Y0132814D01*
X0014200Y0130786D01*
X0014976Y0128911D01*
X0016411Y0127476D01*
X0018286Y0126700D01*
X0020314Y0126700D01*
X0022189Y0127476D01*
X0023624Y0128911D01*
X0024400Y0130786D01*
X0024400Y0132814D01*
X0023624Y0134689D01*
X0024289Y0133082D02*
X0058471Y0133082D01*
X0058930Y0131484D02*
X0024400Y0131484D01*
X0024027Y0129885D02*
X0059828Y0129885D01*
X0061440Y0128287D02*
X0022999Y0128287D01*
X0021813Y0136279D02*
X0058643Y0136279D01*
X0059292Y0137878D02*
X0009100Y0137878D01*
X0009100Y0139476D02*
X0060476Y0139476D01*
X0062754Y0141075D02*
X0009100Y0141075D01*
X0009100Y0142673D02*
X0026800Y0142673D01*
X0026800Y0144272D02*
X0009100Y0144272D01*
X0009100Y0145870D02*
X0026800Y0145870D01*
X0026800Y0147469D02*
X0009100Y0147469D01*
X0009100Y0149068D02*
X0026800Y0149068D01*
X0026800Y0150666D02*
X0009100Y0150666D01*
X0009100Y0152265D02*
X0026800Y0152265D01*
X0026800Y0153863D02*
X0009100Y0153863D01*
X0009100Y0155462D02*
X0026800Y0155462D01*
X0026800Y0157060D02*
X0009100Y0157060D01*
X0009100Y0158659D02*
X0026800Y0158659D01*
X0026800Y0160257D02*
X0009100Y0160257D01*
X0009100Y0161856D02*
X0026800Y0161856D01*
X0026800Y0163454D02*
X0009100Y0163454D01*
X0009100Y0165053D02*
X0026800Y0165053D01*
X0026800Y0166651D02*
X0009100Y0166651D01*
X0009100Y0168250D02*
X0015638Y0168250D01*
X0014976Y0168911D02*
X0016411Y0167476D01*
X0018286Y0166700D01*
X0020314Y0166700D01*
X0022189Y0167476D01*
X0023624Y0168911D01*
X0024400Y0170786D01*
X0024400Y0172814D01*
X0023624Y0174689D01*
X0022189Y0176124D01*
X0020314Y0176900D01*
X0018286Y0176900D01*
X0016411Y0176124D01*
X0014976Y0174689D01*
X0014200Y0172814D01*
X0014200Y0170786D01*
X0014976Y0168911D01*
X0014588Y0169848D02*
X0009100Y0169848D01*
X0009100Y0171447D02*
X0014200Y0171447D01*
X0014296Y0173045D02*
X0009100Y0173045D01*
X0009100Y0174644D02*
X0014958Y0174644D01*
X0016698Y0176242D02*
X0009100Y0176242D01*
X0009100Y0177841D02*
X0026800Y0177841D01*
X0026800Y0179439D02*
X0009100Y0179439D01*
X0009100Y0181038D02*
X0026800Y0181038D01*
X0026800Y0182636D02*
X0009100Y0182636D01*
X0009100Y0184235D02*
X0026800Y0184235D01*
X0026800Y0185833D02*
X0009100Y0185833D01*
X0009100Y0187432D02*
X0016519Y0187432D01*
X0016411Y0187476D02*
X0018286Y0186700D01*
X0020314Y0186700D01*
X0022189Y0187476D01*
X0023624Y0188911D01*
X0024400Y0190786D01*
X0024400Y0192814D01*
X0023624Y0194689D01*
X0022189Y0196124D01*
X0020314Y0196900D01*
X0018286Y0196900D01*
X0016411Y0196124D01*
X0014976Y0194689D01*
X0014200Y0192814D01*
X0014200Y0190786D01*
X0014976Y0188911D01*
X0016411Y0187476D01*
X0014927Y0189030D02*
X0009100Y0189030D01*
X0009100Y0190629D02*
X0014265Y0190629D01*
X0014200Y0192227D02*
X0009100Y0192227D01*
X0009100Y0193826D02*
X0014619Y0193826D01*
X0015712Y0195424D02*
X0009100Y0195424D01*
X0009100Y0197023D02*
X0026800Y0197023D01*
X0026800Y0198621D02*
X0009100Y0198621D01*
X0009100Y0200220D02*
X0026800Y0200220D01*
X0026800Y0201818D02*
X0009100Y0201818D01*
X0009100Y0203417D02*
X0026800Y0203417D01*
X0026800Y0205015D02*
X0009100Y0205015D01*
X0009100Y0206614D02*
X0026800Y0206614D01*
X0026800Y0208212D02*
X0009100Y0208212D01*
X0009100Y0209811D02*
X0026800Y0209811D01*
X0026800Y0211409D02*
X0009100Y0211409D01*
X0009100Y0213008D02*
X0026800Y0213008D01*
X0026800Y0214606D02*
X0009100Y0214606D01*
X0009100Y0216205D02*
X0026800Y0216205D01*
X0026800Y0217803D02*
X0009100Y0217803D01*
X0009100Y0219402D02*
X0026800Y0219402D01*
X0026800Y0221001D02*
X0009100Y0221001D01*
X0009100Y0222599D02*
X0026800Y0222599D01*
X0026800Y0224198D02*
X0009100Y0224198D01*
X0009100Y0225796D02*
X0026800Y0225796D01*
X0026800Y0227395D02*
X0021991Y0227395D01*
X0022189Y0227476D02*
X0020314Y0226700D01*
X0018286Y0226700D01*
X0016411Y0227476D01*
X0014976Y0228911D01*
X0014200Y0230786D01*
X0014200Y0232814D01*
X0014976Y0234689D01*
X0016411Y0236124D01*
X0018286Y0236900D01*
X0020314Y0236900D01*
X0022189Y0236124D01*
X0023624Y0234689D01*
X0024400Y0232814D01*
X0024400Y0230786D01*
X0023624Y0228911D01*
X0022189Y0227476D01*
X0023658Y0228993D02*
X0026800Y0228993D01*
X0026800Y0230592D02*
X0024320Y0230592D01*
X0024400Y0232190D02*
X0026800Y0232190D01*
X0026800Y0233789D02*
X0023996Y0233789D01*
X0022925Y0235387D02*
X0026800Y0235387D01*
X0026800Y0236986D02*
X0009100Y0236986D01*
X0009100Y0238584D02*
X0026800Y0238584D01*
X0026800Y0240183D02*
X0009100Y0240183D01*
X0009100Y0241781D02*
X0026800Y0241781D01*
X0026800Y0243380D02*
X0009100Y0243380D01*
X0009100Y0244978D02*
X0026800Y0244978D01*
X0026800Y0246577D02*
X0009100Y0246577D01*
X0009100Y0248175D02*
X0015712Y0248175D01*
X0016411Y0247476D02*
X0014976Y0248911D01*
X0014200Y0250786D01*
X0014200Y0252814D01*
X0014976Y0254689D01*
X0016411Y0256124D01*
X0018286Y0256900D01*
X0020314Y0256900D01*
X0022189Y0256124D01*
X0023624Y0254689D01*
X0024400Y0252814D01*
X0024400Y0250786D01*
X0023624Y0248911D01*
X0022189Y0247476D01*
X0020314Y0246700D01*
X0018286Y0246700D01*
X0016411Y0247476D01*
X0014619Y0249774D02*
X0009100Y0249774D01*
X0009100Y0251372D02*
X0014200Y0251372D01*
X0014265Y0252971D02*
X0009100Y0252971D01*
X0009100Y0254569D02*
X0014927Y0254569D01*
X0016518Y0256168D02*
X0009100Y0256168D01*
X0009100Y0257766D02*
X0026800Y0257766D01*
X0026800Y0256168D02*
X0022082Y0256168D01*
X0023673Y0254569D02*
X0026800Y0254569D01*
X0026800Y0252971D02*
X0024335Y0252971D01*
X0024400Y0251372D02*
X0026800Y0251372D01*
X0026800Y0249774D02*
X0023981Y0249774D01*
X0022888Y0248175D02*
X0026800Y0248175D01*
X0031800Y0248175D02*
X0151800Y0248175D01*
X0151800Y0246577D02*
X0031800Y0246577D01*
X0031800Y0244978D02*
X0151800Y0244978D01*
X0151800Y0243380D02*
X0031800Y0243380D01*
X0031800Y0241781D02*
X0151800Y0241781D01*
X0151800Y0240183D02*
X0031800Y0240183D01*
X0031800Y0238584D02*
X0151800Y0238584D01*
X0151800Y0236986D02*
X0031800Y0236986D01*
X0031800Y0235387D02*
X0151800Y0235387D01*
X0151800Y0233789D02*
X0031800Y0233789D01*
X0031800Y0232190D02*
X0151800Y0232190D01*
X0151800Y0230592D02*
X0031800Y0230592D01*
X0031800Y0228993D02*
X0151800Y0228993D01*
X0151800Y0227395D02*
X0031800Y0227395D01*
X0031800Y0225796D02*
X0151800Y0225796D01*
X0151800Y0224198D02*
X0031800Y0224198D01*
X0031800Y0222599D02*
X0151800Y0222599D01*
X0151800Y0221001D02*
X0031800Y0221001D01*
X0031800Y0219402D02*
X0151800Y0219402D01*
X0151800Y0217803D02*
X0031800Y0217803D01*
X0031800Y0216205D02*
X0151800Y0216205D01*
X0151800Y0214606D02*
X0031800Y0214606D01*
X0031800Y0213008D02*
X0151800Y0213008D01*
X0151800Y0211409D02*
X0031800Y0211409D01*
X0031800Y0209811D02*
X0151800Y0209811D01*
X0151800Y0208212D02*
X0031800Y0208212D01*
X0031800Y0206614D02*
X0151800Y0206614D01*
X0151800Y0205015D02*
X0031800Y0205015D01*
X0031800Y0203417D02*
X0151800Y0203417D01*
X0151800Y0201818D02*
X0031800Y0201818D01*
X0031800Y0200220D02*
X0151800Y0200220D01*
X0151800Y0198621D02*
X0031800Y0198621D01*
X0031800Y0197023D02*
X0151800Y0197023D01*
X0151800Y0195424D02*
X0031800Y0195424D01*
X0031800Y0193826D02*
X0151800Y0193826D01*
X0151800Y0192227D02*
X0031800Y0192227D01*
X0031800Y0190629D02*
X0151800Y0190629D01*
X0151800Y0189030D02*
X0031800Y0189030D01*
X0031800Y0187432D02*
X0151800Y0187432D01*
X0151800Y0185833D02*
X0031800Y0185833D01*
X0031800Y0184235D02*
X0151800Y0184235D01*
X0151800Y0182636D02*
X0031800Y0182636D01*
X0031800Y0181038D02*
X0151800Y0181038D01*
X0151800Y0179439D02*
X0031800Y0179439D01*
X0031800Y0177841D02*
X0151800Y0177841D01*
X0151800Y0176242D02*
X0031800Y0176242D01*
X0031800Y0174644D02*
X0151800Y0174644D01*
X0151800Y0173045D02*
X0031800Y0173045D01*
X0031800Y0171447D02*
X0151800Y0171447D01*
X0151800Y0169848D02*
X0031800Y0169848D01*
X0031800Y0168250D02*
X0151800Y0168250D01*
X0151800Y0166651D02*
X0031800Y0166651D01*
X0031800Y0165053D02*
X0151800Y0165053D01*
X0151800Y0163454D02*
X0031800Y0163454D01*
X0031800Y0161856D02*
X0151800Y0161856D01*
X0151800Y0160257D02*
X0031800Y0160257D01*
X0031800Y0158659D02*
X0151800Y0158659D01*
X0151800Y0157060D02*
X0031800Y0157060D01*
X0031800Y0155462D02*
X0151800Y0155462D01*
X0151800Y0153863D02*
X0031800Y0153863D01*
X0031800Y0152265D02*
X0151800Y0152265D01*
X0151800Y0150666D02*
X0031800Y0150666D01*
X0031800Y0149068D02*
X0151800Y0149068D01*
X0151800Y0147469D02*
X0031800Y0147469D01*
X0031800Y0146800D02*
X0151800Y0146800D01*
X0151800Y0344500D01*
X0031800Y0344500D01*
X0031800Y0146800D01*
X0026800Y0168250D02*
X0022962Y0168250D01*
X0024012Y0169848D02*
X0026800Y0169848D01*
X0026800Y0171447D02*
X0024400Y0171447D01*
X0024304Y0173045D02*
X0026800Y0173045D01*
X0026800Y0174644D02*
X0023642Y0174644D01*
X0021902Y0176242D02*
X0026800Y0176242D01*
X0026800Y0187432D02*
X0022081Y0187432D01*
X0023673Y0189030D02*
X0026800Y0189030D01*
X0026800Y0190629D02*
X0024335Y0190629D01*
X0024400Y0192227D02*
X0026800Y0192227D01*
X0026800Y0193826D02*
X0023981Y0193826D01*
X0022888Y0195424D02*
X0026800Y0195424D01*
X0016609Y0227395D02*
X0009100Y0227395D01*
X0009100Y0228993D02*
X0014942Y0228993D01*
X0014280Y0230592D02*
X0009100Y0230592D01*
X0009100Y0232190D02*
X0014200Y0232190D01*
X0014604Y0233789D02*
X0009100Y0233789D01*
X0009100Y0235387D02*
X0015675Y0235387D01*
X0009100Y0259365D02*
X0026800Y0259365D01*
X0026800Y0260963D02*
X0009100Y0260963D01*
X0009100Y0262562D02*
X0026800Y0262562D01*
X0026800Y0264160D02*
X0009100Y0264160D01*
X0009100Y0265759D02*
X0026800Y0265759D01*
X0026800Y0267357D02*
X0009100Y0267357D01*
X0009100Y0268956D02*
X0026800Y0268956D01*
X0026800Y0270554D02*
X0009100Y0270554D01*
X0009100Y0272153D02*
X0026800Y0272153D01*
X0026800Y0273751D02*
X0009100Y0273751D01*
X0009100Y0275350D02*
X0026800Y0275350D01*
X0026800Y0276948D02*
X0009100Y0276948D01*
X0009100Y0278547D02*
X0026800Y0278547D01*
X0026800Y0280145D02*
X0009100Y0280145D01*
X0009100Y0281744D02*
X0026800Y0281744D01*
X0026800Y0283342D02*
X0009100Y0283342D01*
X0009100Y0284941D02*
X0026800Y0284941D01*
X0026800Y0286539D02*
X0009100Y0286539D01*
X0009100Y0288138D02*
X0015750Y0288138D01*
X0016411Y0287476D02*
X0018286Y0286700D01*
X0020314Y0286700D01*
X0022189Y0287476D01*
X0023624Y0288911D01*
X0024400Y0290786D01*
X0024400Y0292814D01*
X0023624Y0294689D01*
X0022189Y0296124D01*
X0020314Y0296900D01*
X0018286Y0296900D01*
X0016411Y0296124D01*
X0014976Y0294689D01*
X0014200Y0292814D01*
X0014200Y0290786D01*
X0014976Y0288911D01*
X0016411Y0287476D01*
X0014635Y0289737D02*
X0009100Y0289737D01*
X0009100Y0291335D02*
X0014200Y0291335D01*
X0014249Y0292934D02*
X0009100Y0292934D01*
X0009100Y0294532D02*
X0014911Y0294532D01*
X0016428Y0296131D02*
X0009100Y0296131D01*
X0009100Y0297729D02*
X0026800Y0297729D01*
X0026800Y0296131D02*
X0022172Y0296131D01*
X0023689Y0294532D02*
X0026800Y0294532D01*
X0026800Y0292934D02*
X0024351Y0292934D01*
X0024400Y0291335D02*
X0026800Y0291335D01*
X0026800Y0289737D02*
X0023965Y0289737D01*
X0022850Y0288138D02*
X0026800Y0288138D01*
X0031800Y0288138D02*
X0151800Y0288138D01*
X0151800Y0289737D02*
X0031800Y0289737D01*
X0031800Y0291335D02*
X0151800Y0291335D01*
X0151800Y0292934D02*
X0031800Y0292934D01*
X0031800Y0294532D02*
X0151800Y0294532D01*
X0151800Y0296131D02*
X0031800Y0296131D01*
X0031800Y0297729D02*
X0151800Y0297729D01*
X0151800Y0299328D02*
X0031800Y0299328D01*
X0031800Y0300926D02*
X0151800Y0300926D01*
X0151800Y0302525D02*
X0031800Y0302525D01*
X0031800Y0304123D02*
X0151800Y0304123D01*
X0151800Y0305722D02*
X0031800Y0305722D01*
X0031800Y0307320D02*
X0151800Y0307320D01*
X0151800Y0308919D02*
X0031800Y0308919D01*
X0031800Y0310517D02*
X0151800Y0310517D01*
X0151800Y0312116D02*
X0031800Y0312116D01*
X0031800Y0313714D02*
X0151800Y0313714D01*
X0151800Y0315313D02*
X0031800Y0315313D01*
X0031800Y0316911D02*
X0151800Y0316911D01*
X0151800Y0318510D02*
X0031800Y0318510D01*
X0031800Y0320108D02*
X0151800Y0320108D01*
X0151800Y0321707D02*
X0031800Y0321707D01*
X0031800Y0323305D02*
X0151800Y0323305D01*
X0151800Y0324904D02*
X0031800Y0324904D01*
X0031800Y0326502D02*
X0151800Y0326502D01*
X0151800Y0328101D02*
X0031800Y0328101D01*
X0031800Y0329699D02*
X0151800Y0329699D01*
X0151800Y0331298D02*
X0031800Y0331298D01*
X0031800Y0332896D02*
X0151800Y0332896D01*
X0151800Y0334495D02*
X0031800Y0334495D01*
X0031800Y0336093D02*
X0151800Y0336093D01*
X0151800Y0337692D02*
X0031800Y0337692D01*
X0031800Y0339290D02*
X0151800Y0339290D01*
X0151800Y0340889D02*
X0031800Y0340889D01*
X0031800Y0342487D02*
X0151800Y0342487D01*
X0151800Y0344086D02*
X0031800Y0344086D01*
X0026800Y0344086D02*
X0009100Y0344086D01*
X0009100Y0342487D02*
X0026800Y0342487D01*
X0026800Y0340889D02*
X0009100Y0340889D01*
X0009100Y0339290D02*
X0026800Y0339290D01*
X0026800Y0337692D02*
X0009100Y0337692D01*
X0009100Y0336093D02*
X0016861Y0336093D01*
X0016524Y0335954D02*
X0015146Y0334576D01*
X0014400Y0332775D01*
X0014400Y0330825D01*
X0015146Y0329024D01*
X0016524Y0327646D01*
X0018325Y0326900D01*
X0020275Y0326900D01*
X0022076Y0327646D01*
X0023454Y0329024D01*
X0024200Y0330825D01*
X0024200Y0332775D01*
X0023454Y0334576D01*
X0022076Y0335954D01*
X0020275Y0336700D01*
X0018325Y0336700D01*
X0016524Y0335954D01*
X0015113Y0334495D02*
X0009100Y0334495D01*
X0009100Y0332896D02*
X0014450Y0332896D01*
X0014400Y0331298D02*
X0009100Y0331298D01*
X0009100Y0329699D02*
X0014866Y0329699D01*
X0016070Y0328101D02*
X0009100Y0328101D01*
X0009100Y0326502D02*
X0026800Y0326502D01*
X0026800Y0324904D02*
X0009100Y0324904D01*
X0009100Y0323305D02*
X0026800Y0323305D01*
X0026800Y0321707D02*
X0009100Y0321707D01*
X0009100Y0320108D02*
X0026800Y0320108D01*
X0026800Y0318510D02*
X0009100Y0318510D01*
X0009100Y0316911D02*
X0026800Y0316911D01*
X0026800Y0315313D02*
X0009100Y0315313D01*
X0009100Y0313714D02*
X0026800Y0313714D01*
X0026800Y0312116D02*
X0009100Y0312116D01*
X0009100Y0310517D02*
X0026800Y0310517D01*
X0026800Y0308919D02*
X0009100Y0308919D01*
X0009100Y0307320D02*
X0026800Y0307320D01*
X0026800Y0305722D02*
X0009100Y0305722D01*
X0009100Y0304123D02*
X0026800Y0304123D01*
X0026800Y0302525D02*
X0009100Y0302525D01*
X0009100Y0300926D02*
X0026800Y0300926D01*
X0026800Y0299328D02*
X0009100Y0299328D01*
X0022530Y0328101D02*
X0026800Y0328101D01*
X0026800Y0329699D02*
X0023734Y0329699D01*
X0024200Y0331298D02*
X0026800Y0331298D01*
X0026800Y0332896D02*
X0024150Y0332896D01*
X0023487Y0334495D02*
X0026800Y0334495D01*
X0026800Y0336093D02*
X0021739Y0336093D01*
X0031800Y0286539D02*
X0151800Y0286539D01*
X0151800Y0284941D02*
X0031800Y0284941D01*
X0031800Y0283342D02*
X0151800Y0283342D01*
X0151800Y0281744D02*
X0031800Y0281744D01*
X0031800Y0280145D02*
X0151800Y0280145D01*
X0151800Y0278547D02*
X0031800Y0278547D01*
X0031800Y0276948D02*
X0151800Y0276948D01*
X0151800Y0275350D02*
X0031800Y0275350D01*
X0031800Y0273751D02*
X0151800Y0273751D01*
X0151800Y0272153D02*
X0031800Y0272153D01*
X0031800Y0270554D02*
X0151800Y0270554D01*
X0151800Y0268956D02*
X0031800Y0268956D01*
X0031800Y0267357D02*
X0151800Y0267357D01*
X0151800Y0265759D02*
X0031800Y0265759D01*
X0031800Y0264160D02*
X0151800Y0264160D01*
X0151800Y0262562D02*
X0031800Y0262562D01*
X0031800Y0260963D02*
X0151800Y0260963D01*
X0151800Y0259365D02*
X0031800Y0259365D01*
X0031800Y0257766D02*
X0151800Y0257766D01*
X0151800Y0256168D02*
X0031800Y0256168D01*
X0031800Y0254569D02*
X0151800Y0254569D01*
X0151800Y0252971D02*
X0031800Y0252971D01*
X0031800Y0251372D02*
X0151800Y0251372D01*
X0151800Y0249774D02*
X0031800Y0249774D01*
X0065000Y0141075D02*
X0066600Y0141075D01*
X0066600Y0139476D02*
X0065000Y0139476D01*
X0065000Y0137878D02*
X0066600Y0137878D01*
X0068846Y0141075D02*
X0114799Y0141075D01*
X0112042Y0139476D02*
X0071124Y0139476D01*
X0072308Y0137878D02*
X0110678Y0137878D01*
X0118801Y0141075D02*
X0174500Y0141075D01*
X0174500Y0142673D02*
X0156800Y0142673D01*
X0156800Y0144272D02*
X0174500Y0144272D01*
X0174500Y0145870D02*
X0156800Y0145870D01*
X0156800Y0147469D02*
X0174500Y0147469D01*
X0174500Y0149068D02*
X0156800Y0149068D01*
X0156800Y0150666D02*
X0174500Y0150666D01*
X0174500Y0152265D02*
X0156800Y0152265D01*
X0156800Y0153863D02*
X0174500Y0153863D01*
X0174500Y0155462D02*
X0156800Y0155462D01*
X0156800Y0157060D02*
X0174500Y0157060D01*
X0174500Y0158659D02*
X0156800Y0158659D01*
X0156800Y0160257D02*
X0174500Y0160257D01*
X0174500Y0161856D02*
X0156800Y0161856D01*
X0156800Y0163454D02*
X0174500Y0163454D01*
X0174500Y0165053D02*
X0156800Y0165053D01*
X0156800Y0166651D02*
X0162348Y0166651D01*
X0162189Y0166703D02*
X0163012Y0166435D01*
X0163867Y0166300D01*
X0164214Y0166300D01*
X0164214Y0171714D01*
X0158800Y0171714D01*
X0158800Y0171367D01*
X0158935Y0170512D01*
X0159203Y0169689D01*
X0159596Y0168917D01*
X0160105Y0168217D01*
X0160717Y0167605D01*
X0161417Y0167096D01*
X0162189Y0166703D01*
X0164214Y0166651D02*
X0164386Y0166651D01*
X0164386Y0166300D02*
X0164733Y0166300D01*
X0165588Y0166435D01*
X0166411Y0166703D01*
X0167183Y0167096D01*
X0167883Y0167605D01*
X0168495Y0168217D01*
X0169004Y0168917D01*
X0169397Y0169689D01*
X0169665Y0170512D01*
X0169800Y0171367D01*
X0169800Y0171714D01*
X0164386Y0171714D01*
X0164386Y0171886D01*
X0164214Y0171886D01*
X0164214Y0177300D01*
X0163867Y0177300D01*
X0163012Y0177165D01*
X0162189Y0176897D01*
X0161417Y0176504D01*
X0160717Y0175995D01*
X0160105Y0175383D01*
X0159596Y0174683D01*
X0159203Y0173911D01*
X0158935Y0173088D01*
X0158800Y0172233D01*
X0158800Y0171886D01*
X0164214Y0171886D01*
X0164214Y0171714D01*
X0164386Y0171714D01*
X0164386Y0166300D01*
X0166252Y0166651D02*
X0174500Y0166651D01*
X0174500Y0168250D02*
X0168519Y0168250D01*
X0169449Y0169848D02*
X0174500Y0169848D01*
X0174500Y0171447D02*
X0169800Y0171447D01*
X0169800Y0171886D02*
X0169800Y0172233D01*
X0169665Y0173088D01*
X0169397Y0173911D01*
X0169004Y0174683D01*
X0168495Y0175383D01*
X0167883Y0175995D01*
X0167183Y0176504D01*
X0166411Y0176897D01*
X0165588Y0177165D01*
X0164733Y0177300D01*
X0164386Y0177300D01*
X0164386Y0171886D01*
X0169800Y0171886D01*
X0169671Y0173045D02*
X0174500Y0173045D01*
X0174500Y0174644D02*
X0169024Y0174644D01*
X0167543Y0176242D02*
X0174500Y0176242D01*
X0174500Y0177841D02*
X0156800Y0177841D01*
X0156800Y0179439D02*
X0174500Y0179439D01*
X0174500Y0181038D02*
X0156800Y0181038D01*
X0156800Y0182636D02*
X0174500Y0182636D01*
X0174500Y0184235D02*
X0156800Y0184235D01*
X0156800Y0185833D02*
X0174500Y0185833D01*
X0174500Y0187432D02*
X0167081Y0187432D01*
X0167189Y0187476D02*
X0168624Y0188911D01*
X0169400Y0190786D01*
X0169400Y0192814D01*
X0168624Y0194689D01*
X0167189Y0196124D01*
X0165314Y0196900D01*
X0163286Y0196900D01*
X0161411Y0196124D01*
X0159976Y0194689D01*
X0159200Y0192814D01*
X0159200Y0190786D01*
X0159976Y0188911D01*
X0161411Y0187476D01*
X0163286Y0186700D01*
X0165314Y0186700D01*
X0167189Y0187476D01*
X0168673Y0189030D02*
X0174500Y0189030D01*
X0174500Y0190629D02*
X0169335Y0190629D01*
X0169400Y0192227D02*
X0174500Y0192227D01*
X0174500Y0193826D02*
X0168981Y0193826D01*
X0167888Y0195424D02*
X0174500Y0195424D01*
X0174500Y0197023D02*
X0156800Y0197023D01*
X0156800Y0198621D02*
X0174500Y0198621D01*
X0174500Y0200220D02*
X0156800Y0200220D01*
X0156800Y0201818D02*
X0174500Y0201818D01*
X0174500Y0203417D02*
X0156800Y0203417D01*
X0156800Y0205015D02*
X0174500Y0205015D01*
X0174500Y0206614D02*
X0156800Y0206614D01*
X0156800Y0208212D02*
X0174500Y0208212D01*
X0174500Y0209811D02*
X0156800Y0209811D01*
X0156800Y0211409D02*
X0174500Y0211409D01*
X0174500Y0213008D02*
X0156800Y0213008D01*
X0156800Y0214606D02*
X0174500Y0214606D01*
X0174500Y0216205D02*
X0156800Y0216205D01*
X0156800Y0217803D02*
X0174500Y0217803D01*
X0174500Y0219402D02*
X0156800Y0219402D01*
X0156800Y0221001D02*
X0174500Y0221001D01*
X0174500Y0222599D02*
X0156800Y0222599D01*
X0156800Y0224198D02*
X0174500Y0224198D01*
X0174500Y0225796D02*
X0156800Y0225796D01*
X0156800Y0227395D02*
X0161609Y0227395D01*
X0161411Y0227476D02*
X0163286Y0226700D01*
X0165314Y0226700D01*
X0167189Y0227476D01*
X0168624Y0228911D01*
X0169400Y0230786D01*
X0169400Y0232814D01*
X0168624Y0234689D01*
X0167189Y0236124D01*
X0165314Y0236900D01*
X0163286Y0236900D01*
X0161411Y0236124D01*
X0159976Y0234689D01*
X0159200Y0232814D01*
X0159200Y0230786D01*
X0159976Y0228911D01*
X0161411Y0227476D01*
X0159942Y0228993D02*
X0156800Y0228993D01*
X0156800Y0230592D02*
X0159280Y0230592D01*
X0159200Y0232190D02*
X0156800Y0232190D01*
X0156800Y0233789D02*
X0159604Y0233789D01*
X0160675Y0235387D02*
X0156800Y0235387D01*
X0156800Y0236986D02*
X0174500Y0236986D01*
X0174500Y0238584D02*
X0156800Y0238584D01*
X0156800Y0240183D02*
X0174500Y0240183D01*
X0174500Y0241781D02*
X0156800Y0241781D01*
X0156800Y0243380D02*
X0174500Y0243380D01*
X0174500Y0244978D02*
X0156800Y0244978D01*
X0156800Y0246577D02*
X0174500Y0246577D01*
X0174500Y0248175D02*
X0156800Y0248175D01*
X0156800Y0249774D02*
X0174500Y0249774D01*
X0174500Y0251372D02*
X0156800Y0251372D01*
X0156800Y0252971D02*
X0174500Y0252971D01*
X0174500Y0254569D02*
X0156800Y0254569D01*
X0156800Y0256168D02*
X0174500Y0256168D01*
X0174500Y0257766D02*
X0156800Y0257766D01*
X0156800Y0259365D02*
X0174500Y0259365D01*
X0174500Y0260963D02*
X0156800Y0260963D01*
X0156800Y0262562D02*
X0174500Y0262562D01*
X0174500Y0264160D02*
X0156800Y0264160D01*
X0156800Y0265759D02*
X0174500Y0265759D01*
X0174500Y0267357D02*
X0156800Y0267357D01*
X0156800Y0268956D02*
X0174500Y0268956D01*
X0174500Y0270554D02*
X0156800Y0270554D01*
X0156800Y0272153D02*
X0174500Y0272153D01*
X0174500Y0273751D02*
X0156800Y0273751D01*
X0156800Y0275350D02*
X0174500Y0275350D01*
X0174500Y0276948D02*
X0156800Y0276948D01*
X0156800Y0278547D02*
X0174500Y0278547D01*
X0174500Y0280145D02*
X0156800Y0280145D01*
X0156800Y0281744D02*
X0174500Y0281744D01*
X0174500Y0283342D02*
X0156800Y0283342D01*
X0156800Y0284941D02*
X0174500Y0284941D01*
X0174500Y0286539D02*
X0156800Y0286539D01*
X0156800Y0288138D02*
X0174500Y0288138D01*
X0174500Y0289737D02*
X0156800Y0289737D01*
X0156800Y0291335D02*
X0174500Y0291335D01*
X0174500Y0292934D02*
X0156800Y0292934D01*
X0156800Y0294532D02*
X0174500Y0294532D01*
X0174500Y0296131D02*
X0156800Y0296131D01*
X0156800Y0297729D02*
X0174500Y0297729D01*
X0174500Y0299328D02*
X0156800Y0299328D01*
X0156800Y0300926D02*
X0174500Y0300926D01*
X0174500Y0302525D02*
X0156800Y0302525D01*
X0156800Y0304123D02*
X0174500Y0304123D01*
X0174500Y0305722D02*
X0156800Y0305722D01*
X0156800Y0307320D02*
X0174500Y0307320D01*
X0174500Y0308919D02*
X0156800Y0308919D01*
X0156800Y0310517D02*
X0174500Y0310517D01*
X0174500Y0312116D02*
X0156800Y0312116D01*
X0156800Y0313714D02*
X0174500Y0313714D01*
X0174500Y0315313D02*
X0156800Y0315313D01*
X0156800Y0316911D02*
X0174500Y0316911D01*
X0174500Y0318510D02*
X0156800Y0318510D01*
X0156800Y0320108D02*
X0174500Y0320108D01*
X0174500Y0321707D02*
X0156800Y0321707D01*
X0156800Y0323305D02*
X0174500Y0323305D01*
X0174500Y0324904D02*
X0156800Y0324904D01*
X0156800Y0326502D02*
X0174500Y0326502D01*
X0174500Y0328101D02*
X0156800Y0328101D01*
X0156800Y0329699D02*
X0174500Y0329699D01*
X0174500Y0331298D02*
X0156800Y0331298D01*
X0156800Y0332896D02*
X0174500Y0332896D01*
X0174500Y0334495D02*
X0156800Y0334495D01*
X0156800Y0336093D02*
X0174500Y0336093D01*
X0174500Y0337692D02*
X0156800Y0337692D01*
X0156800Y0339290D02*
X0174500Y0339290D01*
X0174500Y0340889D02*
X0156800Y0340889D01*
X0156800Y0342487D02*
X0174500Y0342487D01*
X0174500Y0344086D02*
X0156800Y0344086D01*
X0167925Y0235387D02*
X0174500Y0235387D01*
X0174500Y0233789D02*
X0168996Y0233789D01*
X0169400Y0232190D02*
X0174500Y0232190D01*
X0174500Y0230592D02*
X0169320Y0230592D01*
X0168658Y0228993D02*
X0174500Y0228993D01*
X0174500Y0227395D02*
X0166991Y0227395D01*
X0160712Y0195424D02*
X0156800Y0195424D01*
X0156800Y0193826D02*
X0159619Y0193826D01*
X0159200Y0192227D02*
X0156800Y0192227D01*
X0156800Y0190629D02*
X0159265Y0190629D01*
X0159927Y0189030D02*
X0156800Y0189030D01*
X0156800Y0187432D02*
X0161519Y0187432D01*
X0161057Y0176242D02*
X0156800Y0176242D01*
X0156800Y0174644D02*
X0159576Y0174644D01*
X0158929Y0173045D02*
X0156800Y0173045D01*
X0156800Y0171447D02*
X0158800Y0171447D01*
X0159151Y0169848D02*
X0156800Y0169848D01*
X0156800Y0168250D02*
X0160081Y0168250D01*
X0164214Y0168250D02*
X0164386Y0168250D01*
X0164386Y0169848D02*
X0164214Y0169848D01*
X0164214Y0171447D02*
X0164386Y0171447D01*
X0164386Y0173045D02*
X0164214Y0173045D01*
X0164214Y0174644D02*
X0164386Y0174644D01*
X0164386Y0176242D02*
X0164214Y0176242D01*
X0174500Y0139476D02*
X0121558Y0139476D01*
X0122922Y0137878D02*
X0174500Y0137878D01*
X0174500Y0136279D02*
X0166813Y0136279D01*
X0167189Y0136124D02*
X0165314Y0136900D01*
X0163286Y0136900D01*
X0161411Y0136124D01*
X0159976Y0134689D01*
X0159200Y0132814D01*
X0159200Y0130786D01*
X0159976Y0128911D01*
X0161411Y0127476D01*
X0163286Y0126700D01*
X0165314Y0126700D01*
X0167189Y0127476D01*
X0168624Y0128911D01*
X0169400Y0130786D01*
X0169400Y0132814D01*
X0168624Y0134689D01*
X0167189Y0136124D01*
X0168627Y0134681D02*
X0174500Y0134681D01*
X0174500Y0133082D02*
X0169289Y0133082D01*
X0169400Y0131484D02*
X0174500Y0131484D01*
X0174500Y0129885D02*
X0169027Y0129885D01*
X0167999Y0128287D02*
X0174500Y0128287D01*
X0174500Y0126688D02*
X0009100Y0126688D01*
X0009100Y0125090D02*
X0174500Y0125090D01*
X0174500Y0120294D02*
X0156060Y0120294D01*
X0156967Y0118696D02*
X0174500Y0118696D01*
X0174500Y0101112D02*
X0149700Y0101112D01*
X0151196Y0099514D02*
X0174500Y0099514D01*
X0174500Y0097915D02*
X0151858Y0097915D01*
X0151900Y0096317D02*
X0174500Y0096317D01*
X0174500Y0094718D02*
X0151458Y0094718D01*
X0150332Y0093120D02*
X0174500Y0093120D01*
X0174500Y0085127D02*
X0009100Y0085127D01*
X0009100Y0083529D02*
X0174500Y0083529D01*
X0174500Y0081930D02*
X0043810Y0081930D01*
X0042000Y0081930D02*
X0041600Y0081930D01*
X0041600Y0080332D02*
X0042000Y0080332D01*
X0042000Y0078733D02*
X0041600Y0078733D01*
X0041600Y0077134D02*
X0042000Y0077134D01*
X0042000Y0075536D02*
X0041600Y0075536D01*
X0041600Y0073937D02*
X0042000Y0073937D01*
X0042000Y0072339D02*
X0041600Y0072339D01*
X0038583Y0072339D02*
X0034357Y0072339D01*
X0036134Y0073937D02*
X0037086Y0073937D01*
X0036645Y0078733D02*
X0036520Y0078733D01*
X0035481Y0080332D02*
X0037567Y0080332D01*
X0039790Y0081930D02*
X0009100Y0081930D01*
X0009100Y0080332D02*
X0028119Y0080332D01*
X0027080Y0078733D02*
X0009100Y0078733D01*
X0009100Y0077134D02*
X0026700Y0077134D01*
X0026803Y0075536D02*
X0025276Y0075536D01*
X0026435Y0073937D02*
X0027465Y0073937D01*
X0026900Y0072339D02*
X0029243Y0072339D01*
X0018844Y0067543D02*
X0009100Y0067543D01*
X0009100Y0065945D02*
X0018732Y0065945D01*
X0017335Y0064346D02*
X0009100Y0064346D01*
X0009100Y0062748D02*
X0016700Y0062748D01*
X0016700Y0061149D02*
X0009100Y0061149D01*
X0009100Y0059551D02*
X0017211Y0059551D01*
X0018435Y0057952D02*
X0009100Y0057952D01*
X0009100Y0056354D02*
X0019467Y0056354D01*
X0017543Y0054755D02*
X0009100Y0054755D01*
X0009100Y0053157D02*
X0016842Y0053157D01*
X0016700Y0051558D02*
X0009100Y0051558D01*
X0009100Y0049960D02*
X0017042Y0049960D01*
X0018026Y0048361D02*
X0009100Y0048361D01*
X0009100Y0046763D02*
X0020454Y0046763D01*
X0023146Y0046763D02*
X0162954Y0046763D01*
X0160526Y0048361D02*
X0025574Y0048361D01*
X0026558Y0049960D02*
X0159542Y0049960D01*
X0159200Y0051558D02*
X0026900Y0051558D01*
X0026758Y0053157D02*
X0159342Y0053157D01*
X0160043Y0054755D02*
X0026057Y0054755D01*
X0025648Y0045164D02*
X0160452Y0045164D01*
X0159511Y0043566D02*
X0026589Y0043566D01*
X0026900Y0041967D02*
X0159200Y0041967D01*
X0159373Y0040369D02*
X0026727Y0040369D01*
X0025983Y0038770D02*
X0160117Y0038770D01*
X0162147Y0037172D02*
X0023953Y0037172D01*
X0025239Y0035573D02*
X0160861Y0035573D01*
X0159681Y0033975D02*
X0026419Y0033975D01*
X0026900Y0032376D02*
X0159200Y0032376D01*
X0159203Y0030778D02*
X0026897Y0030778D01*
X0026235Y0029179D02*
X0159865Y0029179D01*
X0161307Y0027581D02*
X0024793Y0027581D01*
X0024830Y0025982D02*
X0160704Y0025982D01*
X0159444Y0024384D02*
X0026250Y0024384D01*
X0018770Y0025982D02*
X0009100Y0025982D01*
X0009100Y0024384D02*
X0017350Y0024384D01*
X0016700Y0022785D02*
X0009100Y0022785D01*
X0009100Y0021187D02*
X0016700Y0021187D01*
X0017196Y0019588D02*
X0009100Y0019588D01*
X0009100Y0017990D02*
X0018398Y0017990D01*
X0018807Y0027581D02*
X0009100Y0027581D01*
X0009100Y0029179D02*
X0017365Y0029179D01*
X0016703Y0030778D02*
X0009100Y0030778D01*
X0009100Y0032376D02*
X0016700Y0032376D01*
X0017181Y0033975D02*
X0009100Y0033975D01*
X0009100Y0035573D02*
X0018361Y0035573D01*
X0019647Y0037172D02*
X0009100Y0037172D01*
X0009100Y0038770D02*
X0017617Y0038770D01*
X0016873Y0040369D02*
X0009100Y0040369D01*
X0009100Y0041967D02*
X0016700Y0041967D01*
X0017011Y0043566D02*
X0009100Y0043566D01*
X0009100Y0045164D02*
X0017952Y0045164D01*
X0017381Y0069142D02*
X0009100Y0069142D01*
X0009100Y0070740D02*
X0016719Y0070740D01*
X0016700Y0072339D02*
X0009100Y0072339D01*
X0009100Y0073937D02*
X0017165Y0073937D01*
X0018323Y0075536D02*
X0009100Y0075536D01*
X0009100Y0093120D02*
X0025202Y0093120D01*
X0024193Y0094718D02*
X0009100Y0094718D01*
X0009100Y0096317D02*
X0023808Y0096317D01*
X0023908Y0097915D02*
X0009100Y0097915D01*
X0009100Y0099514D02*
X0024510Y0099514D01*
X0025878Y0101112D02*
X0009100Y0101112D01*
X0009100Y0112302D02*
X0029333Y0112302D01*
X0027487Y0113900D02*
X0009100Y0113900D01*
X0009100Y0115499D02*
X0026819Y0115499D01*
X0026700Y0117097D02*
X0009100Y0117097D01*
X0009100Y0118696D02*
X0027065Y0118696D01*
X0028082Y0120294D02*
X0009100Y0120294D01*
X0009100Y0128287D02*
X0015601Y0128287D01*
X0014573Y0129885D02*
X0009100Y0129885D01*
X0009100Y0131484D02*
X0014200Y0131484D01*
X0014311Y0133082D02*
X0009100Y0133082D01*
X0009100Y0134681D02*
X0014973Y0134681D01*
X0016787Y0136279D02*
X0009100Y0136279D01*
X0029100Y0101112D02*
X0029500Y0101112D01*
X0029500Y0099514D02*
X0029100Y0099514D01*
X0029100Y0097915D02*
X0029500Y0097915D01*
X0029500Y0096317D02*
X0029100Y0096317D01*
X0029100Y0094718D02*
X0029500Y0094718D01*
X0029500Y0093120D02*
X0029100Y0093120D01*
X0032722Y0101112D02*
X0036400Y0101112D01*
X0034904Y0099514D02*
X0034090Y0099514D01*
X0034407Y0094718D02*
X0034642Y0094718D01*
X0035768Y0093120D02*
X0033398Y0093120D01*
X0042200Y0101112D02*
X0046400Y0101112D01*
X0044904Y0099514D02*
X0043696Y0099514D01*
X0043958Y0094718D02*
X0044642Y0094718D01*
X0045768Y0093120D02*
X0042832Y0093120D01*
X0046033Y0080332D02*
X0048119Y0080332D01*
X0047080Y0078733D02*
X0046955Y0078733D01*
X0046514Y0073937D02*
X0047465Y0073937D01*
X0049243Y0072339D02*
X0045017Y0072339D01*
X0054357Y0072339D02*
X0059243Y0072339D01*
X0057465Y0073937D02*
X0056134Y0073937D01*
X0056797Y0075536D02*
X0056803Y0075536D01*
X0057080Y0078733D02*
X0056520Y0078733D01*
X0055481Y0080332D02*
X0058119Y0080332D01*
X0065481Y0080332D02*
X0068119Y0080332D01*
X0067080Y0078733D02*
X0066520Y0078733D01*
X0066797Y0075536D02*
X0066803Y0075536D01*
X0067465Y0073937D02*
X0066134Y0073937D01*
X0064357Y0072339D02*
X0069243Y0072339D01*
X0069796Y0069142D02*
X0072554Y0069142D01*
X0071481Y0067543D02*
X0070869Y0067543D01*
X0070535Y0062748D02*
X0071815Y0062748D01*
X0073472Y0061149D02*
X0068878Y0061149D01*
X0078878Y0061149D02*
X0104722Y0061149D01*
X0103065Y0062748D02*
X0080535Y0062748D01*
X0081197Y0064346D02*
X0102403Y0064346D01*
X0102325Y0065945D02*
X0081275Y0065945D01*
X0080869Y0067543D02*
X0102731Y0067543D01*
X0103804Y0069142D02*
X0079796Y0069142D01*
X0104357Y0072339D02*
X0109243Y0072339D01*
X0107465Y0073937D02*
X0106134Y0073937D01*
X0106797Y0075536D02*
X0106803Y0075536D01*
X0107080Y0078733D02*
X0106520Y0078733D01*
X0105481Y0080332D02*
X0108119Y0080332D01*
X0111046Y0069142D02*
X0113804Y0069142D01*
X0112731Y0067543D02*
X0112119Y0067543D01*
X0111785Y0062748D02*
X0113065Y0062748D01*
X0114722Y0061149D02*
X0110128Y0061149D01*
X0120128Y0061149D02*
X0174500Y0061149D01*
X0174500Y0062748D02*
X0121785Y0062748D01*
X0122447Y0064346D02*
X0174500Y0064346D01*
X0174500Y0078733D02*
X0146520Y0078733D01*
X0145481Y0080332D02*
X0174500Y0080332D01*
X0161381Y0107506D02*
X0110059Y0107506D01*
X0110025Y0109105D02*
X0159896Y0109105D01*
X0160601Y0128287D02*
X0120640Y0128287D01*
X0122320Y0129885D02*
X0159573Y0129885D01*
X0159200Y0131484D02*
X0123237Y0131484D01*
X0123825Y0133082D02*
X0159311Y0133082D01*
X0159973Y0134681D02*
X0123825Y0134681D01*
X0123584Y0136279D02*
X0161787Y0136279D01*
X0143900Y0101112D02*
X0139700Y0101112D01*
X0141196Y0099514D02*
X0142404Y0099514D01*
X0142142Y0094718D02*
X0141458Y0094718D01*
X0140332Y0093120D02*
X0143268Y0093120D01*
X0138119Y0080332D02*
X0135481Y0080332D01*
X0136520Y0078733D02*
X0137080Y0078733D01*
X0136803Y0075536D02*
X0136797Y0075536D01*
X0136134Y0073937D02*
X0137465Y0073937D01*
X0139243Y0072339D02*
X0134357Y0072339D01*
X0129243Y0072339D02*
X0124357Y0072339D01*
X0126134Y0073937D02*
X0127465Y0073937D01*
X0126803Y0075536D02*
X0126797Y0075536D01*
X0126520Y0078733D02*
X0127080Y0078733D01*
X0128119Y0080332D02*
X0125481Y0080332D01*
X0131700Y0096317D02*
X0054400Y0096317D01*
X0054358Y0097915D02*
X0131742Y0097915D01*
X0132404Y0099514D02*
X0053696Y0099514D01*
X0052200Y0101112D02*
X0133900Y0101112D01*
X0104800Y0104309D02*
X0104400Y0104309D01*
X0104400Y0105908D02*
X0104800Y0105908D01*
X0104800Y0107506D02*
X0104400Y0107506D01*
X0104400Y0109105D02*
X0104800Y0109105D01*
X0104800Y0110703D02*
X0104400Y0110703D01*
X0104400Y0112302D02*
X0104800Y0112302D01*
X0066600Y0128287D02*
X0065000Y0128287D01*
X0065000Y0129885D02*
X0066600Y0129885D01*
X0066600Y0131484D02*
X0065000Y0131484D01*
X0065000Y0133082D02*
X0066600Y0133082D01*
X0065120Y0021187D02*
X0069063Y0021187D01*
X0067435Y0019588D02*
X0066552Y0019588D01*
X0066931Y0014793D02*
X0067111Y0014793D01*
X0068193Y0013194D02*
X0065972Y0013194D01*
X0062000Y0013194D02*
X0061600Y0013194D01*
X0061600Y0014793D02*
X0062000Y0014793D01*
X0062000Y0016391D02*
X0061600Y0016391D01*
X0061600Y0017990D02*
X0062000Y0017990D01*
X0062000Y0019588D02*
X0061600Y0019588D01*
X0061600Y0021187D02*
X0062000Y0021187D01*
X0058480Y0021187D02*
X0054537Y0021187D01*
X0056165Y0019588D02*
X0057048Y0019588D01*
X0056669Y0014793D02*
X0056489Y0014793D01*
X0055407Y0013194D02*
X0057628Y0013194D01*
X0048193Y0013194D02*
X0045407Y0013194D01*
X0046489Y0014793D02*
X0047111Y0014793D01*
X0047435Y0019588D02*
X0046165Y0019588D01*
X0044537Y0021187D02*
X0049063Y0021187D01*
X0039063Y0021187D02*
X0034537Y0021187D01*
X0036165Y0019588D02*
X0037435Y0019588D01*
X0037111Y0014793D02*
X0036489Y0014793D01*
X0035407Y0013194D02*
X0038193Y0013194D01*
X0074537Y0021187D02*
X0079063Y0021187D01*
X0077435Y0019588D02*
X0076165Y0019588D01*
X0076489Y0014793D02*
X0077111Y0014793D01*
X0078193Y0013194D02*
X0075407Y0013194D01*
X0085407Y0013194D02*
X0088193Y0013194D01*
X0087111Y0014793D02*
X0086489Y0014793D01*
X0086165Y0019588D02*
X0087435Y0019588D01*
X0089063Y0021187D02*
X0084537Y0021187D01*
X0094537Y0021187D02*
X0099063Y0021187D01*
X0097435Y0019588D02*
X0096165Y0019588D01*
X0096489Y0014793D02*
X0097111Y0014793D01*
X0098193Y0013194D02*
X0095407Y0013194D01*
X0104537Y0021187D02*
X0109063Y0021187D01*
X0107435Y0019588D02*
X0106165Y0019588D01*
X0106489Y0014793D02*
X0107111Y0014793D01*
X0108193Y0013194D02*
X0105407Y0013194D01*
X0115407Y0013194D02*
X0118193Y0013194D01*
X0117111Y0014793D02*
X0116489Y0014793D01*
X0116165Y0019588D02*
X0117435Y0019588D01*
X0119063Y0021187D02*
X0114537Y0021187D01*
X0124537Y0021187D02*
X0129063Y0021187D01*
X0127435Y0019588D02*
X0126165Y0019588D01*
X0126489Y0014793D02*
X0127111Y0014793D01*
X0128193Y0013194D02*
X0125407Y0013194D01*
X0135407Y0013194D02*
X0138193Y0013194D01*
X0137111Y0014793D02*
X0136489Y0014793D01*
X0136165Y0019588D02*
X0137435Y0019588D01*
X0139063Y0021187D02*
X0134537Y0021187D01*
X0164100Y0021187D02*
X0164500Y0021187D01*
X0164500Y0019588D02*
X0164100Y0019588D01*
X0164100Y0017990D02*
X0164500Y0017990D01*
M02*
