G75*
%MOIN*%
%OFA0B0*%
%FSLAX25Y25*%
%IPPOS*%
%LPD*%
%AMOC8*
5,1,8,0,0,1.08239X$1,22.5*
%
%ADD10C,0.00500*%
%ADD11R,0.12500X0.30000*%
%ADD12C,0.00800*%
%ADD13C,0.00700*%
%ADD14R,0.05000X0.05000*%
%ADD15C,0.00100*%
%ADD16C,0.00600*%
D10*
X0042050Y0107050D02*
X0042050Y0111554D01*
X0044302Y0111554D01*
X0045053Y0110803D01*
X0045053Y0109302D01*
X0044302Y0108551D01*
X0042050Y0108551D01*
X0043551Y0108551D02*
X0045053Y0107050D01*
X0046654Y0107050D02*
X0046654Y0107801D01*
X0049656Y0110803D01*
X0049656Y0111554D01*
X0046654Y0111554D01*
X0046053Y0115550D02*
X0043050Y0115550D01*
X0044551Y0115550D02*
X0044551Y0120054D01*
X0043050Y0118553D01*
X0047654Y0119303D02*
X0047654Y0116301D01*
X0050656Y0119303D01*
X0050656Y0116301D01*
X0049906Y0115550D01*
X0048405Y0115550D01*
X0047654Y0116301D01*
X0047654Y0119303D02*
X0048405Y0120054D01*
X0049906Y0120054D01*
X0050656Y0119303D01*
X0052258Y0120054D02*
X0052258Y0115550D01*
X0052258Y0117051D02*
X0055260Y0120054D01*
X0053008Y0117802D02*
X0055260Y0115550D01*
X0064546Y0098947D02*
X0069050Y0098947D01*
X0069050Y0097446D02*
X0069050Y0100449D01*
X0068299Y0095845D02*
X0067549Y0095845D01*
X0066798Y0095094D01*
X0066798Y0093593D01*
X0066047Y0092842D01*
X0065297Y0092842D01*
X0064546Y0093593D01*
X0064546Y0095094D01*
X0065297Y0095845D01*
X0066047Y0097446D02*
X0064546Y0098947D01*
X0068299Y0095845D02*
X0069050Y0095094D01*
X0069050Y0093593D01*
X0068299Y0092842D01*
X0104550Y0122801D02*
X0105301Y0122050D01*
X0106802Y0122050D01*
X0107553Y0122801D01*
X0107553Y0126554D01*
X0109154Y0125803D02*
X0109905Y0126554D01*
X0111406Y0126554D01*
X0112156Y0125803D01*
X0112156Y0125053D01*
X0111406Y0124302D01*
X0112156Y0123551D01*
X0112156Y0122801D01*
X0111406Y0122050D01*
X0109905Y0122050D01*
X0109154Y0122801D01*
X0110655Y0124302D02*
X0111406Y0124302D01*
X0104550Y0122801D02*
X0104550Y0126554D01*
X0106093Y0101554D02*
X0105342Y0100803D01*
X0105342Y0100053D01*
X0106093Y0099302D01*
X0107594Y0099302D01*
X0108345Y0098551D01*
X0108345Y0097801D01*
X0107594Y0097050D01*
X0106093Y0097050D01*
X0105342Y0097801D01*
X0106093Y0101554D02*
X0107594Y0101554D01*
X0108345Y0100803D01*
X0109946Y0100803D02*
X0110697Y0101554D01*
X0112198Y0101554D01*
X0112949Y0100803D01*
X0112949Y0100053D01*
X0109946Y0097050D01*
X0112949Y0097050D01*
X0122050Y0096650D02*
X0124302Y0096650D01*
X0125053Y0097401D01*
X0125053Y0100403D01*
X0124302Y0101154D01*
X0122050Y0101154D01*
X0122050Y0096650D01*
X0126654Y0096650D02*
X0129656Y0096650D01*
X0128155Y0096650D02*
X0128155Y0101154D01*
X0126654Y0099653D01*
X0127405Y0107050D02*
X0126654Y0107801D01*
X0126654Y0108551D01*
X0127405Y0109302D01*
X0128906Y0109302D01*
X0129656Y0108551D01*
X0129656Y0107801D01*
X0128906Y0107050D01*
X0127405Y0107050D01*
X0127405Y0109302D02*
X0126654Y0110053D01*
X0126654Y0110803D01*
X0127405Y0111554D01*
X0128906Y0111554D01*
X0129656Y0110803D01*
X0129656Y0110053D01*
X0128906Y0109302D01*
X0125053Y0109302D02*
X0124302Y0108551D01*
X0122050Y0108551D01*
X0122050Y0107050D02*
X0122050Y0111554D01*
X0124302Y0111554D01*
X0125053Y0110803D01*
X0125053Y0109302D01*
X0123551Y0108551D02*
X0125053Y0107050D01*
X0124551Y0115550D02*
X0124551Y0120054D01*
X0123050Y0118553D01*
X0123050Y0115550D02*
X0126053Y0115550D01*
X0127654Y0116301D02*
X0127654Y0119303D01*
X0128405Y0120054D01*
X0129906Y0120054D01*
X0130656Y0119303D01*
X0127654Y0116301D01*
X0128405Y0115550D01*
X0129906Y0115550D01*
X0130656Y0116301D01*
X0130656Y0119303D01*
X0132258Y0120054D02*
X0132258Y0115550D01*
X0132258Y0117051D02*
X0135260Y0120054D01*
X0133008Y0117802D02*
X0135260Y0115550D01*
X0161046Y0090656D02*
X0164049Y0087654D01*
X0163298Y0088405D02*
X0165550Y0090656D01*
X0165550Y0087654D02*
X0161046Y0087654D01*
X0161046Y0086053D02*
X0161046Y0083050D01*
X0163298Y0083050D01*
X0162547Y0084551D01*
X0162547Y0085302D01*
X0163298Y0086053D01*
X0164799Y0086053D01*
X0165550Y0085302D01*
X0165550Y0083801D01*
X0164799Y0083050D01*
X0169546Y0082050D02*
X0169546Y0084302D01*
X0170297Y0085053D01*
X0171798Y0085053D01*
X0172549Y0084302D01*
X0172549Y0082050D01*
X0174050Y0082050D02*
X0169546Y0082050D01*
X0172549Y0083551D02*
X0174050Y0085053D01*
X0173299Y0086654D02*
X0174050Y0087405D01*
X0174050Y0088906D01*
X0173299Y0089656D01*
X0172549Y0089656D01*
X0171798Y0088906D01*
X0171798Y0088155D01*
X0171798Y0088906D02*
X0171047Y0089656D01*
X0170297Y0089656D01*
X0169546Y0088906D01*
X0169546Y0087405D01*
X0170297Y0086654D01*
X0171800Y0061800D02*
X0156800Y0061800D01*
X0156800Y0011800D01*
X0171800Y0011800D01*
X0171800Y0061800D01*
X0156550Y0060449D02*
X0156550Y0057446D01*
X0153547Y0060449D01*
X0152797Y0060449D01*
X0152046Y0059698D01*
X0152046Y0058197D01*
X0152797Y0057446D01*
X0152046Y0055845D02*
X0155799Y0055845D01*
X0156550Y0055094D01*
X0156550Y0053593D01*
X0155799Y0052842D01*
X0152046Y0052842D01*
X0151550Y0022156D02*
X0151550Y0019154D01*
X0151550Y0020655D02*
X0147046Y0020655D01*
X0148547Y0019154D01*
X0147046Y0017553D02*
X0150799Y0017553D01*
X0151550Y0016802D01*
X0151550Y0015301D01*
X0150799Y0014550D01*
X0147046Y0014550D01*
X0161797Y0143050D02*
X0161046Y0143801D01*
X0161046Y0145302D01*
X0161797Y0146053D01*
X0162547Y0146053D01*
X0163298Y0145302D01*
X0164049Y0146053D01*
X0164799Y0146053D01*
X0165550Y0145302D01*
X0165550Y0143801D01*
X0164799Y0143050D01*
X0163298Y0144551D02*
X0163298Y0145302D01*
X0161797Y0147654D02*
X0161046Y0148405D01*
X0161046Y0149906D01*
X0161797Y0150656D01*
X0162547Y0150656D01*
X0163298Y0149906D01*
X0164049Y0150656D01*
X0164799Y0150656D01*
X0165550Y0149906D01*
X0165550Y0148405D01*
X0164799Y0147654D01*
X0163298Y0149155D02*
X0163298Y0149906D01*
X0161797Y0152258D02*
X0161046Y0153008D01*
X0161046Y0154510D01*
X0161797Y0155260D01*
X0164799Y0152258D01*
X0165550Y0153008D01*
X0165550Y0154510D01*
X0164799Y0155260D01*
X0161797Y0155260D01*
X0161797Y0152258D02*
X0164799Y0152258D01*
X0169546Y0149656D02*
X0170297Y0148155D01*
X0171798Y0146654D01*
X0171798Y0148906D01*
X0172549Y0149656D01*
X0173299Y0149656D01*
X0174050Y0148906D01*
X0174050Y0147405D01*
X0173299Y0146654D01*
X0171798Y0146654D01*
X0171798Y0145053D02*
X0172549Y0144302D01*
X0172549Y0142050D01*
X0174050Y0142050D02*
X0169546Y0142050D01*
X0169546Y0144302D01*
X0170297Y0145053D01*
X0171798Y0145053D01*
X0172549Y0143551D02*
X0174050Y0145053D01*
X0174050Y0202050D02*
X0169546Y0202050D01*
X0169546Y0204302D01*
X0170297Y0205053D01*
X0171798Y0205053D01*
X0172549Y0204302D01*
X0172549Y0202050D01*
X0172549Y0203551D02*
X0174050Y0205053D01*
X0174050Y0206654D02*
X0174050Y0209656D01*
X0174050Y0208155D02*
X0169546Y0208155D01*
X0171047Y0206654D01*
X0165550Y0206053D02*
X0165550Y0203050D01*
X0165550Y0204551D02*
X0161046Y0204551D01*
X0162547Y0203050D01*
X0161046Y0207654D02*
X0162547Y0209155D01*
X0161046Y0210656D01*
X0165550Y0210656D01*
X0165550Y0207654D02*
X0161046Y0207654D01*
X0160799Y0242050D02*
X0158547Y0242050D01*
X0160799Y0242050D02*
X0161550Y0242801D01*
X0160799Y0243551D01*
X0161550Y0244302D01*
X0160799Y0245053D01*
X0158547Y0245053D01*
X0158547Y0247405D02*
X0158547Y0248906D01*
X0159298Y0249656D01*
X0161550Y0249656D01*
X0161550Y0247405D01*
X0160799Y0246654D01*
X0160049Y0247405D01*
X0160049Y0249656D01*
X0159298Y0251258D02*
X0158547Y0252008D01*
X0158547Y0253510D01*
X0159298Y0254260D01*
X0161550Y0254260D01*
X0161550Y0255862D02*
X0161550Y0257363D01*
X0161550Y0256612D02*
X0157046Y0256612D01*
X0157046Y0255862D01*
X0157046Y0251258D02*
X0161550Y0251258D01*
X0161550Y0263535D02*
X0158547Y0263535D01*
X0158547Y0264286D01*
X0159298Y0265036D01*
X0158547Y0265787D01*
X0159298Y0266538D01*
X0161550Y0266538D01*
X0161550Y0265036D02*
X0159298Y0265036D01*
X0159298Y0268139D02*
X0160799Y0268139D01*
X0161550Y0268890D01*
X0161550Y0270391D01*
X0160799Y0271141D01*
X0159298Y0271141D01*
X0158547Y0270391D01*
X0158547Y0268890D01*
X0159298Y0268139D01*
X0158547Y0272743D02*
X0158547Y0273493D01*
X0161550Y0273493D01*
X0161550Y0272743D02*
X0161550Y0274244D01*
X0161550Y0275812D02*
X0161550Y0278064D01*
X0160799Y0278815D01*
X0160049Y0278064D01*
X0160049Y0276563D01*
X0159298Y0275812D01*
X0158547Y0276563D01*
X0158547Y0278815D01*
X0158547Y0280416D02*
X0158547Y0281917D01*
X0157797Y0281167D02*
X0160799Y0281167D01*
X0161550Y0281917D01*
X0160799Y0283485D02*
X0158547Y0283485D01*
X0160799Y0283485D02*
X0161550Y0284236D01*
X0161550Y0286488D01*
X0158547Y0286488D01*
X0158547Y0288089D02*
X0161550Y0288089D01*
X0160049Y0288089D02*
X0158547Y0289591D01*
X0158547Y0290341D01*
X0159298Y0291926D02*
X0158547Y0292676D01*
X0158547Y0294178D01*
X0159298Y0294928D01*
X0160049Y0294928D01*
X0160049Y0291926D01*
X0160799Y0291926D02*
X0159298Y0291926D01*
X0160799Y0291926D02*
X0161550Y0292676D01*
X0161550Y0294178D01*
X0161550Y0301134D02*
X0158547Y0301134D01*
X0158547Y0301884D01*
X0159298Y0302635D01*
X0158547Y0303386D01*
X0159298Y0304136D01*
X0161550Y0304136D01*
X0161550Y0302635D02*
X0159298Y0302635D01*
X0159298Y0305738D02*
X0158547Y0306488D01*
X0158547Y0307990D01*
X0159298Y0308740D01*
X0160049Y0308740D01*
X0160049Y0305738D01*
X0160799Y0305738D02*
X0159298Y0305738D01*
X0160799Y0305738D02*
X0161550Y0306488D01*
X0161550Y0307990D01*
X0160799Y0311092D02*
X0161550Y0311843D01*
X0160799Y0311092D02*
X0157797Y0311092D01*
X0158547Y0310342D02*
X0158547Y0311843D01*
X0159298Y0313411D02*
X0158547Y0314161D01*
X0158547Y0315663D01*
X0159298Y0316413D01*
X0160049Y0316413D01*
X0160049Y0313411D01*
X0160799Y0313411D02*
X0159298Y0313411D01*
X0160799Y0313411D02*
X0161550Y0314161D01*
X0161550Y0315663D01*
X0161550Y0318015D02*
X0158547Y0318015D01*
X0158547Y0319516D02*
X0158547Y0320267D01*
X0158547Y0319516D02*
X0160049Y0318015D01*
X0169298Y0285721D02*
X0168547Y0284970D01*
X0168547Y0282718D01*
X0171550Y0282718D01*
X0170799Y0281117D02*
X0170049Y0280366D01*
X0170049Y0278865D01*
X0169298Y0278114D01*
X0168547Y0278865D01*
X0168547Y0281117D01*
X0169298Y0285721D02*
X0171550Y0285721D01*
X0170799Y0281117D02*
X0171550Y0280366D01*
X0171550Y0278114D01*
X0167046Y0271909D02*
X0171550Y0268906D01*
X0169298Y0262701D02*
X0169298Y0259698D01*
X0168547Y0253493D02*
X0171550Y0251992D01*
X0168547Y0250491D01*
X0169298Y0248889D02*
X0168547Y0248139D01*
X0168547Y0246637D01*
X0169298Y0245887D01*
X0170799Y0245887D01*
X0171550Y0246637D01*
X0171550Y0248139D01*
X0170049Y0248889D02*
X0170049Y0245887D01*
X0168547Y0244302D02*
X0168547Y0243551D01*
X0170049Y0242050D01*
X0171550Y0242050D02*
X0168547Y0242050D01*
X0169298Y0248889D02*
X0170049Y0248889D01*
X0157046Y0273493D02*
X0156296Y0273493D01*
X0020550Y0272258D02*
X0016046Y0272258D01*
X0016797Y0270656D02*
X0016046Y0269906D01*
X0016046Y0268405D01*
X0016797Y0267654D01*
X0019799Y0267654D01*
X0016797Y0270656D01*
X0019799Y0270656D01*
X0020550Y0269906D01*
X0020550Y0268405D01*
X0019799Y0267654D01*
X0020550Y0266053D02*
X0020550Y0263050D01*
X0020550Y0264551D02*
X0016046Y0264551D01*
X0017547Y0263050D01*
X0014050Y0262050D02*
X0009546Y0262050D01*
X0009546Y0264302D01*
X0010297Y0265053D01*
X0011798Y0265053D01*
X0012549Y0264302D01*
X0012549Y0262050D01*
X0012549Y0263551D02*
X0014050Y0265053D01*
X0013299Y0266654D02*
X0014050Y0267405D01*
X0014050Y0268906D01*
X0013299Y0269656D01*
X0011798Y0269656D01*
X0011047Y0268906D01*
X0011047Y0268155D01*
X0011798Y0266654D01*
X0009546Y0266654D01*
X0009546Y0269656D01*
X0016046Y0275260D02*
X0019049Y0272258D01*
X0018298Y0273008D02*
X0020550Y0275260D01*
X0020550Y0219864D02*
X0018298Y0217612D01*
X0019049Y0216862D02*
X0016046Y0219864D01*
X0016046Y0216862D02*
X0020550Y0216862D01*
X0019799Y0215260D02*
X0020550Y0214510D01*
X0020550Y0213008D01*
X0019799Y0212258D01*
X0016797Y0215260D01*
X0019799Y0215260D01*
X0019799Y0212258D02*
X0016797Y0212258D01*
X0016046Y0213008D01*
X0016046Y0214510D01*
X0016797Y0215260D01*
X0016797Y0210656D02*
X0016046Y0209906D01*
X0016046Y0208405D01*
X0016797Y0207654D01*
X0019799Y0207654D01*
X0016797Y0210656D01*
X0019799Y0210656D01*
X0020550Y0209906D01*
X0020550Y0208405D01*
X0019799Y0207654D01*
X0020550Y0206053D02*
X0020550Y0203050D01*
X0020550Y0204551D02*
X0016046Y0204551D01*
X0017547Y0203050D01*
X0014050Y0202050D02*
X0009546Y0202050D01*
X0009546Y0204302D01*
X0010297Y0205053D01*
X0011798Y0205053D01*
X0012549Y0204302D01*
X0012549Y0202050D01*
X0012549Y0203551D02*
X0014050Y0205053D01*
X0011798Y0206654D02*
X0011798Y0209656D01*
X0009546Y0208906D02*
X0011798Y0206654D01*
X0014050Y0208906D02*
X0009546Y0208906D01*
X0016046Y0150656D02*
X0020550Y0150656D01*
X0020550Y0147654D02*
X0016046Y0147654D01*
X0017547Y0149155D01*
X0016046Y0150656D01*
X0014050Y0149656D02*
X0014050Y0146654D01*
X0011047Y0149656D01*
X0010297Y0149656D01*
X0009546Y0148906D01*
X0009546Y0147405D01*
X0010297Y0146654D01*
X0010297Y0145053D02*
X0011798Y0145053D01*
X0012549Y0144302D01*
X0012549Y0142050D01*
X0014050Y0142050D02*
X0009546Y0142050D01*
X0009546Y0144302D01*
X0010297Y0145053D01*
X0012549Y0143551D02*
X0014050Y0145053D01*
X0016046Y0144551D02*
X0020550Y0144551D01*
X0020550Y0143050D02*
X0020550Y0146053D01*
X0017547Y0143050D02*
X0016046Y0144551D01*
D11*
X0170550Y0304300D03*
D12*
X0062194Y0088237D02*
X0016406Y0088237D01*
X0016406Y0105363D01*
X0062194Y0105363D01*
X0062194Y0088237D01*
X0064202Y0112076D02*
X0039398Y0112076D01*
X0039398Y0121524D01*
X0064202Y0121524D01*
X0064202Y0112076D01*
X0079800Y0103300D02*
X0079800Y0095371D01*
X0083300Y0087300D02*
X0100300Y0087300D01*
X0103800Y0095253D02*
X0103800Y0103300D01*
X0100300Y0111300D02*
X0083300Y0111300D01*
X0084800Y0099300D02*
X0084802Y0099472D01*
X0084808Y0099643D01*
X0084819Y0099815D01*
X0084834Y0099986D01*
X0084853Y0100157D01*
X0084876Y0100327D01*
X0084903Y0100497D01*
X0084935Y0100666D01*
X0084970Y0100834D01*
X0085010Y0101001D01*
X0085054Y0101167D01*
X0085101Y0101332D01*
X0085153Y0101496D01*
X0085209Y0101658D01*
X0085269Y0101819D01*
X0085333Y0101979D01*
X0085401Y0102137D01*
X0085472Y0102293D01*
X0085547Y0102447D01*
X0085627Y0102600D01*
X0085709Y0102750D01*
X0085796Y0102899D01*
X0085886Y0103045D01*
X0085980Y0103189D01*
X0086077Y0103331D01*
X0086178Y0103470D01*
X0086282Y0103607D01*
X0086389Y0103741D01*
X0086500Y0103872D01*
X0086613Y0104001D01*
X0086730Y0104127D01*
X0086850Y0104250D01*
X0086973Y0104370D01*
X0087099Y0104487D01*
X0087228Y0104600D01*
X0087359Y0104711D01*
X0087493Y0104818D01*
X0087630Y0104922D01*
X0087769Y0105023D01*
X0087911Y0105120D01*
X0088055Y0105214D01*
X0088201Y0105304D01*
X0088350Y0105391D01*
X0088500Y0105473D01*
X0088653Y0105553D01*
X0088807Y0105628D01*
X0088963Y0105699D01*
X0089121Y0105767D01*
X0089281Y0105831D01*
X0089442Y0105891D01*
X0089604Y0105947D01*
X0089768Y0105999D01*
X0089933Y0106046D01*
X0090099Y0106090D01*
X0090266Y0106130D01*
X0090434Y0106165D01*
X0090603Y0106197D01*
X0090773Y0106224D01*
X0090943Y0106247D01*
X0091114Y0106266D01*
X0091285Y0106281D01*
X0091457Y0106292D01*
X0091628Y0106298D01*
X0091800Y0106300D01*
X0091972Y0106298D01*
X0092143Y0106292D01*
X0092315Y0106281D01*
X0092486Y0106266D01*
X0092657Y0106247D01*
X0092827Y0106224D01*
X0092997Y0106197D01*
X0093166Y0106165D01*
X0093334Y0106130D01*
X0093501Y0106090D01*
X0093667Y0106046D01*
X0093832Y0105999D01*
X0093996Y0105947D01*
X0094158Y0105891D01*
X0094319Y0105831D01*
X0094479Y0105767D01*
X0094637Y0105699D01*
X0094793Y0105628D01*
X0094947Y0105553D01*
X0095100Y0105473D01*
X0095250Y0105391D01*
X0095399Y0105304D01*
X0095545Y0105214D01*
X0095689Y0105120D01*
X0095831Y0105023D01*
X0095970Y0104922D01*
X0096107Y0104818D01*
X0096241Y0104711D01*
X0096372Y0104600D01*
X0096501Y0104487D01*
X0096627Y0104370D01*
X0096750Y0104250D01*
X0096870Y0104127D01*
X0096987Y0104001D01*
X0097100Y0103872D01*
X0097211Y0103741D01*
X0097318Y0103607D01*
X0097422Y0103470D01*
X0097523Y0103331D01*
X0097620Y0103189D01*
X0097714Y0103045D01*
X0097804Y0102899D01*
X0097891Y0102750D01*
X0097973Y0102600D01*
X0098053Y0102447D01*
X0098128Y0102293D01*
X0098199Y0102137D01*
X0098267Y0101979D01*
X0098331Y0101819D01*
X0098391Y0101658D01*
X0098447Y0101496D01*
X0098499Y0101332D01*
X0098546Y0101167D01*
X0098590Y0101001D01*
X0098630Y0100834D01*
X0098665Y0100666D01*
X0098697Y0100497D01*
X0098724Y0100327D01*
X0098747Y0100157D01*
X0098766Y0099986D01*
X0098781Y0099815D01*
X0098792Y0099643D01*
X0098798Y0099472D01*
X0098800Y0099300D01*
X0098798Y0099128D01*
X0098792Y0098957D01*
X0098781Y0098785D01*
X0098766Y0098614D01*
X0098747Y0098443D01*
X0098724Y0098273D01*
X0098697Y0098103D01*
X0098665Y0097934D01*
X0098630Y0097766D01*
X0098590Y0097599D01*
X0098546Y0097433D01*
X0098499Y0097268D01*
X0098447Y0097104D01*
X0098391Y0096942D01*
X0098331Y0096781D01*
X0098267Y0096621D01*
X0098199Y0096463D01*
X0098128Y0096307D01*
X0098053Y0096153D01*
X0097973Y0096000D01*
X0097891Y0095850D01*
X0097804Y0095701D01*
X0097714Y0095555D01*
X0097620Y0095411D01*
X0097523Y0095269D01*
X0097422Y0095130D01*
X0097318Y0094993D01*
X0097211Y0094859D01*
X0097100Y0094728D01*
X0096987Y0094599D01*
X0096870Y0094473D01*
X0096750Y0094350D01*
X0096627Y0094230D01*
X0096501Y0094113D01*
X0096372Y0094000D01*
X0096241Y0093889D01*
X0096107Y0093782D01*
X0095970Y0093678D01*
X0095831Y0093577D01*
X0095689Y0093480D01*
X0095545Y0093386D01*
X0095399Y0093296D01*
X0095250Y0093209D01*
X0095100Y0093127D01*
X0094947Y0093047D01*
X0094793Y0092972D01*
X0094637Y0092901D01*
X0094479Y0092833D01*
X0094319Y0092769D01*
X0094158Y0092709D01*
X0093996Y0092653D01*
X0093832Y0092601D01*
X0093667Y0092554D01*
X0093501Y0092510D01*
X0093334Y0092470D01*
X0093166Y0092435D01*
X0092997Y0092403D01*
X0092827Y0092376D01*
X0092657Y0092353D01*
X0092486Y0092334D01*
X0092315Y0092319D01*
X0092143Y0092308D01*
X0091972Y0092302D01*
X0091800Y0092300D01*
X0091628Y0092302D01*
X0091457Y0092308D01*
X0091285Y0092319D01*
X0091114Y0092334D01*
X0090943Y0092353D01*
X0090773Y0092376D01*
X0090603Y0092403D01*
X0090434Y0092435D01*
X0090266Y0092470D01*
X0090099Y0092510D01*
X0089933Y0092554D01*
X0089768Y0092601D01*
X0089604Y0092653D01*
X0089442Y0092709D01*
X0089281Y0092769D01*
X0089121Y0092833D01*
X0088963Y0092901D01*
X0088807Y0092972D01*
X0088653Y0093047D01*
X0088500Y0093127D01*
X0088350Y0093209D01*
X0088201Y0093296D01*
X0088055Y0093386D01*
X0087911Y0093480D01*
X0087769Y0093577D01*
X0087630Y0093678D01*
X0087493Y0093782D01*
X0087359Y0093889D01*
X0087228Y0094000D01*
X0087099Y0094113D01*
X0086973Y0094230D01*
X0086850Y0094350D01*
X0086730Y0094473D01*
X0086613Y0094599D01*
X0086500Y0094728D01*
X0086389Y0094859D01*
X0086282Y0094993D01*
X0086178Y0095130D01*
X0086077Y0095269D01*
X0085980Y0095411D01*
X0085886Y0095555D01*
X0085796Y0095701D01*
X0085709Y0095850D01*
X0085627Y0096000D01*
X0085547Y0096153D01*
X0085472Y0096307D01*
X0085401Y0096463D01*
X0085333Y0096621D01*
X0085269Y0096781D01*
X0085209Y0096942D01*
X0085153Y0097104D01*
X0085101Y0097268D01*
X0085054Y0097433D01*
X0085010Y0097599D01*
X0084970Y0097766D01*
X0084935Y0097934D01*
X0084903Y0098103D01*
X0084876Y0098273D01*
X0084853Y0098443D01*
X0084834Y0098614D01*
X0084819Y0098785D01*
X0084808Y0098957D01*
X0084802Y0099128D01*
X0084800Y0099300D01*
X0119398Y0112076D02*
X0144202Y0112076D01*
X0144202Y0121524D01*
X0119398Y0121524D01*
X0119398Y0112076D01*
X0151800Y0104300D02*
X0151800Y0089300D01*
X0159576Y0079398D02*
X0159576Y0104202D01*
X0169024Y0104202D01*
X0169024Y0079398D01*
X0159576Y0079398D01*
X0159576Y0139398D02*
X0159576Y0164202D01*
X0169024Y0164202D01*
X0169024Y0139398D01*
X0159576Y0139398D01*
X0159576Y0199398D02*
X0159576Y0224202D01*
X0169024Y0224202D01*
X0169024Y0199398D01*
X0159576Y0199398D01*
X0024024Y0199398D02*
X0024024Y0224202D01*
X0014576Y0224202D01*
X0014576Y0199398D01*
X0024024Y0199398D01*
X0024024Y0164202D02*
X0014576Y0164202D01*
X0014576Y0139398D01*
X0024024Y0139398D01*
X0024024Y0164202D01*
X0024024Y0259398D02*
X0014576Y0259398D01*
X0014576Y0284202D01*
X0024024Y0284202D01*
X0024024Y0259398D01*
D13*
X0032500Y0343000D02*
X0150500Y0343000D01*
X0150500Y0126700D01*
X0032500Y0126700D01*
X0032500Y0343000D01*
D14*
X0159300Y0059300D03*
D15*
X0152129Y0104609D02*
X0151409Y0104069D01*
X0151410Y0104070D02*
X0151229Y0104303D01*
X0151043Y0104531D01*
X0150851Y0104755D01*
X0150654Y0104974D01*
X0150452Y0105188D01*
X0150244Y0105397D01*
X0150031Y0105600D01*
X0149814Y0105799D01*
X0149591Y0105992D01*
X0149364Y0106180D01*
X0149133Y0106362D01*
X0148897Y0106539D01*
X0148656Y0106709D01*
X0148412Y0106874D01*
X0148164Y0107032D01*
X0147912Y0107185D01*
X0147656Y0107331D01*
X0147397Y0107471D01*
X0147134Y0107605D01*
X0146869Y0107732D01*
X0146600Y0107853D01*
X0146328Y0107967D01*
X0146054Y0108074D01*
X0145777Y0108175D01*
X0145498Y0108269D01*
X0145216Y0108356D01*
X0144933Y0108436D01*
X0144647Y0108509D01*
X0144360Y0108575D01*
X0144071Y0108634D01*
X0143781Y0108686D01*
X0143490Y0108731D01*
X0143198Y0108769D01*
X0142905Y0108799D01*
X0142611Y0108823D01*
X0142317Y0108839D01*
X0142023Y0108848D01*
X0141728Y0108850D01*
X0141433Y0108844D01*
X0141139Y0108832D01*
X0140845Y0108812D01*
X0140552Y0108785D01*
X0140259Y0108751D01*
X0139967Y0108710D01*
X0139677Y0108661D01*
X0139387Y0108606D01*
X0139100Y0108544D01*
X0138813Y0108474D01*
X0138529Y0108397D01*
X0138246Y0108314D01*
X0137966Y0108224D01*
X0137688Y0108127D01*
X0137412Y0108023D01*
X0137139Y0107912D01*
X0136869Y0107795D01*
X0136601Y0107671D01*
X0136337Y0107541D01*
X0136076Y0107404D01*
X0135819Y0107261D01*
X0135565Y0107111D01*
X0135314Y0106956D01*
X0135068Y0106794D01*
X0134826Y0106627D01*
X0134588Y0106453D01*
X0134354Y0106274D01*
X0134124Y0106089D01*
X0133900Y0105899D01*
X0133679Y0105703D01*
X0133464Y0105502D01*
X0133254Y0105295D01*
X0133049Y0105084D01*
X0132849Y0104867D01*
X0132654Y0104646D01*
X0132465Y0104420D01*
X0132282Y0104190D01*
X0132104Y0103955D01*
X0131932Y0103715D01*
X0131766Y0103472D01*
X0131606Y0103225D01*
X0131452Y0102974D01*
X0131304Y0102719D01*
X0131162Y0102460D01*
X0131027Y0102199D01*
X0130898Y0101934D01*
X0130776Y0101666D01*
X0130660Y0101395D01*
X0130551Y0101121D01*
X0130449Y0100845D01*
X0130354Y0100566D01*
X0130265Y0100285D01*
X0130183Y0100002D01*
X0130108Y0099717D01*
X0130041Y0099430D01*
X0129980Y0099142D01*
X0129926Y0098852D01*
X0129879Y0098561D01*
X0129840Y0098269D01*
X0129808Y0097977D01*
X0129782Y0097683D01*
X0129764Y0097389D01*
X0129754Y0097095D01*
X0129750Y0096800D01*
X0129754Y0096505D01*
X0129764Y0096211D01*
X0129782Y0095917D01*
X0129808Y0095623D01*
X0129840Y0095331D01*
X0129879Y0095039D01*
X0129926Y0094748D01*
X0129980Y0094458D01*
X0130041Y0094170D01*
X0130108Y0093883D01*
X0130183Y0093598D01*
X0130265Y0093315D01*
X0130354Y0093034D01*
X0130449Y0092755D01*
X0130551Y0092479D01*
X0130660Y0092205D01*
X0130776Y0091934D01*
X0130898Y0091666D01*
X0131027Y0091401D01*
X0131162Y0091140D01*
X0131304Y0090881D01*
X0131452Y0090626D01*
X0131606Y0090375D01*
X0131766Y0090128D01*
X0131932Y0089885D01*
X0132104Y0089645D01*
X0132282Y0089410D01*
X0132465Y0089180D01*
X0132654Y0088954D01*
X0132849Y0088733D01*
X0133049Y0088516D01*
X0133254Y0088305D01*
X0133464Y0088098D01*
X0133679Y0087897D01*
X0133900Y0087701D01*
X0134124Y0087511D01*
X0134354Y0087326D01*
X0134588Y0087147D01*
X0134826Y0086973D01*
X0135068Y0086806D01*
X0135314Y0086644D01*
X0135565Y0086489D01*
X0135819Y0086339D01*
X0136076Y0086196D01*
X0136337Y0086059D01*
X0136601Y0085929D01*
X0136869Y0085805D01*
X0137139Y0085688D01*
X0137412Y0085577D01*
X0137688Y0085473D01*
X0137966Y0085376D01*
X0138246Y0085286D01*
X0138529Y0085203D01*
X0138813Y0085126D01*
X0139100Y0085056D01*
X0139387Y0084994D01*
X0139677Y0084939D01*
X0139967Y0084890D01*
X0140259Y0084849D01*
X0140552Y0084815D01*
X0140845Y0084788D01*
X0141139Y0084768D01*
X0141433Y0084756D01*
X0141728Y0084750D01*
X0142023Y0084752D01*
X0142317Y0084761D01*
X0142611Y0084777D01*
X0142905Y0084801D01*
X0143198Y0084831D01*
X0143490Y0084869D01*
X0143781Y0084914D01*
X0144071Y0084966D01*
X0144360Y0085025D01*
X0144647Y0085091D01*
X0144933Y0085164D01*
X0145216Y0085244D01*
X0145498Y0085331D01*
X0145777Y0085425D01*
X0146054Y0085526D01*
X0146328Y0085633D01*
X0146600Y0085747D01*
X0146869Y0085868D01*
X0147134Y0085995D01*
X0147397Y0086129D01*
X0147656Y0086269D01*
X0147912Y0086415D01*
X0148164Y0086568D01*
X0148412Y0086726D01*
X0148656Y0086891D01*
X0148897Y0087061D01*
X0149133Y0087238D01*
X0149364Y0087420D01*
X0149591Y0087608D01*
X0149814Y0087801D01*
X0150031Y0088000D01*
X0150244Y0088203D01*
X0150452Y0088412D01*
X0150654Y0088626D01*
X0150851Y0088845D01*
X0151043Y0089069D01*
X0151229Y0089297D01*
X0151410Y0089530D01*
X0152129Y0088991D01*
X0152130Y0088990D01*
X0151936Y0088740D01*
X0151736Y0088494D01*
X0151530Y0088254D01*
X0151318Y0088019D01*
X0151100Y0087789D01*
X0150877Y0087564D01*
X0150649Y0087345D01*
X0150415Y0087131D01*
X0150176Y0086923D01*
X0149932Y0086721D01*
X0149683Y0086526D01*
X0149429Y0086336D01*
X0149171Y0086153D01*
X0148909Y0085976D01*
X0148642Y0085805D01*
X0148371Y0085641D01*
X0148096Y0085484D01*
X0147818Y0085333D01*
X0147535Y0085189D01*
X0147250Y0085053D01*
X0146961Y0084923D01*
X0146669Y0084800D01*
X0146374Y0084685D01*
X0146077Y0084577D01*
X0145776Y0084476D01*
X0145474Y0084382D01*
X0145169Y0084296D01*
X0144862Y0084217D01*
X0144554Y0084146D01*
X0144244Y0084083D01*
X0143932Y0084027D01*
X0143619Y0083978D01*
X0143305Y0083938D01*
X0142990Y0083905D01*
X0142674Y0083880D01*
X0142358Y0083862D01*
X0142042Y0083852D01*
X0141725Y0083850D01*
X0141408Y0083856D01*
X0141092Y0083869D01*
X0140776Y0083891D01*
X0140461Y0083919D01*
X0140146Y0083956D01*
X0139833Y0084000D01*
X0139520Y0084052D01*
X0139209Y0084112D01*
X0138900Y0084179D01*
X0138592Y0084254D01*
X0138286Y0084336D01*
X0137983Y0084425D01*
X0137681Y0084522D01*
X0137382Y0084627D01*
X0137086Y0084739D01*
X0136792Y0084857D01*
X0136502Y0084983D01*
X0136215Y0085116D01*
X0135930Y0085257D01*
X0135650Y0085404D01*
X0135373Y0085557D01*
X0135100Y0085718D01*
X0134831Y0085885D01*
X0134566Y0086059D01*
X0134306Y0086239D01*
X0134050Y0086425D01*
X0133799Y0086618D01*
X0133552Y0086816D01*
X0133310Y0087021D01*
X0133074Y0087231D01*
X0132842Y0087448D01*
X0132617Y0087670D01*
X0132396Y0087897D01*
X0132181Y0088129D01*
X0131972Y0088367D01*
X0131769Y0088610D01*
X0131571Y0088858D01*
X0131380Y0089110D01*
X0131195Y0089367D01*
X0131017Y0089629D01*
X0130845Y0089895D01*
X0130679Y0090164D01*
X0130520Y0090438D01*
X0130368Y0090716D01*
X0130223Y0090997D01*
X0130084Y0091282D01*
X0129953Y0091570D01*
X0129829Y0091862D01*
X0129711Y0092156D01*
X0129601Y0092453D01*
X0129499Y0092752D01*
X0129404Y0093054D01*
X0129316Y0093358D01*
X0129235Y0093665D01*
X0129162Y0093973D01*
X0129097Y0094283D01*
X0129039Y0094594D01*
X0128989Y0094907D01*
X0128947Y0095221D01*
X0128912Y0095535D01*
X0128885Y0095851D01*
X0128865Y0096167D01*
X0128854Y0096483D01*
X0128850Y0096800D01*
X0128854Y0097117D01*
X0128865Y0097433D01*
X0128885Y0097749D01*
X0128912Y0098065D01*
X0128947Y0098379D01*
X0128989Y0098693D01*
X0129039Y0099006D01*
X0129097Y0099317D01*
X0129162Y0099627D01*
X0129235Y0099935D01*
X0129316Y0100242D01*
X0129404Y0100546D01*
X0129499Y0100848D01*
X0129601Y0101147D01*
X0129711Y0101444D01*
X0129829Y0101738D01*
X0129953Y0102030D01*
X0130084Y0102318D01*
X0130223Y0102603D01*
X0130368Y0102884D01*
X0130520Y0103162D01*
X0130679Y0103436D01*
X0130845Y0103705D01*
X0131017Y0103971D01*
X0131195Y0104233D01*
X0131380Y0104490D01*
X0131571Y0104742D01*
X0131769Y0104990D01*
X0131972Y0105233D01*
X0132181Y0105471D01*
X0132396Y0105703D01*
X0132617Y0105930D01*
X0132842Y0106152D01*
X0133074Y0106369D01*
X0133310Y0106579D01*
X0133552Y0106784D01*
X0133799Y0106982D01*
X0134050Y0107175D01*
X0134306Y0107361D01*
X0134566Y0107541D01*
X0134831Y0107715D01*
X0135100Y0107882D01*
X0135373Y0108043D01*
X0135650Y0108196D01*
X0135930Y0108343D01*
X0136215Y0108484D01*
X0136502Y0108617D01*
X0136792Y0108743D01*
X0137086Y0108861D01*
X0137382Y0108973D01*
X0137681Y0109078D01*
X0137983Y0109175D01*
X0138286Y0109264D01*
X0138592Y0109346D01*
X0138900Y0109421D01*
X0139209Y0109488D01*
X0139520Y0109548D01*
X0139833Y0109600D01*
X0140146Y0109644D01*
X0140461Y0109681D01*
X0140776Y0109709D01*
X0141092Y0109731D01*
X0141408Y0109744D01*
X0141725Y0109750D01*
X0142042Y0109748D01*
X0142358Y0109738D01*
X0142674Y0109720D01*
X0142990Y0109695D01*
X0143305Y0109662D01*
X0143619Y0109622D01*
X0143932Y0109573D01*
X0144244Y0109517D01*
X0144554Y0109454D01*
X0144862Y0109383D01*
X0145169Y0109304D01*
X0145474Y0109218D01*
X0145776Y0109124D01*
X0146077Y0109023D01*
X0146374Y0108915D01*
X0146669Y0108800D01*
X0146961Y0108677D01*
X0147250Y0108547D01*
X0147535Y0108411D01*
X0147818Y0108267D01*
X0148096Y0108116D01*
X0148371Y0107959D01*
X0148642Y0107795D01*
X0148909Y0107624D01*
X0149171Y0107447D01*
X0149429Y0107264D01*
X0149683Y0107074D01*
X0149932Y0106879D01*
X0150176Y0106677D01*
X0150415Y0106469D01*
X0150649Y0106255D01*
X0150877Y0106036D01*
X0151100Y0105811D01*
X0151318Y0105581D01*
X0151530Y0105346D01*
X0151736Y0105106D01*
X0151936Y0104860D01*
X0152130Y0104610D01*
X0152055Y0104554D01*
X0151862Y0104802D01*
X0151663Y0105046D01*
X0151459Y0105284D01*
X0151249Y0105518D01*
X0151033Y0105746D01*
X0150811Y0105969D01*
X0150584Y0106187D01*
X0150352Y0106399D01*
X0150115Y0106605D01*
X0149873Y0106806D01*
X0149625Y0107000D01*
X0149374Y0107188D01*
X0149117Y0107370D01*
X0148857Y0107546D01*
X0148592Y0107715D01*
X0148323Y0107878D01*
X0148050Y0108034D01*
X0147774Y0108184D01*
X0147494Y0108326D01*
X0147210Y0108462D01*
X0146923Y0108591D01*
X0146633Y0108713D01*
X0146341Y0108827D01*
X0146045Y0108935D01*
X0145747Y0109035D01*
X0145447Y0109128D01*
X0145144Y0109213D01*
X0144840Y0109291D01*
X0144534Y0109362D01*
X0144226Y0109425D01*
X0143916Y0109481D01*
X0143606Y0109529D01*
X0143294Y0109569D01*
X0142981Y0109602D01*
X0142668Y0109627D01*
X0142354Y0109644D01*
X0142040Y0109654D01*
X0141725Y0109656D01*
X0141411Y0109650D01*
X0141097Y0109637D01*
X0140783Y0109616D01*
X0140470Y0109587D01*
X0140158Y0109551D01*
X0139847Y0109507D01*
X0139537Y0109455D01*
X0139228Y0109396D01*
X0138921Y0109329D01*
X0138615Y0109255D01*
X0138312Y0109174D01*
X0138010Y0109085D01*
X0137711Y0108988D01*
X0137414Y0108885D01*
X0137120Y0108774D01*
X0136829Y0108656D01*
X0136540Y0108531D01*
X0136255Y0108399D01*
X0135973Y0108260D01*
X0135695Y0108114D01*
X0135420Y0107961D01*
X0135149Y0107802D01*
X0134882Y0107636D01*
X0134619Y0107463D01*
X0134360Y0107285D01*
X0134106Y0107100D01*
X0133857Y0106908D01*
X0133612Y0106711D01*
X0133372Y0106508D01*
X0133137Y0106299D01*
X0132907Y0106084D01*
X0132683Y0105864D01*
X0132464Y0105639D01*
X0132251Y0105408D01*
X0132043Y0105172D01*
X0131841Y0104930D01*
X0131646Y0104685D01*
X0131456Y0104434D01*
X0131272Y0104179D01*
X0131095Y0103919D01*
X0130924Y0103655D01*
X0130760Y0103387D01*
X0130602Y0103115D01*
X0130451Y0102840D01*
X0130307Y0102560D01*
X0130169Y0102278D01*
X0130039Y0101992D01*
X0129915Y0101703D01*
X0129799Y0101410D01*
X0129690Y0101116D01*
X0129588Y0100818D01*
X0129494Y0100519D01*
X0129406Y0100216D01*
X0129326Y0099912D01*
X0129254Y0099607D01*
X0129189Y0099299D01*
X0129132Y0098990D01*
X0129082Y0098679D01*
X0129040Y0098368D01*
X0129005Y0098055D01*
X0128979Y0097742D01*
X0128959Y0097428D01*
X0128948Y0097114D01*
X0128944Y0096800D01*
X0128948Y0096486D01*
X0128959Y0096172D01*
X0128979Y0095858D01*
X0129005Y0095545D01*
X0129040Y0095232D01*
X0129082Y0094921D01*
X0129132Y0094610D01*
X0129189Y0094301D01*
X0129254Y0093993D01*
X0129326Y0093688D01*
X0129406Y0093384D01*
X0129494Y0093081D01*
X0129588Y0092782D01*
X0129690Y0092484D01*
X0129799Y0092190D01*
X0129915Y0091897D01*
X0130039Y0091608D01*
X0130169Y0091322D01*
X0130307Y0091040D01*
X0130451Y0090760D01*
X0130602Y0090485D01*
X0130760Y0090213D01*
X0130924Y0089945D01*
X0131095Y0089681D01*
X0131272Y0089421D01*
X0131456Y0089166D01*
X0131646Y0088915D01*
X0131841Y0088670D01*
X0132043Y0088428D01*
X0132251Y0088192D01*
X0132464Y0087961D01*
X0132683Y0087736D01*
X0132907Y0087516D01*
X0133137Y0087301D01*
X0133372Y0087092D01*
X0133612Y0086889D01*
X0133857Y0086692D01*
X0134106Y0086500D01*
X0134360Y0086315D01*
X0134619Y0086137D01*
X0134882Y0085964D01*
X0135149Y0085798D01*
X0135420Y0085639D01*
X0135695Y0085486D01*
X0135973Y0085340D01*
X0136255Y0085201D01*
X0136540Y0085069D01*
X0136829Y0084944D01*
X0137120Y0084826D01*
X0137414Y0084715D01*
X0137711Y0084612D01*
X0138010Y0084515D01*
X0138312Y0084426D01*
X0138615Y0084345D01*
X0138921Y0084271D01*
X0139228Y0084204D01*
X0139537Y0084145D01*
X0139847Y0084093D01*
X0140158Y0084049D01*
X0140470Y0084013D01*
X0140783Y0083984D01*
X0141097Y0083963D01*
X0141411Y0083950D01*
X0141725Y0083944D01*
X0142040Y0083946D01*
X0142354Y0083956D01*
X0142668Y0083973D01*
X0142981Y0083998D01*
X0143294Y0084031D01*
X0143606Y0084071D01*
X0143916Y0084119D01*
X0144226Y0084175D01*
X0144534Y0084238D01*
X0144840Y0084309D01*
X0145144Y0084387D01*
X0145447Y0084472D01*
X0145747Y0084565D01*
X0146045Y0084665D01*
X0146341Y0084773D01*
X0146633Y0084887D01*
X0146923Y0085009D01*
X0147210Y0085138D01*
X0147494Y0085274D01*
X0147774Y0085416D01*
X0148050Y0085566D01*
X0148323Y0085722D01*
X0148592Y0085885D01*
X0148857Y0086054D01*
X0149117Y0086230D01*
X0149374Y0086412D01*
X0149625Y0086600D01*
X0149873Y0086794D01*
X0150115Y0086995D01*
X0150352Y0087201D01*
X0150584Y0087413D01*
X0150811Y0087631D01*
X0151033Y0087854D01*
X0151249Y0088082D01*
X0151459Y0088316D01*
X0151663Y0088554D01*
X0151862Y0088798D01*
X0152055Y0089046D01*
X0151980Y0089103D01*
X0151788Y0088856D01*
X0151591Y0088614D01*
X0151388Y0088377D01*
X0151179Y0088146D01*
X0150965Y0087919D01*
X0150745Y0087697D01*
X0150520Y0087481D01*
X0150289Y0087271D01*
X0150054Y0087066D01*
X0149813Y0086867D01*
X0149568Y0086674D01*
X0149318Y0086488D01*
X0149064Y0086307D01*
X0148805Y0086132D01*
X0148542Y0085964D01*
X0148275Y0085803D01*
X0148004Y0085648D01*
X0147730Y0085499D01*
X0147452Y0085358D01*
X0147170Y0085223D01*
X0146886Y0085095D01*
X0146598Y0084974D01*
X0146307Y0084860D01*
X0146014Y0084754D01*
X0145718Y0084654D01*
X0145420Y0084562D01*
X0145120Y0084477D01*
X0144817Y0084400D01*
X0144513Y0084330D01*
X0144208Y0084267D01*
X0143901Y0084212D01*
X0143592Y0084164D01*
X0143283Y0084124D01*
X0142972Y0084092D01*
X0142661Y0084067D01*
X0142350Y0084050D01*
X0142038Y0084040D01*
X0141726Y0084038D01*
X0141414Y0084044D01*
X0141102Y0084057D01*
X0140791Y0084078D01*
X0140480Y0084106D01*
X0140170Y0084143D01*
X0139861Y0084186D01*
X0139553Y0084237D01*
X0139246Y0084296D01*
X0138942Y0084362D01*
X0138638Y0084436D01*
X0138337Y0084517D01*
X0138038Y0084605D01*
X0137741Y0084701D01*
X0137446Y0084804D01*
X0137154Y0084914D01*
X0136865Y0085031D01*
X0136578Y0085155D01*
X0136295Y0085286D01*
X0136015Y0085424D01*
X0135739Y0085569D01*
X0135466Y0085721D01*
X0135197Y0085879D01*
X0134932Y0086044D01*
X0134671Y0086215D01*
X0134415Y0086392D01*
X0134162Y0086576D01*
X0133915Y0086766D01*
X0133672Y0086961D01*
X0133433Y0087163D01*
X0133200Y0087371D01*
X0132972Y0087584D01*
X0132750Y0087802D01*
X0132532Y0088026D01*
X0132321Y0088255D01*
X0132115Y0088490D01*
X0131914Y0088729D01*
X0131720Y0088973D01*
X0131532Y0089222D01*
X0131349Y0089475D01*
X0131173Y0089733D01*
X0131004Y0089995D01*
X0130841Y0090261D01*
X0130684Y0090531D01*
X0130534Y0090805D01*
X0130391Y0091082D01*
X0130254Y0091362D01*
X0130125Y0091646D01*
X0130002Y0091933D01*
X0129887Y0092223D01*
X0129779Y0092516D01*
X0129677Y0092811D01*
X0129583Y0093109D01*
X0129497Y0093409D01*
X0129418Y0093710D01*
X0129346Y0094014D01*
X0129281Y0094319D01*
X0129224Y0094626D01*
X0129175Y0094934D01*
X0129133Y0095244D01*
X0129099Y0095554D01*
X0129072Y0095865D01*
X0129053Y0096176D01*
X0129042Y0096488D01*
X0129038Y0096800D01*
X0129042Y0097112D01*
X0129053Y0097424D01*
X0129072Y0097735D01*
X0129099Y0098046D01*
X0129133Y0098356D01*
X0129175Y0098666D01*
X0129224Y0098974D01*
X0129281Y0099281D01*
X0129346Y0099586D01*
X0129418Y0099890D01*
X0129497Y0100191D01*
X0129583Y0100491D01*
X0129677Y0100789D01*
X0129779Y0101084D01*
X0129887Y0101377D01*
X0130002Y0101667D01*
X0130125Y0101954D01*
X0130254Y0102238D01*
X0130391Y0102518D01*
X0130534Y0102795D01*
X0130684Y0103069D01*
X0130841Y0103339D01*
X0131004Y0103605D01*
X0131173Y0103867D01*
X0131349Y0104125D01*
X0131532Y0104378D01*
X0131720Y0104627D01*
X0131914Y0104871D01*
X0132115Y0105110D01*
X0132321Y0105345D01*
X0132532Y0105574D01*
X0132750Y0105798D01*
X0132972Y0106016D01*
X0133200Y0106229D01*
X0133433Y0106437D01*
X0133672Y0106639D01*
X0133915Y0106834D01*
X0134162Y0107024D01*
X0134415Y0107208D01*
X0134671Y0107385D01*
X0134932Y0107556D01*
X0135197Y0107721D01*
X0135466Y0107879D01*
X0135739Y0108031D01*
X0136015Y0108176D01*
X0136295Y0108314D01*
X0136578Y0108445D01*
X0136865Y0108569D01*
X0137154Y0108686D01*
X0137446Y0108796D01*
X0137741Y0108899D01*
X0138038Y0108995D01*
X0138337Y0109083D01*
X0138638Y0109164D01*
X0138942Y0109238D01*
X0139246Y0109304D01*
X0139553Y0109363D01*
X0139861Y0109414D01*
X0140170Y0109457D01*
X0140480Y0109494D01*
X0140791Y0109522D01*
X0141102Y0109543D01*
X0141414Y0109556D01*
X0141726Y0109562D01*
X0142038Y0109560D01*
X0142350Y0109550D01*
X0142661Y0109533D01*
X0142972Y0109508D01*
X0143283Y0109476D01*
X0143592Y0109436D01*
X0143901Y0109388D01*
X0144208Y0109333D01*
X0144513Y0109270D01*
X0144817Y0109200D01*
X0145120Y0109123D01*
X0145420Y0109038D01*
X0145718Y0108946D01*
X0146014Y0108846D01*
X0146307Y0108740D01*
X0146598Y0108626D01*
X0146886Y0108505D01*
X0147170Y0108377D01*
X0147452Y0108242D01*
X0147730Y0108101D01*
X0148004Y0107952D01*
X0148275Y0107797D01*
X0148542Y0107636D01*
X0148805Y0107468D01*
X0149064Y0107293D01*
X0149318Y0107112D01*
X0149568Y0106926D01*
X0149813Y0106733D01*
X0150054Y0106534D01*
X0150289Y0106329D01*
X0150520Y0106119D01*
X0150745Y0105903D01*
X0150965Y0105681D01*
X0151179Y0105454D01*
X0151388Y0105223D01*
X0151591Y0104986D01*
X0151788Y0104744D01*
X0151980Y0104497D01*
X0151904Y0104441D01*
X0151714Y0104686D01*
X0151519Y0104926D01*
X0151317Y0105161D01*
X0151110Y0105391D01*
X0150897Y0105616D01*
X0150679Y0105836D01*
X0150455Y0106050D01*
X0150226Y0106259D01*
X0149993Y0106462D01*
X0149754Y0106660D01*
X0149511Y0106851D01*
X0149262Y0107037D01*
X0149010Y0107216D01*
X0148753Y0107389D01*
X0148492Y0107556D01*
X0148227Y0107717D01*
X0147958Y0107870D01*
X0147686Y0108018D01*
X0147410Y0108158D01*
X0147130Y0108292D01*
X0146848Y0108419D01*
X0146562Y0108539D01*
X0146274Y0108652D01*
X0145983Y0108758D01*
X0145689Y0108856D01*
X0145393Y0108948D01*
X0145095Y0109032D01*
X0144795Y0109109D01*
X0144493Y0109178D01*
X0144190Y0109241D01*
X0143885Y0109295D01*
X0143579Y0109343D01*
X0143271Y0109382D01*
X0142963Y0109414D01*
X0142655Y0109439D01*
X0142345Y0109456D01*
X0142036Y0109466D01*
X0141726Y0109468D01*
X0141416Y0109462D01*
X0141107Y0109449D01*
X0140798Y0109428D01*
X0140489Y0109400D01*
X0140182Y0109364D01*
X0139875Y0109321D01*
X0139569Y0109270D01*
X0139265Y0109212D01*
X0138962Y0109146D01*
X0138661Y0109073D01*
X0138362Y0108993D01*
X0138065Y0108905D01*
X0137770Y0108810D01*
X0137478Y0108708D01*
X0137188Y0108599D01*
X0136901Y0108482D01*
X0136617Y0108359D01*
X0136336Y0108229D01*
X0136058Y0108092D01*
X0135784Y0107948D01*
X0135513Y0107798D01*
X0135246Y0107641D01*
X0134983Y0107477D01*
X0134724Y0107307D01*
X0134469Y0107131D01*
X0134218Y0106949D01*
X0133973Y0106760D01*
X0133731Y0106566D01*
X0133495Y0106366D01*
X0133264Y0106160D01*
X0133037Y0105948D01*
X0132816Y0105731D01*
X0132601Y0105509D01*
X0132390Y0105282D01*
X0132186Y0105049D01*
X0131987Y0104811D01*
X0131794Y0104569D01*
X0131607Y0104322D01*
X0131426Y0104071D01*
X0131252Y0103815D01*
X0131083Y0103555D01*
X0130921Y0103291D01*
X0130766Y0103023D01*
X0130617Y0102751D01*
X0130475Y0102476D01*
X0130339Y0102197D01*
X0130211Y0101916D01*
X0130089Y0101631D01*
X0129975Y0101343D01*
X0129867Y0101052D01*
X0129767Y0100759D01*
X0129673Y0100464D01*
X0129587Y0100166D01*
X0129509Y0099867D01*
X0129438Y0099565D01*
X0129374Y0099262D01*
X0129317Y0098958D01*
X0129268Y0098652D01*
X0129227Y0098345D01*
X0129193Y0098037D01*
X0129166Y0097728D01*
X0129147Y0097419D01*
X0129136Y0097110D01*
X0129132Y0096800D01*
X0129136Y0096490D01*
X0129147Y0096181D01*
X0129166Y0095872D01*
X0129193Y0095563D01*
X0129227Y0095255D01*
X0129268Y0094948D01*
X0129317Y0094642D01*
X0129374Y0094338D01*
X0129438Y0094035D01*
X0129509Y0093733D01*
X0129587Y0093434D01*
X0129673Y0093136D01*
X0129767Y0092841D01*
X0129867Y0092548D01*
X0129975Y0092257D01*
X0130089Y0091969D01*
X0130211Y0091684D01*
X0130339Y0091403D01*
X0130475Y0091124D01*
X0130617Y0090849D01*
X0130766Y0090577D01*
X0130921Y0090309D01*
X0131083Y0090045D01*
X0131252Y0089785D01*
X0131426Y0089529D01*
X0131607Y0089278D01*
X0131794Y0089031D01*
X0131987Y0088789D01*
X0132186Y0088551D01*
X0132390Y0088318D01*
X0132601Y0088091D01*
X0132816Y0087869D01*
X0133037Y0087652D01*
X0133264Y0087440D01*
X0133495Y0087234D01*
X0133731Y0087034D01*
X0133973Y0086840D01*
X0134218Y0086651D01*
X0134469Y0086469D01*
X0134724Y0086293D01*
X0134983Y0086123D01*
X0135246Y0085959D01*
X0135513Y0085802D01*
X0135784Y0085652D01*
X0136058Y0085508D01*
X0136336Y0085371D01*
X0136617Y0085241D01*
X0136901Y0085118D01*
X0137188Y0085001D01*
X0137478Y0084892D01*
X0137770Y0084790D01*
X0138065Y0084695D01*
X0138362Y0084607D01*
X0138661Y0084527D01*
X0138962Y0084454D01*
X0139265Y0084388D01*
X0139569Y0084330D01*
X0139875Y0084279D01*
X0140182Y0084236D01*
X0140489Y0084200D01*
X0140798Y0084172D01*
X0141107Y0084151D01*
X0141416Y0084138D01*
X0141726Y0084132D01*
X0142036Y0084134D01*
X0142345Y0084144D01*
X0142655Y0084161D01*
X0142963Y0084186D01*
X0143271Y0084218D01*
X0143579Y0084257D01*
X0143885Y0084305D01*
X0144190Y0084359D01*
X0144493Y0084422D01*
X0144795Y0084491D01*
X0145095Y0084568D01*
X0145393Y0084652D01*
X0145689Y0084744D01*
X0145983Y0084842D01*
X0146274Y0084948D01*
X0146562Y0085061D01*
X0146848Y0085181D01*
X0147130Y0085308D01*
X0147410Y0085442D01*
X0147686Y0085582D01*
X0147958Y0085730D01*
X0148227Y0085883D01*
X0148492Y0086044D01*
X0148753Y0086211D01*
X0149010Y0086384D01*
X0149262Y0086563D01*
X0149511Y0086749D01*
X0149754Y0086940D01*
X0149993Y0087138D01*
X0150226Y0087341D01*
X0150455Y0087550D01*
X0150679Y0087764D01*
X0150897Y0087984D01*
X0151110Y0088209D01*
X0151317Y0088439D01*
X0151519Y0088674D01*
X0151714Y0088914D01*
X0151904Y0089159D01*
X0151829Y0089216D01*
X0151641Y0088973D01*
X0151446Y0088734D01*
X0151246Y0088501D01*
X0151041Y0088273D01*
X0150829Y0088049D01*
X0150613Y0087831D01*
X0150391Y0087618D01*
X0150164Y0087411D01*
X0149932Y0087209D01*
X0149695Y0087013D01*
X0149453Y0086823D01*
X0149207Y0086639D01*
X0148956Y0086461D01*
X0148701Y0086289D01*
X0148442Y0086124D01*
X0148179Y0085964D01*
X0147912Y0085812D01*
X0147642Y0085665D01*
X0147368Y0085526D01*
X0147091Y0085393D01*
X0146810Y0085267D01*
X0146527Y0085148D01*
X0146240Y0085036D01*
X0145951Y0084931D01*
X0145660Y0084833D01*
X0145366Y0084742D01*
X0145070Y0084659D01*
X0144773Y0084582D01*
X0144473Y0084513D01*
X0144172Y0084452D01*
X0143869Y0084397D01*
X0143565Y0084351D01*
X0143260Y0084311D01*
X0142955Y0084279D01*
X0142648Y0084255D01*
X0142341Y0084238D01*
X0142034Y0084228D01*
X0141726Y0084226D01*
X0141419Y0084232D01*
X0141112Y0084245D01*
X0140805Y0084265D01*
X0140499Y0084294D01*
X0140193Y0084329D01*
X0139889Y0084372D01*
X0139586Y0084423D01*
X0139284Y0084480D01*
X0138983Y0084546D01*
X0138684Y0084618D01*
X0138388Y0084698D01*
X0138093Y0084785D01*
X0137800Y0084879D01*
X0137510Y0084981D01*
X0137222Y0085089D01*
X0136937Y0085204D01*
X0136655Y0085327D01*
X0136376Y0085456D01*
X0136100Y0085592D01*
X0135828Y0085735D01*
X0135559Y0085884D01*
X0135294Y0086040D01*
X0135033Y0086202D01*
X0134776Y0086371D01*
X0134523Y0086546D01*
X0134275Y0086727D01*
X0134031Y0086914D01*
X0133791Y0087107D01*
X0133557Y0087305D01*
X0133327Y0087510D01*
X0133102Y0087720D01*
X0132883Y0087935D01*
X0132669Y0088156D01*
X0132460Y0088381D01*
X0132257Y0088612D01*
X0132060Y0088848D01*
X0131868Y0089089D01*
X0131683Y0089334D01*
X0131503Y0089583D01*
X0131330Y0089837D01*
X0131163Y0090095D01*
X0131002Y0090357D01*
X0130848Y0090623D01*
X0130700Y0090893D01*
X0130559Y0091166D01*
X0130424Y0091443D01*
X0130297Y0091722D01*
X0130176Y0092005D01*
X0130062Y0092291D01*
X0129956Y0092579D01*
X0129856Y0092870D01*
X0129763Y0093163D01*
X0129678Y0093459D01*
X0129600Y0093756D01*
X0129529Y0094055D01*
X0129466Y0094356D01*
X0129410Y0094658D01*
X0129361Y0094962D01*
X0129320Y0095267D01*
X0129286Y0095572D01*
X0129260Y0095878D01*
X0129241Y0096185D01*
X0129230Y0096493D01*
X0129226Y0096800D01*
X0129230Y0097107D01*
X0129241Y0097415D01*
X0129260Y0097722D01*
X0129286Y0098028D01*
X0129320Y0098333D01*
X0129361Y0098638D01*
X0129410Y0098942D01*
X0129466Y0099244D01*
X0129529Y0099545D01*
X0129600Y0099844D01*
X0129678Y0100141D01*
X0129763Y0100437D01*
X0129856Y0100730D01*
X0129956Y0101021D01*
X0130062Y0101309D01*
X0130176Y0101595D01*
X0130297Y0101878D01*
X0130424Y0102157D01*
X0130559Y0102434D01*
X0130700Y0102707D01*
X0130848Y0102977D01*
X0131002Y0103243D01*
X0131163Y0103505D01*
X0131330Y0103763D01*
X0131503Y0104017D01*
X0131683Y0104266D01*
X0131868Y0104511D01*
X0132060Y0104752D01*
X0132257Y0104988D01*
X0132460Y0105219D01*
X0132669Y0105444D01*
X0132883Y0105665D01*
X0133102Y0105880D01*
X0133327Y0106090D01*
X0133557Y0106295D01*
X0133791Y0106493D01*
X0134031Y0106686D01*
X0134275Y0106873D01*
X0134523Y0107054D01*
X0134776Y0107229D01*
X0135033Y0107398D01*
X0135294Y0107560D01*
X0135559Y0107716D01*
X0135828Y0107865D01*
X0136100Y0108008D01*
X0136376Y0108144D01*
X0136655Y0108273D01*
X0136937Y0108396D01*
X0137222Y0108511D01*
X0137510Y0108619D01*
X0137800Y0108721D01*
X0138093Y0108815D01*
X0138388Y0108902D01*
X0138684Y0108982D01*
X0138983Y0109054D01*
X0139284Y0109120D01*
X0139586Y0109177D01*
X0139889Y0109228D01*
X0140193Y0109271D01*
X0140499Y0109306D01*
X0140805Y0109335D01*
X0141112Y0109355D01*
X0141419Y0109368D01*
X0141726Y0109374D01*
X0142034Y0109372D01*
X0142341Y0109362D01*
X0142648Y0109345D01*
X0142955Y0109321D01*
X0143260Y0109289D01*
X0143565Y0109249D01*
X0143869Y0109203D01*
X0144172Y0109148D01*
X0144473Y0109087D01*
X0144773Y0109018D01*
X0145070Y0108941D01*
X0145366Y0108858D01*
X0145660Y0108767D01*
X0145951Y0108669D01*
X0146240Y0108564D01*
X0146527Y0108452D01*
X0146810Y0108333D01*
X0147091Y0108207D01*
X0147368Y0108074D01*
X0147642Y0107935D01*
X0147912Y0107788D01*
X0148179Y0107636D01*
X0148442Y0107476D01*
X0148701Y0107311D01*
X0148956Y0107139D01*
X0149207Y0106961D01*
X0149453Y0106777D01*
X0149695Y0106587D01*
X0149932Y0106391D01*
X0150164Y0106189D01*
X0150391Y0105982D01*
X0150613Y0105769D01*
X0150829Y0105551D01*
X0151041Y0105327D01*
X0151246Y0105099D01*
X0151446Y0104866D01*
X0151641Y0104627D01*
X0151829Y0104384D01*
X0151754Y0104328D01*
X0151567Y0104569D01*
X0151374Y0104806D01*
X0151175Y0105037D01*
X0150971Y0105264D01*
X0150762Y0105486D01*
X0150547Y0105702D01*
X0150326Y0105913D01*
X0150101Y0106119D01*
X0149871Y0106319D01*
X0149635Y0106514D01*
X0149396Y0106702D01*
X0149151Y0106885D01*
X0148902Y0107062D01*
X0148649Y0107232D01*
X0148392Y0107397D01*
X0148131Y0107555D01*
X0147866Y0107706D01*
X0147598Y0107851D01*
X0147326Y0107990D01*
X0147051Y0108122D01*
X0146772Y0108247D01*
X0146491Y0108365D01*
X0146207Y0108476D01*
X0145920Y0108580D01*
X0145631Y0108678D01*
X0145339Y0108768D01*
X0145046Y0108851D01*
X0144750Y0108926D01*
X0144453Y0108995D01*
X0144154Y0109056D01*
X0143853Y0109110D01*
X0143552Y0109156D01*
X0143249Y0109196D01*
X0142946Y0109227D01*
X0142641Y0109252D01*
X0142337Y0109268D01*
X0142032Y0109278D01*
X0141727Y0109280D01*
X0141422Y0109274D01*
X0141117Y0109261D01*
X0140812Y0109241D01*
X0140508Y0109213D01*
X0140205Y0109178D01*
X0139903Y0109135D01*
X0139602Y0109085D01*
X0139302Y0109028D01*
X0139004Y0108963D01*
X0138708Y0108891D01*
X0138413Y0108812D01*
X0138120Y0108725D01*
X0137830Y0108632D01*
X0137542Y0108531D01*
X0137256Y0108423D01*
X0136973Y0108309D01*
X0136693Y0108187D01*
X0136416Y0108059D01*
X0136143Y0107924D01*
X0135873Y0107783D01*
X0135606Y0107634D01*
X0135343Y0107480D01*
X0135084Y0107319D01*
X0134828Y0107151D01*
X0134577Y0106978D01*
X0134331Y0106798D01*
X0134089Y0106612D01*
X0133851Y0106421D01*
X0133618Y0106224D01*
X0133390Y0106021D01*
X0133167Y0105812D01*
X0132949Y0105599D01*
X0132737Y0105380D01*
X0132530Y0105156D01*
X0132328Y0104926D01*
X0132132Y0104692D01*
X0131942Y0104454D01*
X0131758Y0104210D01*
X0131580Y0103963D01*
X0131408Y0103711D01*
X0131242Y0103454D01*
X0131083Y0103194D01*
X0130929Y0102930D01*
X0130783Y0102663D01*
X0130643Y0102392D01*
X0130509Y0102117D01*
X0130383Y0101840D01*
X0130263Y0101559D01*
X0130150Y0101275D01*
X0130044Y0100989D01*
X0129945Y0100701D01*
X0129853Y0100410D01*
X0129769Y0100116D01*
X0129691Y0099821D01*
X0129621Y0099524D01*
X0129558Y0099226D01*
X0129502Y0098926D01*
X0129454Y0098624D01*
X0129413Y0098322D01*
X0129380Y0098019D01*
X0129354Y0097715D01*
X0129335Y0097410D01*
X0129324Y0097105D01*
X0129320Y0096800D01*
X0129324Y0096495D01*
X0129335Y0096190D01*
X0129354Y0095885D01*
X0129380Y0095581D01*
X0129413Y0095278D01*
X0129454Y0094976D01*
X0129502Y0094674D01*
X0129558Y0094374D01*
X0129621Y0094076D01*
X0129691Y0093779D01*
X0129769Y0093484D01*
X0129853Y0093190D01*
X0129945Y0092899D01*
X0130044Y0092611D01*
X0130150Y0092325D01*
X0130263Y0092041D01*
X0130383Y0091760D01*
X0130509Y0091483D01*
X0130643Y0091208D01*
X0130783Y0090937D01*
X0130929Y0090670D01*
X0131083Y0090406D01*
X0131242Y0090146D01*
X0131408Y0089889D01*
X0131580Y0089637D01*
X0131758Y0089390D01*
X0131942Y0089146D01*
X0132132Y0088908D01*
X0132328Y0088674D01*
X0132530Y0088444D01*
X0132737Y0088220D01*
X0132949Y0088001D01*
X0133167Y0087788D01*
X0133390Y0087579D01*
X0133618Y0087376D01*
X0133851Y0087179D01*
X0134089Y0086988D01*
X0134331Y0086802D01*
X0134577Y0086622D01*
X0134828Y0086449D01*
X0135084Y0086281D01*
X0135343Y0086120D01*
X0135606Y0085966D01*
X0135873Y0085817D01*
X0136143Y0085676D01*
X0136416Y0085541D01*
X0136693Y0085413D01*
X0136973Y0085291D01*
X0137256Y0085177D01*
X0137542Y0085069D01*
X0137830Y0084968D01*
X0138120Y0084875D01*
X0138413Y0084788D01*
X0138708Y0084709D01*
X0139004Y0084637D01*
X0139302Y0084572D01*
X0139602Y0084515D01*
X0139903Y0084465D01*
X0140205Y0084422D01*
X0140508Y0084387D01*
X0140812Y0084359D01*
X0141117Y0084339D01*
X0141422Y0084326D01*
X0141727Y0084320D01*
X0142032Y0084322D01*
X0142337Y0084332D01*
X0142641Y0084348D01*
X0142946Y0084373D01*
X0143249Y0084404D01*
X0143552Y0084444D01*
X0143853Y0084490D01*
X0144154Y0084544D01*
X0144453Y0084605D01*
X0144750Y0084674D01*
X0145046Y0084749D01*
X0145339Y0084832D01*
X0145631Y0084922D01*
X0145920Y0085020D01*
X0146207Y0085124D01*
X0146491Y0085235D01*
X0146772Y0085353D01*
X0147051Y0085478D01*
X0147326Y0085610D01*
X0147598Y0085749D01*
X0147866Y0085894D01*
X0148131Y0086045D01*
X0148392Y0086203D01*
X0148649Y0086368D01*
X0148902Y0086538D01*
X0149151Y0086715D01*
X0149396Y0086898D01*
X0149635Y0087086D01*
X0149871Y0087281D01*
X0150101Y0087481D01*
X0150326Y0087687D01*
X0150547Y0087898D01*
X0150762Y0088114D01*
X0150971Y0088336D01*
X0151175Y0088563D01*
X0151374Y0088794D01*
X0151567Y0089031D01*
X0151754Y0089272D01*
X0151679Y0089328D01*
X0151493Y0089089D01*
X0151302Y0088854D01*
X0151105Y0088625D01*
X0150902Y0088400D01*
X0150694Y0088179D01*
X0150480Y0087965D01*
X0150262Y0087755D01*
X0150038Y0087551D01*
X0149810Y0087352D01*
X0149576Y0087159D01*
X0149338Y0086972D01*
X0149096Y0086791D01*
X0148849Y0086615D01*
X0148598Y0086446D01*
X0148342Y0086283D01*
X0148083Y0086126D01*
X0147820Y0085976D01*
X0147554Y0085832D01*
X0147284Y0085694D01*
X0147011Y0085563D01*
X0146735Y0085439D01*
X0146455Y0085322D01*
X0146173Y0085212D01*
X0145889Y0085108D01*
X0145602Y0085012D01*
X0145312Y0084922D01*
X0145021Y0084840D01*
X0144728Y0084765D01*
X0144432Y0084697D01*
X0144136Y0084636D01*
X0143838Y0084583D01*
X0143538Y0084537D01*
X0143238Y0084498D01*
X0142937Y0084466D01*
X0142635Y0084442D01*
X0142332Y0084425D01*
X0142030Y0084416D01*
X0141727Y0084414D01*
X0141424Y0084420D01*
X0141122Y0084433D01*
X0140819Y0084453D01*
X0140518Y0084481D01*
X0140217Y0084516D01*
X0139917Y0084558D01*
X0139618Y0084608D01*
X0139321Y0084665D01*
X0139025Y0084729D01*
X0138731Y0084800D01*
X0138438Y0084879D01*
X0138148Y0084965D01*
X0137859Y0085058D01*
X0137574Y0085157D01*
X0137290Y0085264D01*
X0137010Y0085378D01*
X0136732Y0085498D01*
X0136457Y0085626D01*
X0136185Y0085760D01*
X0135917Y0085900D01*
X0135652Y0086047D01*
X0135391Y0086201D01*
X0135134Y0086361D01*
X0134881Y0086527D01*
X0134632Y0086699D01*
X0134387Y0086877D01*
X0134146Y0087062D01*
X0133911Y0087252D01*
X0133680Y0087447D01*
X0133453Y0087649D01*
X0133232Y0087855D01*
X0133016Y0088068D01*
X0132805Y0088285D01*
X0132600Y0088507D01*
X0132400Y0088735D01*
X0132205Y0088967D01*
X0132017Y0089204D01*
X0131834Y0089446D01*
X0131657Y0089691D01*
X0131486Y0089942D01*
X0131322Y0090196D01*
X0131163Y0090454D01*
X0131011Y0090716D01*
X0130866Y0090981D01*
X0130727Y0091250D01*
X0130594Y0091523D01*
X0130469Y0091798D01*
X0130350Y0092077D01*
X0130238Y0092358D01*
X0130133Y0092642D01*
X0130034Y0092929D01*
X0129943Y0093218D01*
X0129859Y0093509D01*
X0129782Y0093802D01*
X0129713Y0094096D01*
X0129650Y0094393D01*
X0129595Y0094690D01*
X0129547Y0094989D01*
X0129506Y0095289D01*
X0129473Y0095591D01*
X0129447Y0095892D01*
X0129429Y0096195D01*
X0129418Y0096497D01*
X0129414Y0096800D01*
X0129418Y0097103D01*
X0129429Y0097405D01*
X0129447Y0097708D01*
X0129473Y0098009D01*
X0129506Y0098311D01*
X0129547Y0098611D01*
X0129595Y0098910D01*
X0129650Y0099207D01*
X0129713Y0099504D01*
X0129782Y0099798D01*
X0129859Y0100091D01*
X0129943Y0100382D01*
X0130034Y0100671D01*
X0130133Y0100958D01*
X0130238Y0101242D01*
X0130350Y0101523D01*
X0130469Y0101802D01*
X0130594Y0102077D01*
X0130727Y0102350D01*
X0130866Y0102619D01*
X0131011Y0102884D01*
X0131163Y0103146D01*
X0131322Y0103404D01*
X0131486Y0103658D01*
X0131657Y0103909D01*
X0131834Y0104154D01*
X0132017Y0104396D01*
X0132205Y0104633D01*
X0132400Y0104865D01*
X0132600Y0105093D01*
X0132805Y0105315D01*
X0133016Y0105532D01*
X0133232Y0105745D01*
X0133453Y0105951D01*
X0133680Y0106153D01*
X0133911Y0106348D01*
X0134146Y0106538D01*
X0134387Y0106723D01*
X0134632Y0106901D01*
X0134881Y0107073D01*
X0135134Y0107239D01*
X0135391Y0107399D01*
X0135652Y0107553D01*
X0135917Y0107700D01*
X0136185Y0107840D01*
X0136457Y0107974D01*
X0136732Y0108102D01*
X0137010Y0108222D01*
X0137290Y0108336D01*
X0137574Y0108443D01*
X0137859Y0108542D01*
X0138148Y0108635D01*
X0138438Y0108721D01*
X0138731Y0108800D01*
X0139025Y0108871D01*
X0139321Y0108935D01*
X0139618Y0108992D01*
X0139917Y0109042D01*
X0140217Y0109084D01*
X0140518Y0109119D01*
X0140819Y0109147D01*
X0141122Y0109167D01*
X0141424Y0109180D01*
X0141727Y0109186D01*
X0142030Y0109184D01*
X0142332Y0109175D01*
X0142635Y0109158D01*
X0142937Y0109134D01*
X0143238Y0109102D01*
X0143538Y0109063D01*
X0143838Y0109017D01*
X0144136Y0108964D01*
X0144432Y0108903D01*
X0144728Y0108835D01*
X0145021Y0108760D01*
X0145312Y0108678D01*
X0145602Y0108588D01*
X0145889Y0108492D01*
X0146173Y0108388D01*
X0146455Y0108278D01*
X0146735Y0108161D01*
X0147011Y0108037D01*
X0147284Y0107906D01*
X0147554Y0107768D01*
X0147820Y0107624D01*
X0148083Y0107474D01*
X0148342Y0107317D01*
X0148598Y0107154D01*
X0148849Y0106985D01*
X0149096Y0106809D01*
X0149338Y0106628D01*
X0149576Y0106441D01*
X0149810Y0106248D01*
X0150038Y0106049D01*
X0150262Y0105845D01*
X0150480Y0105635D01*
X0150694Y0105421D01*
X0150902Y0105200D01*
X0151105Y0104975D01*
X0151302Y0104746D01*
X0151493Y0104511D01*
X0151679Y0104272D01*
X0151604Y0104215D01*
X0151419Y0104453D01*
X0151229Y0104685D01*
X0151034Y0104914D01*
X0150833Y0105137D01*
X0150626Y0105355D01*
X0150414Y0105569D01*
X0150197Y0105777D01*
X0149975Y0105979D01*
X0149748Y0106176D01*
X0149517Y0106368D01*
X0149281Y0106554D01*
X0149040Y0106734D01*
X0148795Y0106908D01*
X0148546Y0107076D01*
X0148292Y0107238D01*
X0148035Y0107393D01*
X0147774Y0107542D01*
X0147510Y0107685D01*
X0147242Y0107822D01*
X0146971Y0107951D01*
X0146697Y0108074D01*
X0146420Y0108191D01*
X0146140Y0108300D01*
X0145857Y0108403D01*
X0145573Y0108499D01*
X0145285Y0108587D01*
X0144996Y0108669D01*
X0144705Y0108744D01*
X0144412Y0108811D01*
X0144118Y0108872D01*
X0143822Y0108925D01*
X0143525Y0108970D01*
X0143227Y0109009D01*
X0142928Y0109040D01*
X0142628Y0109064D01*
X0142328Y0109081D01*
X0142028Y0109090D01*
X0141727Y0109092D01*
X0141427Y0109086D01*
X0141126Y0109074D01*
X0140827Y0109053D01*
X0140527Y0109026D01*
X0140229Y0108991D01*
X0139931Y0108949D01*
X0139635Y0108900D01*
X0139340Y0108843D01*
X0139046Y0108779D01*
X0138754Y0108709D01*
X0138464Y0108631D01*
X0138175Y0108545D01*
X0137889Y0108453D01*
X0137605Y0108354D01*
X0137324Y0108248D01*
X0137046Y0108135D01*
X0136770Y0108016D01*
X0136497Y0107889D01*
X0136228Y0107756D01*
X0135962Y0107617D01*
X0135699Y0107471D01*
X0135440Y0107319D01*
X0135184Y0107160D01*
X0134933Y0106995D01*
X0134686Y0106824D01*
X0134443Y0106647D01*
X0134204Y0106464D01*
X0133970Y0106276D01*
X0133741Y0106082D01*
X0133517Y0105882D01*
X0133297Y0105677D01*
X0133083Y0105466D01*
X0132873Y0105250D01*
X0132669Y0105030D01*
X0132471Y0104804D01*
X0132278Y0104573D01*
X0132091Y0104338D01*
X0131909Y0104099D01*
X0131734Y0103855D01*
X0131564Y0103606D01*
X0131401Y0103354D01*
X0131244Y0103098D01*
X0131093Y0102838D01*
X0130949Y0102574D01*
X0130811Y0102307D01*
X0130679Y0102037D01*
X0130555Y0101764D01*
X0130437Y0101487D01*
X0130326Y0101208D01*
X0130221Y0100926D01*
X0130124Y0100642D01*
X0130033Y0100355D01*
X0129950Y0100066D01*
X0129874Y0099776D01*
X0129804Y0099483D01*
X0129742Y0099189D01*
X0129688Y0098894D01*
X0129640Y0098597D01*
X0129600Y0098299D01*
X0129567Y0098000D01*
X0129541Y0097701D01*
X0129523Y0097401D01*
X0129512Y0097101D01*
X0129508Y0096800D01*
X0129512Y0096499D01*
X0129523Y0096199D01*
X0129541Y0095899D01*
X0129567Y0095600D01*
X0129600Y0095301D01*
X0129640Y0095003D01*
X0129688Y0094706D01*
X0129742Y0094411D01*
X0129804Y0094117D01*
X0129874Y0093824D01*
X0129950Y0093534D01*
X0130033Y0093245D01*
X0130124Y0092958D01*
X0130221Y0092674D01*
X0130326Y0092392D01*
X0130437Y0092113D01*
X0130555Y0091836D01*
X0130679Y0091563D01*
X0130811Y0091293D01*
X0130949Y0091026D01*
X0131093Y0090762D01*
X0131244Y0090502D01*
X0131401Y0090246D01*
X0131564Y0089994D01*
X0131734Y0089745D01*
X0131909Y0089501D01*
X0132091Y0089262D01*
X0132278Y0089027D01*
X0132471Y0088796D01*
X0132669Y0088570D01*
X0132873Y0088350D01*
X0133083Y0088134D01*
X0133297Y0087923D01*
X0133517Y0087718D01*
X0133741Y0087518D01*
X0133970Y0087324D01*
X0134204Y0087136D01*
X0134443Y0086953D01*
X0134686Y0086776D01*
X0134933Y0086605D01*
X0135184Y0086440D01*
X0135440Y0086281D01*
X0135699Y0086129D01*
X0135962Y0085983D01*
X0136228Y0085844D01*
X0136497Y0085711D01*
X0136770Y0085584D01*
X0137046Y0085465D01*
X0137324Y0085352D01*
X0137605Y0085246D01*
X0137889Y0085147D01*
X0138175Y0085055D01*
X0138464Y0084969D01*
X0138754Y0084891D01*
X0139046Y0084821D01*
X0139340Y0084757D01*
X0139635Y0084700D01*
X0139931Y0084651D01*
X0140229Y0084609D01*
X0140527Y0084574D01*
X0140827Y0084547D01*
X0141126Y0084526D01*
X0141427Y0084514D01*
X0141727Y0084508D01*
X0142028Y0084510D01*
X0142328Y0084519D01*
X0142628Y0084536D01*
X0142928Y0084560D01*
X0143227Y0084591D01*
X0143525Y0084630D01*
X0143822Y0084675D01*
X0144118Y0084728D01*
X0144412Y0084789D01*
X0144705Y0084856D01*
X0144996Y0084931D01*
X0145285Y0085013D01*
X0145573Y0085101D01*
X0145857Y0085197D01*
X0146140Y0085300D01*
X0146420Y0085409D01*
X0146697Y0085526D01*
X0146971Y0085649D01*
X0147242Y0085778D01*
X0147510Y0085915D01*
X0147774Y0086058D01*
X0148035Y0086207D01*
X0148292Y0086362D01*
X0148546Y0086524D01*
X0148795Y0086692D01*
X0149040Y0086866D01*
X0149281Y0087046D01*
X0149517Y0087232D01*
X0149748Y0087424D01*
X0149975Y0087621D01*
X0150197Y0087823D01*
X0150414Y0088031D01*
X0150626Y0088245D01*
X0150833Y0088463D01*
X0151034Y0088686D01*
X0151229Y0088915D01*
X0151419Y0089147D01*
X0151604Y0089385D01*
X0151528Y0089441D01*
X0151346Y0089206D01*
X0151157Y0088975D01*
X0150963Y0088748D01*
X0150763Y0088526D01*
X0150558Y0088310D01*
X0150348Y0088098D01*
X0150133Y0087892D01*
X0149913Y0087691D01*
X0149687Y0087495D01*
X0149458Y0087305D01*
X0149223Y0087121D01*
X0148984Y0086942D01*
X0148741Y0086769D01*
X0148494Y0086603D01*
X0148242Y0086442D01*
X0147987Y0086288D01*
X0147728Y0086140D01*
X0147466Y0085998D01*
X0147200Y0085863D01*
X0146931Y0085734D01*
X0146659Y0085612D01*
X0146384Y0085496D01*
X0146106Y0085387D01*
X0145826Y0085286D01*
X0145543Y0085191D01*
X0145258Y0085103D01*
X0144971Y0085022D01*
X0144683Y0084947D01*
X0144392Y0084881D01*
X0144100Y0084821D01*
X0143806Y0084768D01*
X0143511Y0084723D01*
X0143216Y0084684D01*
X0142919Y0084653D01*
X0142622Y0084630D01*
X0142324Y0084613D01*
X0142026Y0084604D01*
X0141728Y0084602D01*
X0141429Y0084608D01*
X0141131Y0084620D01*
X0140834Y0084640D01*
X0140537Y0084668D01*
X0140241Y0084702D01*
X0139945Y0084744D01*
X0139651Y0084793D01*
X0139358Y0084849D01*
X0139067Y0084912D01*
X0138777Y0084983D01*
X0138489Y0085060D01*
X0138203Y0085144D01*
X0137919Y0085236D01*
X0137637Y0085334D01*
X0137358Y0085439D01*
X0137082Y0085551D01*
X0136808Y0085670D01*
X0136538Y0085795D01*
X0136270Y0085927D01*
X0136006Y0086066D01*
X0135745Y0086211D01*
X0135488Y0086362D01*
X0135235Y0086519D01*
X0134986Y0086683D01*
X0134740Y0086853D01*
X0134499Y0087028D01*
X0134262Y0087210D01*
X0134030Y0087397D01*
X0133803Y0087589D01*
X0133580Y0087788D01*
X0133362Y0087991D01*
X0133149Y0088200D01*
X0132941Y0088414D01*
X0132739Y0088634D01*
X0132542Y0088857D01*
X0132351Y0089086D01*
X0132165Y0089320D01*
X0131985Y0089557D01*
X0131811Y0089799D01*
X0131643Y0090046D01*
X0131481Y0090296D01*
X0131325Y0090550D01*
X0131175Y0090808D01*
X0131032Y0091070D01*
X0130895Y0091335D01*
X0130764Y0091603D01*
X0130641Y0091874D01*
X0130524Y0092149D01*
X0130413Y0092426D01*
X0130310Y0092706D01*
X0130213Y0092988D01*
X0130123Y0093272D01*
X0130041Y0093559D01*
X0129965Y0093847D01*
X0129896Y0094137D01*
X0129835Y0094429D01*
X0129780Y0094722D01*
X0129733Y0095017D01*
X0129693Y0095312D01*
X0129660Y0095609D01*
X0129635Y0095906D01*
X0129617Y0096204D01*
X0129606Y0096502D01*
X0129602Y0096800D01*
X0129606Y0097098D01*
X0129617Y0097396D01*
X0129635Y0097694D01*
X0129660Y0097991D01*
X0129693Y0098288D01*
X0129733Y0098583D01*
X0129780Y0098878D01*
X0129835Y0099171D01*
X0129896Y0099463D01*
X0129965Y0099753D01*
X0130041Y0100041D01*
X0130123Y0100328D01*
X0130213Y0100612D01*
X0130310Y0100894D01*
X0130413Y0101174D01*
X0130524Y0101451D01*
X0130641Y0101726D01*
X0130764Y0101997D01*
X0130895Y0102265D01*
X0131032Y0102530D01*
X0131175Y0102792D01*
X0131325Y0103050D01*
X0131481Y0103304D01*
X0131643Y0103554D01*
X0131811Y0103801D01*
X0131985Y0104043D01*
X0132165Y0104280D01*
X0132351Y0104514D01*
X0132542Y0104743D01*
X0132739Y0104966D01*
X0132941Y0105186D01*
X0133149Y0105400D01*
X0133362Y0105609D01*
X0133580Y0105812D01*
X0133803Y0106011D01*
X0134030Y0106203D01*
X0134262Y0106390D01*
X0134499Y0106572D01*
X0134740Y0106747D01*
X0134986Y0106917D01*
X0135235Y0107081D01*
X0135488Y0107238D01*
X0135745Y0107389D01*
X0136006Y0107534D01*
X0136270Y0107673D01*
X0136538Y0107805D01*
X0136808Y0107930D01*
X0137082Y0108049D01*
X0137358Y0108161D01*
X0137637Y0108266D01*
X0137919Y0108364D01*
X0138203Y0108456D01*
X0138489Y0108540D01*
X0138777Y0108617D01*
X0139067Y0108688D01*
X0139358Y0108751D01*
X0139651Y0108807D01*
X0139945Y0108856D01*
X0140241Y0108898D01*
X0140537Y0108932D01*
X0140834Y0108960D01*
X0141131Y0108980D01*
X0141429Y0108992D01*
X0141728Y0108998D01*
X0142026Y0108996D01*
X0142324Y0108987D01*
X0142622Y0108970D01*
X0142919Y0108947D01*
X0143216Y0108916D01*
X0143511Y0108877D01*
X0143806Y0108832D01*
X0144100Y0108779D01*
X0144392Y0108719D01*
X0144683Y0108653D01*
X0144971Y0108578D01*
X0145258Y0108497D01*
X0145543Y0108409D01*
X0145826Y0108314D01*
X0146106Y0108213D01*
X0146384Y0108104D01*
X0146659Y0107988D01*
X0146931Y0107866D01*
X0147200Y0107737D01*
X0147466Y0107602D01*
X0147728Y0107460D01*
X0147987Y0107312D01*
X0148242Y0107158D01*
X0148494Y0106997D01*
X0148741Y0106831D01*
X0148984Y0106658D01*
X0149223Y0106479D01*
X0149458Y0106295D01*
X0149687Y0106105D01*
X0149913Y0105909D01*
X0150133Y0105708D01*
X0150348Y0105502D01*
X0150558Y0105290D01*
X0150763Y0105074D01*
X0150963Y0104852D01*
X0151157Y0104625D01*
X0151346Y0104394D01*
X0151528Y0104159D01*
X0151453Y0104102D01*
X0151272Y0104336D01*
X0151085Y0104565D01*
X0150892Y0104790D01*
X0150694Y0105010D01*
X0150491Y0105225D01*
X0150282Y0105435D01*
X0150068Y0105640D01*
X0149850Y0105839D01*
X0149626Y0106033D01*
X0149398Y0106222D01*
X0149166Y0106405D01*
X0148929Y0106582D01*
X0148687Y0106753D01*
X0148442Y0106919D01*
X0148193Y0107078D01*
X0147939Y0107231D01*
X0147683Y0107378D01*
X0147422Y0107519D01*
X0147158Y0107653D01*
X0146891Y0107781D01*
X0146621Y0107902D01*
X0146349Y0108017D01*
X0146073Y0108125D01*
X0145795Y0108226D01*
X0145514Y0108320D01*
X0145232Y0108407D01*
X0144947Y0108488D01*
X0144660Y0108561D01*
X0144372Y0108628D01*
X0144082Y0108687D01*
X0143790Y0108739D01*
X0143498Y0108784D01*
X0143204Y0108822D01*
X0142910Y0108853D01*
X0142615Y0108877D01*
X0142320Y0108893D01*
X0142024Y0108902D01*
X0141728Y0108904D01*
X0141432Y0108898D01*
X0141136Y0108886D01*
X0140841Y0108866D01*
X0140546Y0108839D01*
X0140252Y0108805D01*
X0139959Y0108763D01*
X0139667Y0108715D01*
X0139377Y0108659D01*
X0139088Y0108596D01*
X0138800Y0108526D01*
X0138514Y0108449D01*
X0138230Y0108366D01*
X0137949Y0108275D01*
X0137669Y0108177D01*
X0137392Y0108073D01*
X0137118Y0107962D01*
X0136847Y0107844D01*
X0136578Y0107720D01*
X0136313Y0107589D01*
X0136051Y0107451D01*
X0135792Y0107308D01*
X0135537Y0107158D01*
X0135285Y0107001D01*
X0135038Y0106839D01*
X0134795Y0106671D01*
X0134555Y0106496D01*
X0134320Y0106316D01*
X0134090Y0106131D01*
X0133864Y0105939D01*
X0133643Y0105743D01*
X0133427Y0105541D01*
X0133216Y0105333D01*
X0133010Y0105121D01*
X0132809Y0104903D01*
X0132613Y0104681D01*
X0132423Y0104454D01*
X0132239Y0104223D01*
X0132061Y0103987D01*
X0131888Y0103747D01*
X0131721Y0103502D01*
X0131560Y0103254D01*
X0131405Y0103001D01*
X0131257Y0102745D01*
X0131115Y0102486D01*
X0130979Y0102223D01*
X0130849Y0101957D01*
X0130727Y0101688D01*
X0130610Y0101415D01*
X0130501Y0101140D01*
X0130398Y0100863D01*
X0130302Y0100583D01*
X0130213Y0100301D01*
X0130131Y0100016D01*
X0130056Y0099730D01*
X0129988Y0099442D01*
X0129927Y0099153D01*
X0129873Y0098862D01*
X0129826Y0098569D01*
X0129786Y0098276D01*
X0129754Y0097982D01*
X0129729Y0097687D01*
X0129710Y0097392D01*
X0129700Y0097096D01*
X0129696Y0096800D01*
X0129700Y0096504D01*
X0129710Y0096208D01*
X0129729Y0095913D01*
X0129754Y0095618D01*
X0129786Y0095324D01*
X0129826Y0095031D01*
X0129873Y0094738D01*
X0129927Y0094447D01*
X0129988Y0094158D01*
X0130056Y0093870D01*
X0130131Y0093584D01*
X0130213Y0093299D01*
X0130302Y0093017D01*
X0130398Y0092737D01*
X0130501Y0092460D01*
X0130610Y0092185D01*
X0130727Y0091912D01*
X0130849Y0091643D01*
X0130979Y0091377D01*
X0131115Y0091114D01*
X0131257Y0090855D01*
X0131405Y0090599D01*
X0131560Y0090346D01*
X0131721Y0090098D01*
X0131888Y0089853D01*
X0132061Y0089613D01*
X0132239Y0089377D01*
X0132423Y0089146D01*
X0132613Y0088919D01*
X0132809Y0088697D01*
X0133010Y0088479D01*
X0133216Y0088267D01*
X0133427Y0088059D01*
X0133643Y0087857D01*
X0133864Y0087661D01*
X0134090Y0087469D01*
X0134320Y0087284D01*
X0134555Y0087104D01*
X0134795Y0086929D01*
X0135038Y0086761D01*
X0135285Y0086599D01*
X0135537Y0086442D01*
X0135792Y0086292D01*
X0136051Y0086149D01*
X0136313Y0086011D01*
X0136578Y0085880D01*
X0136847Y0085756D01*
X0137118Y0085638D01*
X0137392Y0085527D01*
X0137669Y0085423D01*
X0137949Y0085325D01*
X0138230Y0085234D01*
X0138514Y0085151D01*
X0138800Y0085074D01*
X0139088Y0085004D01*
X0139377Y0084941D01*
X0139667Y0084885D01*
X0139959Y0084837D01*
X0140252Y0084795D01*
X0140546Y0084761D01*
X0140841Y0084734D01*
X0141136Y0084714D01*
X0141432Y0084702D01*
X0141728Y0084696D01*
X0142024Y0084698D01*
X0142320Y0084707D01*
X0142615Y0084723D01*
X0142910Y0084747D01*
X0143204Y0084778D01*
X0143498Y0084816D01*
X0143790Y0084861D01*
X0144082Y0084913D01*
X0144372Y0084972D01*
X0144660Y0085039D01*
X0144947Y0085112D01*
X0145232Y0085193D01*
X0145514Y0085280D01*
X0145795Y0085374D01*
X0146073Y0085475D01*
X0146349Y0085583D01*
X0146621Y0085698D01*
X0146891Y0085819D01*
X0147158Y0085947D01*
X0147422Y0086081D01*
X0147683Y0086222D01*
X0147939Y0086369D01*
X0148193Y0086522D01*
X0148442Y0086681D01*
X0148687Y0086847D01*
X0148929Y0087018D01*
X0149166Y0087195D01*
X0149398Y0087378D01*
X0149626Y0087567D01*
X0149850Y0087761D01*
X0150068Y0087960D01*
X0150282Y0088165D01*
X0150491Y0088375D01*
X0150694Y0088590D01*
X0150892Y0088810D01*
X0151085Y0089035D01*
X0151272Y0089264D01*
X0151453Y0089498D01*
D16*
X0131800Y0096800D02*
X0131803Y0097045D01*
X0131812Y0097291D01*
X0131827Y0097536D01*
X0131848Y0097780D01*
X0131875Y0098024D01*
X0131908Y0098267D01*
X0131947Y0098510D01*
X0131992Y0098751D01*
X0132043Y0098991D01*
X0132100Y0099230D01*
X0132162Y0099467D01*
X0132231Y0099703D01*
X0132305Y0099937D01*
X0132385Y0100169D01*
X0132470Y0100399D01*
X0132561Y0100627D01*
X0132658Y0100852D01*
X0132760Y0101076D01*
X0132868Y0101296D01*
X0132981Y0101514D01*
X0133099Y0101729D01*
X0133223Y0101941D01*
X0133351Y0102150D01*
X0133485Y0102356D01*
X0133624Y0102558D01*
X0133768Y0102757D01*
X0133917Y0102952D01*
X0134070Y0103144D01*
X0134228Y0103332D01*
X0134390Y0103516D01*
X0134558Y0103695D01*
X0134729Y0103871D01*
X0134905Y0104042D01*
X0135084Y0104210D01*
X0135268Y0104372D01*
X0135456Y0104530D01*
X0135648Y0104683D01*
X0135843Y0104832D01*
X0136042Y0104976D01*
X0136244Y0105115D01*
X0136450Y0105249D01*
X0136659Y0105377D01*
X0136871Y0105501D01*
X0137086Y0105619D01*
X0137304Y0105732D01*
X0137524Y0105840D01*
X0137748Y0105942D01*
X0137973Y0106039D01*
X0138201Y0106130D01*
X0138431Y0106215D01*
X0138663Y0106295D01*
X0138897Y0106369D01*
X0139133Y0106438D01*
X0139370Y0106500D01*
X0139609Y0106557D01*
X0139849Y0106608D01*
X0140090Y0106653D01*
X0140333Y0106692D01*
X0140576Y0106725D01*
X0140820Y0106752D01*
X0141064Y0106773D01*
X0141309Y0106788D01*
X0141555Y0106797D01*
X0141800Y0106800D01*
X0142045Y0106797D01*
X0142291Y0106788D01*
X0142536Y0106773D01*
X0142780Y0106752D01*
X0143024Y0106725D01*
X0143267Y0106692D01*
X0143510Y0106653D01*
X0143751Y0106608D01*
X0143991Y0106557D01*
X0144230Y0106500D01*
X0144467Y0106438D01*
X0144703Y0106369D01*
X0144937Y0106295D01*
X0145169Y0106215D01*
X0145399Y0106130D01*
X0145627Y0106039D01*
X0145852Y0105942D01*
X0146076Y0105840D01*
X0146296Y0105732D01*
X0146514Y0105619D01*
X0146729Y0105501D01*
X0146941Y0105377D01*
X0147150Y0105249D01*
X0147356Y0105115D01*
X0147558Y0104976D01*
X0147757Y0104832D01*
X0147952Y0104683D01*
X0148144Y0104530D01*
X0148332Y0104372D01*
X0148516Y0104210D01*
X0148695Y0104042D01*
X0148871Y0103871D01*
X0149042Y0103695D01*
X0149210Y0103516D01*
X0149372Y0103332D01*
X0149530Y0103144D01*
X0149683Y0102952D01*
X0149832Y0102757D01*
X0149976Y0102558D01*
X0150115Y0102356D01*
X0150249Y0102150D01*
X0150377Y0101941D01*
X0150501Y0101729D01*
X0150619Y0101514D01*
X0150732Y0101296D01*
X0150840Y0101076D01*
X0150942Y0100852D01*
X0151039Y0100627D01*
X0151130Y0100399D01*
X0151215Y0100169D01*
X0151295Y0099937D01*
X0151369Y0099703D01*
X0151438Y0099467D01*
X0151500Y0099230D01*
X0151557Y0098991D01*
X0151608Y0098751D01*
X0151653Y0098510D01*
X0151692Y0098267D01*
X0151725Y0098024D01*
X0151752Y0097780D01*
X0151773Y0097536D01*
X0151788Y0097291D01*
X0151797Y0097045D01*
X0151800Y0096800D01*
X0151797Y0096555D01*
X0151788Y0096309D01*
X0151773Y0096064D01*
X0151752Y0095820D01*
X0151725Y0095576D01*
X0151692Y0095333D01*
X0151653Y0095090D01*
X0151608Y0094849D01*
X0151557Y0094609D01*
X0151500Y0094370D01*
X0151438Y0094133D01*
X0151369Y0093897D01*
X0151295Y0093663D01*
X0151215Y0093431D01*
X0151130Y0093201D01*
X0151039Y0092973D01*
X0150942Y0092748D01*
X0150840Y0092524D01*
X0150732Y0092304D01*
X0150619Y0092086D01*
X0150501Y0091871D01*
X0150377Y0091659D01*
X0150249Y0091450D01*
X0150115Y0091244D01*
X0149976Y0091042D01*
X0149832Y0090843D01*
X0149683Y0090648D01*
X0149530Y0090456D01*
X0149372Y0090268D01*
X0149210Y0090084D01*
X0149042Y0089905D01*
X0148871Y0089729D01*
X0148695Y0089558D01*
X0148516Y0089390D01*
X0148332Y0089228D01*
X0148144Y0089070D01*
X0147952Y0088917D01*
X0147757Y0088768D01*
X0147558Y0088624D01*
X0147356Y0088485D01*
X0147150Y0088351D01*
X0146941Y0088223D01*
X0146729Y0088099D01*
X0146514Y0087981D01*
X0146296Y0087868D01*
X0146076Y0087760D01*
X0145852Y0087658D01*
X0145627Y0087561D01*
X0145399Y0087470D01*
X0145169Y0087385D01*
X0144937Y0087305D01*
X0144703Y0087231D01*
X0144467Y0087162D01*
X0144230Y0087100D01*
X0143991Y0087043D01*
X0143751Y0086992D01*
X0143510Y0086947D01*
X0143267Y0086908D01*
X0143024Y0086875D01*
X0142780Y0086848D01*
X0142536Y0086827D01*
X0142291Y0086812D01*
X0142045Y0086803D01*
X0141800Y0086800D01*
X0141555Y0086803D01*
X0141309Y0086812D01*
X0141064Y0086827D01*
X0140820Y0086848D01*
X0140576Y0086875D01*
X0140333Y0086908D01*
X0140090Y0086947D01*
X0139849Y0086992D01*
X0139609Y0087043D01*
X0139370Y0087100D01*
X0139133Y0087162D01*
X0138897Y0087231D01*
X0138663Y0087305D01*
X0138431Y0087385D01*
X0138201Y0087470D01*
X0137973Y0087561D01*
X0137748Y0087658D01*
X0137524Y0087760D01*
X0137304Y0087868D01*
X0137086Y0087981D01*
X0136871Y0088099D01*
X0136659Y0088223D01*
X0136450Y0088351D01*
X0136244Y0088485D01*
X0136042Y0088624D01*
X0135843Y0088768D01*
X0135648Y0088917D01*
X0135456Y0089070D01*
X0135268Y0089228D01*
X0135084Y0089390D01*
X0134905Y0089558D01*
X0134729Y0089729D01*
X0134558Y0089905D01*
X0134390Y0090084D01*
X0134228Y0090268D01*
X0134070Y0090456D01*
X0133917Y0090648D01*
X0133768Y0090843D01*
X0133624Y0091042D01*
X0133485Y0091244D01*
X0133351Y0091450D01*
X0133223Y0091659D01*
X0133099Y0091871D01*
X0132981Y0092086D01*
X0132868Y0092304D01*
X0132760Y0092524D01*
X0132658Y0092748D01*
X0132561Y0092973D01*
X0132470Y0093201D01*
X0132385Y0093431D01*
X0132305Y0093663D01*
X0132231Y0093897D01*
X0132162Y0094133D01*
X0132100Y0094370D01*
X0132043Y0094609D01*
X0131992Y0094849D01*
X0131947Y0095090D01*
X0131908Y0095333D01*
X0131875Y0095576D01*
X0131848Y0095820D01*
X0131827Y0096064D01*
X0131812Y0096309D01*
X0131803Y0096555D01*
X0131800Y0096800D01*
M02*
